<svg version="1.1" class="Missio.io" xmlns="http://www.w3.org/2000/svg" xmlns:xlink="http://www.w3.org/1999/xlink" x="0px" y="0px" width="324.667px" height="43.667px" viewBox="0 0 324.667 43.667" enable-background="new 0 0 324.667 43.667" xml:space="preserve">
<g>
	<path fill="#FFFFFF" stroke="#FFFFFF" stroke-miterlimit="10" d="M77.662,25.174c-0.711-0.008-1.393,0.094-2.051,0.25   l-6.547-10.579c1.802-1.406,2.992-3.563,3.016-6.027c0.039-4.288-3.403-7.796-7.691-7.837c-4.291-0.042-7.798,3.401-7.837,7.689   c-0.013,1.213,0.28,2.349,0.765,3.375l-8.516,5.099c-1.378-1.243-3.184-2.022-5.187-2.022c-2.038,0-3.879,0.803-5.266,2.088   l-8.227-5.035c0.494-1.022,0.796-2.155,0.796-3.368c0-4.29-3.475-7.764-7.763-7.764c-4.291,0-7.766,3.475-7.766,7.764   c0,2.464,1.168,4.632,2.957,6.054l-6.646,10.517c-0.658-0.161-1.338-0.269-2.047-0.269c-4.802,0-8.695,3.89-8.695,8.693   c0,4.802,3.892,8.693,8.695,8.693c4.802,0,8.691-3.891,8.691-8.693c0-3.031-1.553-5.692-3.906-7.248l6.53-10.333   c0.695,0.207,1.421,0.351,2.187,0.351c2.007,0,3.818-0.781,5.196-2.031l8.258,5.054c-0.473,1.002-0.757,2.109-0.757,3.291   c0,4.29,3.475,7.764,7.763,7.764c4.291,0,7.766-3.475,7.766-7.764c0-1.216-0.304-2.351-0.801-3.374l8.485-5.084   c1.367,1.264,3.169,2.061,5.176,2.08c0.765,0.008,1.491-0.129,2.191-0.33l6.429,10.395c-2.366,1.533-3.945,4.18-3.976,7.211   c-0.044,4.803,3.81,8.729,8.612,8.775s8.73-3.809,8.774-8.61C86.316,29.148,82.462,25.22,77.662,25.174z M14.95,33.804   c0,2.928-2.373,5.3-5.299,5.3c-2.93,0-5.301-2.372-5.301-5.3s2.371-5.3,5.301-5.3C12.577,28.504,14.95,30.875,14.95,33.804z    M23.152,13.543c-2.615,0-4.737-2.119-4.737-4.734s2.121-4.734,4.737-4.734c2.615,0,4.732,2.119,4.732,4.734   C27.885,11.424,25.768,13.543,23.152,13.543z M43.613,27.622c-2.615,0-4.732-2.119-4.732-4.734s2.117-4.734,4.732-4.734   c2.618,0,4.737,2.119,4.737,4.734C48.349,25.503,46.23,27.622,43.613,27.622z M64.27,13.479c-2.618-0.025-4.715-2.163-4.691-4.778   c0.026-2.615,2.163-4.715,4.778-4.69c2.618,0.025,4.717,2.164,4.691,4.779C69.024,11.406,66.885,13.504,64.27,13.479z    M77.529,39.167c-2.93-0.027-5.277-2.422-5.251-5.349c0.026-2.929,2.423-5.277,5.351-5.25s5.277,2.421,5.25,5.349   C82.849,36.845,80.457,39.195,77.529,39.167z"/>
	<g>
		<polygon fill="#FFFFFF" points="118.8,18.647 107.943,1.181 98.148,1.181 98.148,42.487 107.058,42.487 107.058,15.698     118.564,33.163 118.8,33.163 130.424,15.52 130.424,42.485 139.452,42.485 139.452,1.181 129.657,1.181   "/>
		<rect x="153.314" y="1.181" fill="#FFFFFF" width="9.087" height="41.304"/>
		<path fill="#FFFFFF" d="M193.022,17.762c-7.139-1.829-8.909-2.714-8.909-5.428v-0.118c0-2.006,1.83-3.599,5.311-3.599    c3.48,0,7.08,1.534,10.738,4.071l4.721-6.845c-4.19-3.363-9.323-5.251-15.342-5.251c-8.437,0-14.456,4.956-14.456,12.45v0.118    c0,8.202,5.369,10.503,13.689,12.627c6.903,1.77,8.319,2.95,8.319,5.251v0.118c0,2.419-2.242,3.895-5.959,3.895    c-4.721,0-8.615-1.948-12.332-5.016l-5.37,6.432c4.957,4.426,11.27,6.608,17.525,6.609c8.91,0,15.165-4.603,15.165-12.804v-0.118    C206.122,22.955,201.401,19.946,193.022,17.762z"/>
		<path fill="#FFFFFF" d="M233.733,17.762c-7.139-1.829-8.909-2.714-8.909-5.428v-0.118c0-2.006,1.83-3.599,5.311-3.599    c3.48,0,7.08,1.534,10.738,4.071l4.721-6.845c-4.19-3.363-9.323-5.251-15.342-5.251c-8.437,0-14.456,4.956-14.456,12.45v0.118    c0,8.202,5.369,10.503,13.689,12.627c6.903,1.77,8.319,2.95,8.319,5.251v0.118c0,2.419-2.242,3.895-5.959,3.895    c-4.721,0-8.615-1.948-12.332-5.016l-5.37,6.432c4.957,4.426,11.27,6.608,17.525,6.609c8.91,0,15.165-4.603,15.165-12.804v-0.118    C246.833,22.955,242.112,19.946,233.733,17.762z"/>
		<rect x="258.688" y="1.181" fill="#FFFFFF" width="9.087" height="41.304"/>
		<path fill="#FFFFFF" d="M301.82,0.473c-12.745,0-22.01,9.618-22.01,21.36v0.118c0,11.742,9.147,21.242,21.892,21.242    s22.009-9.618,22.009-21.36v-0.118C323.711,9.973,314.565,0.473,301.82,0.473z M314.21,21.951c0,7.081-5.074,12.864-12.391,12.863    c-7.318,0-12.51-5.9-12.51-12.981v-0.118c0-7.08,5.075-12.863,12.392-12.863s12.509,5.9,12.509,12.981V21.951z"/>
	</g>
</g>
</svg>