<svg xmlns="http://www.w3.org/2000/svg" viewBox="0 0 46 46"><path fill-rule="evenodd" fill="#fff" d="M36 41.967V42h-.044A22.89 22.89 0 0123 46C10.297 46 0 35.703 0 23S10.297 0 23 0s23 10.297 23 23c0 7.876-3.964 14.821-10 18.967zm-9.621-31.846l17.396 9.969C42.8 13.075 38.37 7.166 32.256 4.15L14.699 15.243l-1.104-1.667L30.044 3.23A20.908 20.908 0 0023 2a20.87 20.87 0 00-11 3.136V27h-2V6.528C5.133 10.374 2 16.316 2 23c0 .508.041 1.005.076 1.504l17.502 9.618-.957 1.757-16.237-8.923c1.252 6.558 5.554 12.025 11.369 14.888l17.548-11.087 1.104 1.667-16.458 10.351A20.87 20.87 0 0034 40.864V19h2v20.472c4.867-3.846 8-9.788 8-16.472 0-.197-.024-.389-.03-.585L25.422 11.878l.957-1.757zM23 31a7 7 0 01-7-7v-6h2v6a5 5 0 0010 0v-6h2v6a7 7 0 01-7 7zm1-4h-2v-7h-2v-2h6v2h-2v7z"/></svg>