<svg xmlns="http://www.w3.org/2000/svg" viewBox="0 0 1626 601.57">
  <defs>
    <linearGradient id="linear-gradient" x1="1" y1="0.332" x2="0" y2="0.334" gradientUnits="objectBoundingBox">
      <stop offset="0" stop-color="#eb89d2"/>
      <stop offset="0.286" stop-color="#b093dc"/>
      <stop offset="0.704" stop-color="#6597c8"/>
      <stop offset="1" stop-color="#3beacc"/>
    </linearGradient>
    <clipPath id="clip-InfoGraphic">
      <rect width="1626" height="601.57"/>
    </clipPath>
  </defs>
  <g id="InfoGraphic" clip-path="url(#clip-InfoGraphic)">
    <g id="Group_26" data-name="Group 26" transform="translate(-51.516 -98.7)">
      <path id="Path_64" data-name="Path 64" d="M1222.344,601.574a42.506,42.506,0,0,1-30.151-12.489L1036.915,433.807a42.507,42.507,0,0,1-12.488-30.151,43.094,43.094,0,0,1,.649-7.452,46.4,46.4,0,0,1,4.948-12.449,70.734,70.734,0,0,1,10.12-13.44c1.386-1.472,2.686-2.9,3.863-4.257l51.842-51.842,10.708,10.752-60.6,60.6a25.564,25.564,0,0,0,0,36.181L1204.254,580.04a25.561,25.561,0,0,0,36.181,0l158.293-158.293a25.562,25.562,0,0,0,0-36.181L1337.8,324.633l10.87-11.657,61.327,61.327c.082.082.164.163.246.244a52.757,52.757,0,0,1,7.965,16.487,46.292,46.292,0,0,1,1.748,15.37,44.509,44.509,0,0,1-5.088,18.045,42.733,42.733,0,0,1-7.09,9.359L1252.5,589.085a42.506,42.506,0,0,1-30.152,12.489Zm-409.344,0a42.5,42.5,0,0,1-30.15-12.489L627.572,433.807a42.5,42.5,0,0,1-12.489-30.151,43.1,43.1,0,0,1,.65-7.455,46.364,46.364,0,0,1,4.949-12.448A70.736,70.736,0,0,1,630.8,370.315c1.382-1.467,2.681-2.9,3.864-4.257L685.97,314.75,696.68,325.5l-60.063,60.063a25.562,25.562,0,0,0,0,36.181L794.91,580.04a25.561,25.561,0,0,0,36.181,0L989.384,421.747a25.563,25.563,0,0,0,0-36.181l-60.933-60.933,10.356-11.1L987,361.716l14.089,14.951a31.588,31.588,0,0,1,2.744,3.841,45.362,45.362,0,0,1,4.8,10.622,42.626,42.626,0,0,1,1.7,16.05,48.991,48.991,0,0,1-6.551,20.122,43.089,43.089,0,0,1-5.343,6.5L843.152,589.085A42.507,42.507,0,0,1,813,601.574Zm-409.343,0a42.5,42.5,0,0,1-30.151-12.489L218.227,433.807a42.717,42.717,0,0,1-6.441-8.237l-.011-.02-.038-.07a44.9,44.9,0,0,1-5.643-19.393,46.368,46.368,0,0,1,2.113-16.192,50.124,50.124,0,0,1,7.645-15.223l-.189-.03.033-.031.065-.064.027-.026.068-.067.155-.153,61.15-61.15L288.4,324.439l-61.127,61.127a25.561,25.561,0,0,0,0,36.181L385.566,580.04a25.562,25.562,0,0,0,36.181,0L580.04,421.747a25.563,25.563,0,0,0,0-36.181l-60.933-60.933,10.356-11.105L577.635,361.7l14.105,14.968a31.752,31.752,0,0,1,2.745,3.842,45.361,45.361,0,0,1,4.8,10.624,42.592,42.592,0,0,1,1.7,16.052,49,49,0,0,1-6.556,20.126,42.945,42.945,0,0,1-5.339,6.5L433.807,589.085a42.506,42.506,0,0,1-30.151,12.489ZM1460.25,381.332l0,0h0L1449.672,370.8l154.795-154.795a25.562,25.562,0,0,0,0-36.181L1446.173,21.535a25.561,25.561,0,0,0-36.181,0L1251.7,179.828a25.563,25.563,0,0,0,0,36.181l57.607,57.607-10.894,11.634-53.374-53.373-.222-.658a56.384,56.384,0,0,1-6.414-7.169,54.333,54.333,0,0,1-5.018-7.879,38.31,38.31,0,0,1-3.56-9.78c.42.074.834.155,1.231.237a42.966,42.966,0,0,1-.89-8.71,42.509,42.509,0,0,1,12.489-30.15L1397.932,12.489a42.6,42.6,0,0,1,60.3,0l155.278,155.278a42.606,42.606,0,0,1,0,60.3ZM165.7,381.275,12.49,228.07a42.6,42.6,0,0,1,0-60.3L167.767,12.489a42.6,42.6,0,0,1,60.3,0L383.348,167.768l.107.108.045.045.089.09c5.365,6.585,9.074,13.222,11.024,19.728a43,43,0,0,1,.333,18.889l.1-.021.022,0,.065-.014.039-.008.176-.035A44.11,44.11,0,0,1,387.2,225.77c-.561.473-1.111.979-1.635,1.5l-57.8,57.8L316.5,273.813l57.8-57.8a25.562,25.562,0,0,0,0-36.181L216.009,21.535a25.561,25.561,0,0,0-36.181,0L21.535,179.828a25.563,25.563,0,0,0,0,36.181L176.272,370.746,165.7,381.274h0ZM736.04,286.143l0,0h0l-10.73-10.728,59.4-59.4a25.562,25.562,0,0,0,0-36.181L626.418,21.535a25.56,25.56,0,0,0-36.18,0L431.945,179.828a25.563,25.563,0,0,0,0,36.181L490.1,274.166,479.724,285.25l-53.375-53.375-.222-.656a56.338,56.338,0,0,1-6.414-7.169,54.309,54.309,0,0,1-5.018-7.879,38.3,38.3,0,0,1-3.56-9.779l.06.011.061.01a42.675,42.675,0,0,1-.727-5.279c-.007-.3-.008-.617,0-.956a59.984,59.984,0,0,1,1.1-11.179,38.174,38.174,0,0,1,2.948-8.927,41.332,41.332,0,0,1,4.826-7.681,80.124,80.124,0,0,1,6.729-7.441,4.149,4.149,0,0,0,.988-1.4L578.177,12.489a42.6,42.6,0,0,1,60.3,0L793.758,167.768l.107.108.045.045.089.09c5.363,6.583,9.071,13.218,11.022,19.719a43.048,43.048,0,0,1,.379,18.682l.107-.019.029,0,.032-.006.092-.016.135-.023a44.445,44.445,0,0,1-6.958,17.7,25.753,25.753,0,0,0-3.928,3.224Zm409.876-.533,0,0h0l-10.729-10.728,58.87-58.87a25.562,25.562,0,0,0,0-36.181L1035.763,21.535a25.563,25.563,0,0,0-36.181,0L841.289,179.828a25.563,25.563,0,0,0,0,36.181l58.157,58.157L889.068,285.25,837.3,233.485l-.766-2.266a58.775,58.775,0,0,1-7.891-9.2,48.48,48.48,0,0,1-5.375-9.88,31.55,31.55,0,0,1-2.335-11.961,59.973,59.973,0,0,1,1.1-11.179,38.172,38.172,0,0,1,2.948-8.927,41.357,41.357,0,0,1,4.826-7.681,80.1,80.1,0,0,1,6.729-7.441c.92-.917,1.277-1.769,1.059-2.535L987.521,12.489a42.6,42.6,0,0,1,60.3,0l144.682,144.683c-.416.013-.682.023-.777.027h-.056l.013.008a81.564,81.564,0,0,1,12.144,12.771,60.8,60.8,0,0,1,8.026,13.685,36.926,36.926,0,0,1,2.95,16.513c-.687,10.132-3.6,18.5-8.917,25.592-.565.477-1.115.982-1.636,1.5Z" transform="translate(51.516 98.7)" fill="url(#linear-gradient)"/>
      <g id="_07_PUBLIC_DEBT_EQUITY" data-name="07 PUBLIC DEBT EQUITY" transform="translate(1370.672 193.688)">
        <text id="_7" data-name="7" transform="translate(0 148.578)" fill="#eb89d2" font-size="110" font-family="adineuePROTT-Bold, adineue PRO TT" font-weight="700"><tspan x="0" y="0">7</tspan></text>
        <text id="PUBLIC_DEBT_EQUITY" data-name="PUBLIC
DEBT EQUITY" transform="translate(78 125.578)" fill="#eb89d2" font-size="23" font-family="Montserrat-Bold, Montserrat" font-weight="700"><tspan x="0" y="0">PUBLIC</tspan><tspan x="0" y="27">DEBT EQUITY</tspan></text>
        <g id="team" transform="translate(78 0)">
          <g id="Group_15" data-name="Group 15" transform="translate(82.717 48.672)">
            <g id="Group_14" data-name="Group 14">
              <path id="Path_44" data-name="Path 44" d="M406.713,273.32h-8.219a21.38,21.38,0,0,1,1.3,7.349v31.064a9.16,9.16,0,0,1-.528,3.068H412.85a9.216,9.216,0,0,0,9.205-9.205V288.662A15.359,15.359,0,0,0,406.713,273.32Z" transform="translate(-398.494 -273.32)" fill="#eb89d2"/>
            </g>
          </g>
          <g id="Group_17" data-name="Group 17" transform="translate(0 48.672)">
            <g id="Group_16" data-name="Group 16">
              <path id="Path_45" data-name="Path 45" d="M22.266,280.67a21.379,21.379,0,0,1,1.3-7.349H15.342A15.359,15.359,0,0,0,0,288.663V305.6A9.216,9.216,0,0,0,9.205,314.8H22.793a9.163,9.163,0,0,1-.528-3.069Z" transform="translate(0 -273.321)" fill="#eb89d2"/>
            </g>
          </g>
          <g id="Group_19" data-name="Group 19" transform="translate(28.402 40.68)">
            <g id="Group_18" data-name="Group 18">
              <path id="Path_46" data-name="Path 46" d="M170.961,234.815h-18.79a15.359,15.359,0,0,0-15.342,15.342V281.22a3.068,3.068,0,0,0,3.068,3.068h43.337a3.068,3.068,0,0,0,3.068-3.068V250.157A15.359,15.359,0,0,0,170.961,234.815Z" transform="translate(-136.829 -234.815)" fill="#eb89d2"/>
            </g>
          </g>
          <g id="Group_21" data-name="Group 21" transform="translate(34.689)">
            <g id="Group_20" data-name="Group 20" transform="translate(0 0)">
              <path id="Path_47" data-name="Path 47" d="M185.565,38.84a18.447,18.447,0,1,0,18.451,18.451A18.471,18.471,0,0,0,185.565,38.84Z" transform="translate(-167.114 -38.84)" fill="#eb89d2"/>
            </g>
          </g>
          <g id="Group_23" data-name="Group 23" transform="translate(6.942 17.197)">
            <g id="Group_22" data-name="Group 22">
              <path id="Path_48" data-name="Path 48" d="M47.242,121.689a13.792,13.792,0,1,0,13.8,13.8A13.814,13.814,0,0,0,47.242,121.689Z" transform="translate(-33.443 -121.689)" fill="#eb89d2"/>
            </g>
          </g>
          <g id="Group_25" data-name="Group 25" transform="translate(71.739 17.197)">
            <g id="Group_24" data-name="Group 24">
              <path id="Path_49" data-name="Path 49" d="M359.406,121.689a13.8,13.8,0,1,0,13.8,13.8A13.814,13.814,0,0,0,359.406,121.689Z" transform="translate(-345.607 -121.689)" fill="#eb89d2"/>
            </g>
          </g>
        </g>
      </g>
      <g id="_06_TRADITIONAL_BANK_LOAN" data-name="06 TRADITIONAL BANK LOAN" transform="translate(1163.29 397.657)">
        <text id="_6" data-name="6" transform="translate(0 161.147)" fill="#a394d8" font-size="110" font-family="adineuePROTT-Bold, adineue PRO TT" font-weight="700"><tspan x="0" y="0">6</tspan></text>
        <text id="TRADITIONAL_BANK_LOAN" data-name="TRADITIONAL
BANK LOAN" transform="translate(70 150.147)" fill="#a394d8" font-size="23" font-family="Montserrat-Bold, Montserrat" font-weight="700"><tspan x="0" y="0">TRADITIONAL</tspan><tspan x="0" y="27">BANK LOAN</tspan></text>
        <g id="light-bulb" transform="translate(70)">
          <g id="Group_12" data-name="Group 12" transform="translate(37.666 91.225)">
            <path id="Path_34" data-name="Path 34" d="M216.5,411.709H192.187a2.771,2.771,0,0,1,0-5.541H216.5a2.771,2.771,0,1,1,0,5.541Z" transform="translate(-189.416 -406.168)" fill="#a394d8"/>
            <path id="Path_35" data-name="Path 35" d="M216.5,447.093H192.187a2.771,2.771,0,0,1,0-5.541H216.5a2.771,2.771,0,1,1,0,5.541Z" transform="translate(-189.416 -433.605)" fill="#a394d8"/>
          </g>
          <g id="Group_13" data-name="Group 13">
            <path id="Path_36" data-name="Path 36" d="M196.072,481.08c1.865,4.032,7.171,6.945,13.433,6.945s11.568-2.913,13.433-6.945Z" transform="translate(-156.911 -373.029)" fill="#a394d8"/>
            <circle id="Ellipse_1" data-name="Ellipse 1" cx="0.005" cy="0.005" r="0.005" transform="translate(52.56 22.976)" fill="#a394d8"/>
            <path id="Path_37" data-name="Path 37" d="M156.3,102.312h0c-23.763.02-35.69,24.2-24.774,40.557C141.9,158.4,141.048,167.2,141.048,167.2h30.5s-.857-8.8,9.51-24.334C191.98,126.508,180.053,102.332,156.3,102.312Z" transform="translate(-103.7 -79.333)" fill="#a394d8"/>
            <circle id="Ellipse_2" data-name="Ellipse 2" cx="0.013" cy="0.013" r="0.013" transform="translate(52.583 22.974)" fill="#a394d8"/>
            <path id="Path_38" data-name="Path 38" d="M246.441,18.464a2.769,2.769,0,0,1-2.769-2.769h0V2.771a2.77,2.77,0,1,1,5.54,0V15.7a2.769,2.769,0,0,1-2.767,2.771Z" transform="translate(-193.82)" fill="#a394d8"/>
            <path id="Path_39" data-name="Path 39" d="M37.405,252.149H24.481a2.771,2.771,0,0,1,0-5.541H37.405a2.771,2.771,0,0,1,0,5.541Z" transform="translate(-21.712 -191.22)" fill="#a394d8"/>
            <path id="Path_40" data-name="Path 40" d="M423.767,252.149H410.843a2.771,2.771,0,0,1,0-5.541h12.924a2.771,2.771,0,0,1,0,5.541Z" transform="translate(-321.296 -191.22)" fill="#a394d8"/>
            <path id="Path_41" data-name="Path 41" d="M81.192,86.925a2.763,2.763,0,0,1-1.959-.812L70.1,76.972a2.77,2.77,0,0,1,3.917-3.917l9.139,9.139a2.769,2.769,0,0,1-1.959,4.727Z" transform="translate(-58.599 -56.018)" fill="#a394d8"/>
            <path id="Path_42" data-name="Path 42" d="M380.131,86.937a2.768,2.768,0,0,1-1.958-4.727l9.138-9.139a2.77,2.77,0,0,1,3.917,3.917l-9.142,9.133A2.766,2.766,0,0,1,380.131,86.937Z" transform="translate(-297.482 -56.03)" fill="#a394d8"/>
          </g>
          <path id="Path_43" data-name="Path 43" d="M232.412,189.3v-3.685a12.716,12.716,0,0,1-6.156-1.673l1.026-3.572a11.989,11.989,0,0,0,5.929,1.673c2.4,0,4.03-1.177,4.03-3,0-1.709-1.33-2.81-4.142-3.838-3.991-1.437-6.574-3.267-6.574-6.8,0-3.268,2.28-5.777,6.118-6.468v-3.716h3.112v3.534A12.159,12.159,0,0,1,241,163.008l-1.026,3.5a11.285,11.285,0,0,0-5.168-1.294c-2.661,0-3.61,1.369-3.61,2.659,0,1.558,1.367,2.433,4.6,3.725,4.257,1.6,6.156,3.648,6.156,7.029a6.927,6.927,0,0,1-6.422,6.767V189.3Z" transform="translate(-180.315 -122.681)" fill="#fff"/>
        </g>
      </g>
      <g id="_05_PURCHASE_ORDER_FINANCING" data-name="05 PURCHASE ORDER FINANCING" transform="translate(957.779 172.637)">
        <text id="_5" data-name="5" transform="translate(0 161.363)" fill="#8b95d2" font-size="110" font-family="adineuePROTT-Bold, adineue PRO TT" font-weight="700"><tspan x="0" y="0">5</tspan></text>
        <text id="MONITORED_ASSET_BASED_LENDING" data-name="MONITORED
ASSET BASED
LENDING" transform="translate(75 116.363)" fill="#8b95d2" font-size="23" font-family="Montserrat-Bold, Montserrat" font-weight="700"><tspan x="0" y="0">MONITORED</tspan><tspan x="0" y="27">ASSET BASED</tspan><tspan x="0" y="54">LENDING</tspan></text>
        <g id="cost" transform="translate(75)">
          <path id="Path_28" data-name="Path 28" d="M32.678,212.021c7.376,0,13.087-.706,17.668-2.149a8.571,8.571,0,0,1,2.485-7.854,8.708,8.708,0,0,1,0-12.5,8.708,8.708,0,0,1,0-12.5,8.693,8.693,0,0,1,.954-13.292,35.467,35.467,0,0,0-4.744-3.656A4.9,4.9,0,0,0,50.184,157a5,5,0,0,0-5-5H20.174a5,5,0,0,0-5,5,4.9,4.9,0,0,0,1.138,3.052A35.794,35.794,0,0,0,0,189.513C0,209.689,18.721,212.021,32.678,212.021Zm-.027-24.276a7.483,7.483,0,0,1-2.474-14.553v-3.686a2.5,2.5,0,1,1,5,0v3.7a7.491,7.491,0,0,1,4.975,7.033,2.5,2.5,0,0,1-5,0,2.5,2.5,0,1,0-2.5,2.5,7.485,7.485,0,0,1,2.528,14.536v2.237a2.5,2.5,0,1,1-5,0V197.3a7.489,7.489,0,0,1-5.028-7.05,2.5,2.5,0,0,1,5,0,2.5,2.5,0,1,0,2.5-2.5Zm0,0" transform="translate(0 -126.658)" fill="#8b95d2"/>
          <path id="Path_29" data-name="Path 29" d="M357.426,467H334.751a3.751,3.751,0,1,0,0,7.5h22.675a3.751,3.751,0,1,0,0-7.5Zm0,0" transform="translate(-275.814 -389.139)" fill="#8b95d2"/>
          <path id="Path_30" data-name="Path 30" d="M357.426,392H334.751a3.751,3.751,0,1,0,0,7.5h22.675a3.751,3.751,0,1,0,0-7.5Zm0,0" transform="translate(-275.814 -326.644)" fill="#8b95d2"/>
          <path id="Path_31" data-name="Path 31" d="M357.426,317H334.751a3.751,3.751,0,1,0,0,7.5h22.675a3.751,3.751,0,0,0,0-7.5Zm0,0" transform="translate(-275.814 -264.148)" fill="#8b95d2"/>
          <path id="Path_32" data-name="Path 32" d="M357.426,242H334.751a3.751,3.751,0,1,0,0,7.5h22.675a3.751,3.751,0,0,0,0-7.5Zm0,0" transform="translate(-275.814 -201.652)" fill="#8b95d2"/>
          <path id="Path_33" data-name="Path 33" d="M115.548,5a7.482,7.482,0,0,0-14.118,0H93.5a2.5,2.5,0,0,0-2.371,3.292l3.9,12.047h26.945l3.9-12.047A2.5,2.5,0,0,0,123.511,5Zm0,0" transform="translate(-75.828)" fill="#8b95d2"/>
        </g>
      </g>
      <g id="_04_FACTORING" data-name="04 FACTORING" transform="translate(753.438 429.087)">
        <text id="_4" data-name="4" transform="translate(0 130.499)" fill="#7896cd" font-size="110" font-family="adineuePROTT-Bold, adineue PRO TT" font-weight="700"><tspan x="0" y="0">4</tspan></text>
        <text id="FACTORING" transform="translate(82 119.499)" fill="#7896cd" font-size="24" font-family="Montserrat-Bold, Montserrat" font-weight="700"><tspan x="0" y="0">FACTORING</tspan></text>
        <g id="growth" transform="translate(82 0)">
          <path id="Path_23" data-name="Path 23" d="M0,176H77.5v6.458H0Z" transform="translate(0 -104.958)" fill="#7896cd"/>
          <path id="Path_24" data-name="Path 24" d="M69.78,11.5l1.358,5.432L77.4,15.362,74.174,2.445A3.229,3.229,0,0,0,70.259.1L57.342,3.325,58.908,9.59l5.228-1.307C45.838,34.736,14.823,41.978,0,41.978v6.458c7.926,0,21.126-2.087,34.4-7.944,14.929-6.587,26.8-16.323,35.378-29Z" transform="translate(0 0.001)" fill="#7896cd"/>
          <path id="Path_25" data-name="Path 25" d="M19.229,128A3.229,3.229,0,0,0,16,131.229v12.917H35.375V131.229A3.229,3.229,0,0,0,32.146,128Z" transform="translate(-9.542 -76.333)" fill="#7896cd"/>
          <path id="Path_26" data-name="Path 26" d="M75.229,112A3.229,3.229,0,0,0,72,115.229V134.6H91.375V115.229A3.229,3.229,0,0,0,88.146,112Z" transform="translate(-42.938 -66.791)" fill="#7896cd"/>
          <path id="Path_27" data-name="Path 27" d="M131.229,80A3.229,3.229,0,0,0,128,83.229v32.292h19.375V83.229A3.229,3.229,0,0,0,144.146,80Z" transform="translate(-76.333 -47.708)" fill="#7896cd"/>
        </g>
      </g>
      <g id="_03_PURCHASE_ORDER_FINANCING" data-name="03 PURCHASE ORDER FINANCING" transform="translate(536.505 206.1)">
        <text id="_3" data-name="3" transform="translate(0 137)" fill="#629fc9" font-size="110" font-family="adineuePROTT-Bold, adineue PRO TT" font-weight="700"><tspan x="0" y="0">3</tspan></text>
        <text id="PURCHASE_ORDER_FINANCING" data-name="PURCHASE
ORDER
FINANCING" transform="translate(78 92)" fill="#629fc9" font-size="23" font-family="Montserrat-Bold, Montserrat" font-weight="700"><tspan x="0" y="0">PURCHASE</tspan><tspan x="0" y="27">ORDER</tspan><tspan x="0" y="54">FINANCING</tspan></text>
        <g id="agreement" transform="translate(78)">
          <g id="Group_5" data-name="Group 5">
            <g id="Group_4" data-name="Group 4" transform="translate(0 0)">
              <path id="Path_19" data-name="Path 19" d="M27.343,111.852c-3.771-3.771-19.8-4.714-24.986-5.186a1.732,1.732,0,0,0-1.414.471A3.575,3.575,0,0,0,0,109.023v42.428a2.227,2.227,0,0,0,2.357,2.357H16.5a2.593,2.593,0,0,0,2.357-1.414c0-1.414,8.486-26.4,9.429-38.657A1.883,1.883,0,0,0,27.343,111.852Z" transform="translate(0 -106.666)" fill="#629fc9"/>
            </g>
          </g>
          <g id="Group_7" data-name="Group 7" transform="translate(40.011 9.9)">
            <g id="Group_6" data-name="Group 6" transform="translate(0 0)">
              <path id="Path_20" data-name="Path 20" d="M218.836,158.066c-4.714-1.414-8.957-3.3-12.729-4.714-8.486-3.771-12.257-1.886-19.8,5.657-3.3,3.3-5.657,8.014-5.186,9.9,0,.471,0,.471.943.943,2.357.943,5.657,1.414,8.957-3.771a2.449,2.449,0,0,1,1.886-.943c1.414,0,1.886-.471,3.3-.943a22.984,22.984,0,0,1,3.3-1.414h.943c.471,0,1.414.471,1.886.471,2.357,2.357,6.6,5.657,10.843,9.429,6.6,5.186,13.2,10.843,16.5,15.086h.471C226.85,178.338,221.193,162.309,218.836,158.066Z" transform="translate(-181.061 -151.467)" fill="#629fc9"/>
            </g>
          </g>
          <g id="Group_9" data-name="Group 9" transform="translate(80.142 4.714)">
            <g id="Group_8" data-name="Group 8">
              <path id="Path_21" data-name="Path 21" d="M393.309,128c-18.386,0-28.757,4.714-29.229,4.714l-1.414,1.414a2.835,2.835,0,0,0,.471,1.886c2.829,4.714,12.257,30.643,13.671,37.243a3.132,3.132,0,0,0,2.357,1.886h14.143a2.227,2.227,0,0,0,2.357-2.357V130.357A2.227,2.227,0,0,0,393.309,128Z" transform="translate(-362.666 -128)" fill="#629fc9"/>
            </g>
          </g>
          <g id="Group_11" data-name="Group 11" transform="translate(24.514 14.143)">
            <g id="Group_10" data-name="Group 10">
              <path id="Path_22" data-name="Path 22" d="M171.748,207.438c-1.886-4.243-9.9-10.371-16.971-16.028-3.771-3.3-7.543-6.129-10.371-8.486-.471.471-1.414.471-1.414.943-1.414.471-1.886.943-3.771.943-3.771,4.714-8.486,6.6-13.671,4.714a5.573,5.573,0,0,1-4.243-4.243c-.943-4.714,3.3-11.314,6.6-14.614h-9.429a240.358,240.358,0,0,1-7.543,28.286c1.886,1.886,3.771,4.243,5.186,5.186,8.957,7.543,19.329,15.086,21.214,16.5a13.4,13.4,0,0,0,5.657,1.886h1.414l-7.543-7.543a2.333,2.333,0,0,1,3.3-3.3l9.429,9.429c.943.943,1.886.471,2.829.471,1.414-.471,1.886-1.414,2.357-2.829L143.934,207.91a2.333,2.333,0,1,1,3.3-3.3L159.019,216.4c.471.471,2.357.471,3.771,0,.471-.471,1.414-.943,1.886-1.886l-13.2-13.2a2.333,2.333,0,0,1,3.3-3.3l13.671,13.671c.943.471,1.886,0,2.829-.471A3.2,3.2,0,0,0,171.748,207.438Z" transform="translate(-110.934 -170.667)" fill="#629fc9"/>
            </g>
          </g>
        </g>
      </g>
      <g id="_02_SUB_DEBT" data-name="02 SUB DEBT" transform="translate(335.045 442.694)">
        <text id="_2" data-name="2" transform="translate(0 117.197)" fill="#4ecad4" font-size="110" font-family="adineuePROTT-Bold, adineue PRO TT" font-weight="700"><tspan x="0" y="0">2</tspan></text>
        <text id="SUB_DEBT" data-name="SUB DEBT" transform="translate(79 116.197)" fill="#4ecad4" font-size="24" font-family="Montserrat-Bold, Montserrat" font-weight="700"><tspan x="0" y="0">SUB DEBT</tspan></text>
        <g id="bag" transform="translate(79)">
          <g id="Group_3" data-name="Group 3">
            <g id="Group_2" data-name="Group 2" transform="translate(0 0)">
              <path id="Path_17" data-name="Path 17" d="M85.651,54.346H66.185V50.453A7.794,7.794,0,0,0,58.4,42.666H35.039a7.794,7.794,0,0,0-7.786,7.787v3.893H7.787A7.794,7.794,0,0,0,0,62.132v11.68A7.794,7.794,0,0,0,7.787,81.6H38.932V79.652a1.946,1.946,0,0,1,1.947-1.947h11.68a1.946,1.946,0,0,1,1.947,1.947V81.6H85.651a7.794,7.794,0,0,0,7.786-7.786V62.132A7.794,7.794,0,0,0,85.651,54.346Zm-27.252,0H35.039V50.453H58.4Z" transform="translate(0 -42.666)" fill="#4ecad4"/>
              <path id="Path_18" data-name="Path 18" d="M92.357,266.589a1.949,1.949,0,0,0-2.042.192,7.687,7.687,0,0,1-4.665,1.6H54.505v5.84a1.946,1.946,0,0,1-1.947,1.947H40.879a1.946,1.946,0,0,1-1.947-1.947v-5.84H7.787a7.687,7.687,0,0,1-4.665-1.6A1.946,1.946,0,0,0,0,268.332v27.3a7.794,7.794,0,0,0,7.787,7.786H85.651a7.794,7.794,0,0,0,7.786-7.786v-27.3A1.947,1.947,0,0,0,92.357,266.589Z" transform="translate(0 -225.556)" fill="#4ecad4"/>
            </g>
          </g>
        </g>
      </g>
      <g id="_01_EQUITY" data-name="01 EQUITY" transform="translate(141 203.406)">
        <text id="_1" data-name="1" transform="translate(0 139.517)" fill="#3beacc" font-size="110" font-family="adineuePROTT-Bold, adineue PRO TT" font-weight="700"><tspan x="0" y="0">1</tspan></text>
        <text id="EQUITY" transform="translate(59 138.517)" fill="#3beacc" font-size="24" font-family="Montserrat-Bold, Montserrat" font-weight="700"><tspan x="0" y="0">EQUITY</tspan></text>
        <g id="equity-2" data-name="equity" transform="translate(69)">
          <path id="Path_15" data-name="Path 15" d="M17.151,55.129H39.462l5.523-19.336a5.185,5.185,0,0,0,.209-1.466A5.335,5.335,0,0,0,39.864,29H30.927a5.335,5.335,0,0,0-5.33,5.327v7.738H19.065V35.532H11.971a5.975,5.975,0,0,0-4.223,10.2Z" transform="translate(3.798 -29)" fill="#3beacc"/>
          <path id="Path_16" data-name="Path 16" d="M47.025,39H24.3L8.7,61.292A31.5,31.5,0,0,0,34.5,110.855h2.322A31.5,31.5,0,0,0,62.63,61.288ZM45.46,68.4H38.928v-.477a2.794,2.794,0,0,0-2.789-2.789h-.95a2.789,2.789,0,0,0-1.248,5.285L40.306,73.6a9.288,9.288,0,0,1-1.378,17.187v7.006H32.4V90.785a9.3,9.3,0,0,1-6.532-8.848V78.194H32.4v3.743a2.794,2.794,0,0,0,2.789,2.789h.95a2.789,2.789,0,0,0,1.248-5.285l-6.366-3.185A9.288,9.288,0,0,1,32.4,59.071V52.065h6.532v7.006a9.3,9.3,0,0,1,6.532,8.848Z" transform="translate(-3 -6.338)" fill="#3beacc"/>
        </g>
      </g>
    </g>
  </g>
</svg>
