<svg xmlns="http://www.w3.org/2000/svg" viewBox="0 0 120 28.1"><style>.st2{fill:#455fb5}.st3{fill:#8fd351}.st4{fill:#959595}</style><path id="path14" d="M85.3 16.3h-.2v5.8h.2v-5.8zm-.9.2h-.2v5.9h.2v-5.9zm-.8-.1h-.2v6.5h.2v-6.5zm.7-3.1c-.6.7-1.2 1.2-1.1 1.4.2.4.7 1 1.1 1 .4 0 .8-.6 1-1.1.1-.1-.4-.6-1-1.3zm2.3-4.9c-2.2.6-2.4.9-1.9 3.7.6.1 1.2.2 1.9.3v-4zm-2.7 1.2c-1.1.6-2.1 1-2.9 1.6-1.8 1.3-3.3 1.3-5.2 0-1.7-1.2-3.7-2-5.6-3.1v4.2c4.3-.4 6.5 2.2 8.3 5.6 1.1-2.4 2.1-3.9 4-4.7 1.6-.8 1.8-1.8 1.4-3.6zm6.3-4.4c-.2 0-.4-.1-.6-.1-3.2-1.3-6.5-2.5-9.7-3.9-1.7-.7-3-.3-4.5.3-2.8 1.2-5.7 2.3-8.5 3.4-.3.1-.5.3-.8.4.1.2.1.2.2.2 4 1.9 8 3.9 12 5.7.5.2 1.3-.2 1.9-.3v-.5c-2-1-4-1.9-5.9-2.9-.2-.1-.4-.3-.6-.5.2-.2.3-.5.5-.6.7-.4 1.5-.7 2-1 2.1 1 4 1.9 5.9 2.9 1.2.7 2.2.5 3.2-.5-3.1-1.4-6.2-2.8-9.4-4.2 1.6-1.2 3-1.5 4.7-.7C82.7 4 85 4.8 87.3 5.7c.9.6 1.8.6 2.9-.5" fill="#fff"/><path id="path16" d="M90.2 5.2c-1.1 1.2-2 1.1-3 .7-2.2-1-4.5-1.8-6.7-2.8-1.7-.9-3.1-.5-4.7.7C79 5.2 82 6.6 85.2 8c-1 1-2 1.2-3.2.5-1.9-1-3.9-1.9-5.9-2.9-.5.2-1.3.6-2 1-.2.1-.3.4-.5.6.2.2.4.3.6.5 2 1 4 1.9 5.9 2.9v.5c-.6.1-1.4.5-1.9.3-4-1.8-8-3.8-12-5.7l-.2-.2c.3-.1.5-.3.8-.4 2.8-1.1 5.7-2.2 8.5-3.4 1.5-.6 2.8-1.1 4.5-.3C83 2.8 86.3 4 89.5 5.3c.3-.2.5-.2.7-.1" fill="#231f20"/><path id="path18" class="st2" d="M83.9 9.6c.4 1.8.2 2.9-1.5 3.6-1.9.8-2.9 2.3-4 4.7-1.7-3.4-4-6-8.3-5.6V8.1c2 1.1 3.9 1.9 5.6 3.1 1.8 1.3 3.4 1.3 5.2 0 .9-.6 1.9-1 3-1.6"/><path id="path20" class="st2" d="M86.6 8.4v4c-.7-.1-1.3-.2-1.9-.3-.5-2.8-.3-3.1 1.9-3.7"/><path id="path22" class="st3" d="M84.3 13.3c.6.7 1.1 1.2 1 1.3-.2.5-.7 1.1-1 1.1-.4 0-.9-.6-1.1-1 0-.2.6-.7 1.1-1.4"/><path id="path24" class="st3" d="M83.6 16.4v6.5h-.2v-6.5c.1-.1.2-.1.2 0"/><path id="path26" class="st3" d="M84.4 16.5v5.9h-.2v-5.9c.1.1.2 0 .2 0"/><path id="path28" class="st3" d="M85.3 16.3V22h-.2v-5.8c0 .1.1.1.2.1"/><path id="path30" class="st2" d="M90.2 5.2L78.3.2 66.1 5.3l12.1 6s4 .1 12-6.1"/><path id="path32" class="st2" d="M9.9 8.8H5.7v11.4h-1V8.8H.4v-.9h9.5v.9"/><path id="path34" class="st2" d="M18.3 14.2h-5.5v5.1h6.3v.8h-7.3V7.9h7.3v.9h-6.3v4.6h5.5v.8"/><path id="path36" class="st2" d="M22.6 15.8h4.7L25 9.3l-2.4 6.5zm5.1.9h-5.4l-1.2 3.4h-1l4.5-12.2h.9L30 20.1h-1l-1.3-3.4"/><path id="path38" class="st2" d="M40.1 16.3c0 1.2-.4 2.2-1.2 2.9-.8.7-1.9 1.1-3.2 1.1-1.4 0-2.5-.5-3.3-1.5-.8-1-1.2-2.3-1.2-3.8v-2c0-1.6.4-2.8 1.2-3.8.8-1 1.9-1.5 3.3-1.5 1.3 0 2.4.3 3.2 1 .8.7 1.2 1.7 1.2 2.9v.1h-.9c0-1-.3-1.8-.9-2.3-.6-.6-1.4-.8-2.5-.8s-1.9.4-2.6 1.2c-.6.8-1 1.9-1 3.2v2c0 1.3.3 2.4 1 3.2.6.8 1.5 1.2 2.6 1.2s1.9-.3 2.5-.8c.6-.5.9-1.3.9-2.3h.9"/><path id="path40" class="st2" d="M51.7 20.1h-1v-5.6h-6.9v5.6h-1V7.9h1v5.7h6.9V7.9h1v12.2"/><path id="path42" class="st3" d="M57.3 20.1h-2.8V7.9h2.8v12.2"/><path id="path44" class="st3" d="M67.6 10.1h-3.2v10h-2.8v-10h-3.2V7.9h9.2v2.2"/><path id="path46" class="st4" d="M90.1 14.2h3.2c1 0 1.8-.3 2.3-.8.5-.5.8-1.2.8-1.9 0-.8-.3-1.4-.8-1.9s-1.3-.8-2.3-.8h-3.2v5.4zm0 .8v5.1h-1V7.9h4.2c1.3 0 2.3.3 3 1 .7.7 1.1 1.5 1.1 2.6s-.4 2-1.1 2.6c-.7.6-1.7 1-3 1h-3.2"/><path id="path48" class="st4" d="M100.7 13.7h2.9c1.1 0 1.9-.2 2.4-.7.5-.4.8-1 .8-1.8s-.3-1.4-.8-1.9c-.5-.4-1.3-.6-2.3-.6h-3.1v5zm0 .9v5.5h-1V7.9h4.1c1.3 0 2.3.3 3 .9.7.6 1 1.4 1 2.5 0 .6-.2 1.2-.6 1.7-.4.5-.9.9-1.6 1.1.8.2 1.3.5 1.6 1 .3.5.5 1.1.5 1.8V18c0 .4 0 .7.1 1 .1.3.2.5.4.7v.2h-1c-.2-.2-.4-.5-.4-.8-.1-.4-.1-.7-.1-1.1v-1c0-.7-.2-1.3-.7-1.8-.5-.4-1.2-.6-2-.6h-3.3"/><path id="path50" class="st4" d="M118.8 13c0-1.3-.3-2.4-1-3.2-.7-.8-1.6-1.2-2.8-1.2-1.2 0-2.1.4-2.7 1.2-.6.8-1 1.9-1 3.2v2c0 1.3.3 2.4 1 3.2.7.8 1.6 1.2 2.7 1.2 1.2 0 2.1-.4 2.8-1.2.7-.8 1-1.9 1-3.2v-2zm1 2c0 1.6-.4 2.9-1.3 3.8-.9 1-2 1.5-3.5 1.5-1.4 0-2.6-.5-3.4-1.5-.9-1-1.3-2.2-1.3-3.8v-2c0-1.6.4-2.8 1.3-3.8.8-1 2-1.5 3.4-1.5 1.5 0 2.6.5 3.5 1.5.9 1 1.3 2.3 1.3 3.8v2"/><path class="st3" d="M84.2 28l-6-5H0v-.4h78.3l5.9 4.8 5.9-4.8H120v.4H90.2z" id="path52"/></svg>