<?xml version="1.0" encoding="utf-8"?>
<!-- Generator: Adobe Illustrator 24.3.0, SVG Export Plug-In . SVG Version: 6.00 Build 0)  -->
<svg version="1.1" id="OBJECTS" xmlns="http://www.w3.org/2000/svg" xmlns:xlink="http://www.w3.org/1999/xlink" x="0px" y="0px"
	 viewBox="0 0 500 500" style="enable-background:new 0 0 500 500;" xml:space="preserve">
<style type="text/css">
	.st0{fill:#F2F5F4;}
	.st1{fill:#FFFFFF;stroke:#F2F5F4;stroke-miterlimit:10;}
	.st2{fill:#FFFFFF;}
	.st3{fill:#D57548;}
	.st4{fill:#FFB72F;}
	.st5{fill:#7DD038;}
	.st6{fill:none;stroke:#F2F5F4;stroke-width:5;stroke-linecap:round;stroke-linejoin:round;stroke-miterlimit:10;}
	.st7{fill:#FFFFFF;stroke:#F1F1F3;stroke-miterlimit:10;}
	.st8{fill:none;stroke:#E5F2D7;stroke-width:5;stroke-linecap:round;stroke-linejoin:round;stroke-miterlimit:10;}
	.st9{fill:none;stroke:#EAA105;stroke-miterlimit:10;}
	.st10{fill:none;stroke:#450000;stroke-miterlimit:10;}
	.st11{fill:none;stroke:#C43F00;stroke-miterlimit:10;}
	.st12{fill:#3446A9;}
	.st13{fill:#223887;}
	.st14{fill:#450000;}
	.st15{fill:#EFBFA9;}
	.st16{fill:#ECB298;}
	.st17{fill:#E89076;}
	.st18{clip-path:url(#SVGID_2_);}
	.st19{fill:none;stroke:#6C80D3;stroke-miterlimit:10;}
	.st20{fill:none;stroke:#FFFFFF;stroke-miterlimit:10;}
	.st21{fill:#E5EBEA;}
	.st22{fill:#B22900;}
	.st23{fill:#C43F00;}
	.st24{fill:#E9EEEC;}
	.st25{clip-path:url(#SVGID_4_);}
	.st26{fill:none;stroke:#F1F4F6;stroke-miterlimit:10;}
	.st27{fill:#EAA105;}
	.st28{fill:#DEE5E3;}
	.st29{clip-path:url(#SVGID_6_);}
	.st30{fill:#5E2222;}
	.st31{clip-path:url(#SVGID_8_);}
	.st32{fill:#F1F4F6;}
	.st33{fill:none;stroke:#E3E9E7;stroke-width:5;stroke-linecap:round;stroke-linejoin:round;stroke-miterlimit:10;}
	.st34{fill:none;stroke:#FFB72F;stroke-width:3;stroke-miterlimit:10;}
	.st35{fill:none;stroke:#7DD038;stroke-width:3;stroke-linejoin:round;stroke-miterlimit:10;}
	.st36{fill:none;stroke:#EAA105;stroke-miterlimit:10;stroke-dasharray:4.1538,2.0769;}
	.st37{fill:none;stroke:#AABC95;stroke-miterlimit:10;}
	.st38{fill:none;stroke:#AABC95;stroke-miterlimit:10;stroke-dasharray:4.1538,2.0769;}
	.st39{fill:none;stroke:#D7E0DD;stroke-miterlimit:10;}
	.st40{fill:none;stroke:#D7E0DD;stroke-miterlimit:10;stroke-dasharray:4.1538,2.0769;}
	.st41{fill:#D7E0DD;}
	.st42{fill:none;stroke:#D7E0DD;stroke-width:5;stroke-linecap:round;stroke-linejoin:round;stroke-miterlimit:10;}
	.st43{fill:#AABC95;}
</style>
<g>
	<path class="st0" d="M331.6,155.3H29c-7.6,0-13.8,6.2-13.8,13.8V403c0,7.6,6.2,13.8,13.8,13.8h302.6c7.6,0,13.8-6.2,13.8-13.8
		V169.2C345.5,161.5,339.3,155.3,331.6,155.3z"/>
	<g>
		<path class="st1" d="M346.9,138.7H44.3c-7.6,0-13.8,6.2-13.8,13.8v233.8c0,7.6,6.2,13.8,13.8,13.8h302.6c7.6,0,13.8-6.2,13.8-13.8
			V152.5C360.7,144.9,354.5,138.7,346.9,138.7z"/>
		<path class="st0" d="M346.9,144.5H44.3c-7.6,0-13.8,6.2-13.8,13.8v10.7h330.3v-10.7C360.7,150.7,354.5,144.5,346.9,144.5z"/>
		<path class="st2" d="M346.9,138.7H44.3c-7.6,0-13.8,6.2-13.8,13.8v10.7h330.3v-10.7C360.7,144.9,354.5,138.7,346.9,138.7z"/>
		<circle class="st3" cx="47.4" cy="151" r="4.2"/>
		<path class="st4" d="M68.2,151c0,2.3-1.9,4.2-4.2,4.2c-2.3,0-4.2-1.9-4.2-4.2c0-2.3,1.9-4.2,4.2-4.2
			C66.4,146.8,68.2,148.7,68.2,151z"/>
		<path class="st5" d="M84.9,151c0,2.3-1.9,4.2-4.2,4.2s-4.2-1.9-4.2-4.2c0-2.3,1.9-4.2,4.2-4.2S84.9,148.7,84.9,151z"/>
	</g>
	<g>
		<line class="st6" x1="260.1" y1="184.4" x2="323.8" y2="184.4"/>
		<line class="st6" x1="260.1" y1="196.7" x2="323.8" y2="196.7"/>
		<line class="st6" x1="260.1" y1="209.1" x2="323.8" y2="209.1"/>
		<line class="st6" x1="260.1" y1="221.4" x2="323.8" y2="221.4"/>
		<line class="st6" x1="260.1" y1="233.8" x2="323.8" y2="233.8"/>
		<line class="st6" x1="55.1" y1="258.5" x2="323.8" y2="258.5"/>
		<line class="st6" x1="55.1" y1="270.8" x2="323.8" y2="270.8"/>
		<line class="st6" x1="55.1" y1="283.2" x2="323.8" y2="283.2"/>
		<line class="st6" x1="55.1" y1="295.5" x2="323.8" y2="295.5"/>
		<line class="st6" x1="55.1" y1="307.9" x2="323.8" y2="307.9"/>
		<line class="st6" x1="168.9" y1="327.8" x2="265" y2="327.8"/>
		<line class="st6" x1="168.9" y1="340.2" x2="265" y2="340.2"/>
		<line class="st6" x1="168.9" y1="352.5" x2="265" y2="352.5"/>
		<line class="st6" x1="168.9" y1="364.9" x2="236.1" y2="364.9"/>
		<line class="st6" x1="168.9" y1="377.2" x2="236.1" y2="377.2"/>
		<g>
			
				<ellipse transform="matrix(0.2265 -0.974 0.974 0.2265 -37.9977 373.733)" class="st6" cx="216.3" cy="210.8" rx="33.9" ry="33.9"/>
			<polyline class="st6" points="216.3,176.9 216.3,210.8 241.2,233.8 			"/>
		</g>
		<g>
			
				<ellipse transform="matrix(0.2265 -0.974 0.974 0.2265 -276.5963 359.1151)" class="st6" cx="87.8" cy="353.7" rx="33.9" ry="33.9"/>
			<polyline class="st6" points="87.8,319.8 87.8,353.7 112.7,376.7 			"/>
		</g>
		<rect x="274.7" y="324.2" class="st6" width="61.1" height="54.2"/>
		<polygon class="st6" points="53.9,183.7 109.6,237.9 53.9,237.9 		"/>
	</g>
</g>
<g>
	<g>
		<g>
			<path class="st0" d="M451.3,132.3H320.8c-7.6,0-13.8,6.2-13.8,13.8v77.4c0,7.6,6.2,13.8,13.8,13.8h130.5
				c7.6,0,13.8-6.2,13.8-13.8v-77.4C465.1,138.5,459,132.3,451.3,132.3z"/>
			<g>
				<path class="st7" d="M463.6,121.7H333.1c-7.6,0-13.8,6.2-13.8,13.8v77.4c0,7.6,6.2,13.8,13.8,13.8h130.5
					c7.6,0,13.8-6.2,13.8-13.8v-77.4C477.4,127.9,471.2,121.7,463.6,121.7z"/>
				<path class="st0" d="M463.6,127.5H333.1c-7.6,0-13.8,6.2-13.8,13.8v10.7h158.2v-10.7C477.4,133.7,471.2,127.5,463.6,127.5z"/>
				<path class="st7" d="M463.6,121.7H333.1c-7.6,0-13.8,6.2-13.8,13.8v10.7h158.2v-10.7C477.4,127.9,471.2,121.7,463.6,121.7z"/>
				<g>
					<line class="st8" x1="388.1" y1="133.9" x2="409.4" y2="133.9"/>
					<line class="st8" x1="419.3" y1="133.9" x2="462.4" y2="133.9"/>
				</g>
				<path class="st3" d="M340.4,133.9c0,2.3-1.9,4.2-4.2,4.2s-4.2-1.9-4.2-4.2s1.9-4.2,4.2-4.2S340.4,131.6,340.4,133.9z"/>
				<path class="st4" d="M357.1,133.9c0,2.3-1.9,4.2-4.2,4.2s-4.2-1.9-4.2-4.2s1.9-4.2,4.2-4.2S357.1,131.6,357.1,133.9z"/>
				<path class="st5" d="M373.7,133.9c0,2.3-1.9,4.2-4.2,4.2c-2.3,0-4.2-1.9-4.2-4.2s1.9-4.2,4.2-4.2
					C371.8,129.8,373.7,131.6,373.7,133.9z"/>
			</g>
		</g>
	</g>
	<g>
		<path class="st9" d="M342.1,201.1c30.3-33.2,60.2,0,60.2,0c31.3-34.4,60.2,0,60.2,0"/>
		<g>
			<line class="st10" x1="342.1" y1="201.1" x2="462.4" y2="201.1"/>
			<line class="st10" x1="462.4" y1="194.7" x2="462.4" y2="204.8"/>
			<line class="st10" x1="342.1" y1="194.7" x2="342.1" y2="204.8"/>
		</g>
		<path class="st10" d="M463.7,184.7h-2.6c-0.9,0-1.6,0.7-1.6,1.6v2.6c0,0.9,0.7,1.6,1.6,1.6h2.6c0.9,0,1.6-0.7,1.6-1.6v-2.6
			C465.4,185.5,464.6,184.7,463.7,184.7z"/>
		<path class="st10" d="M343.4,184.7h-2.6c-0.9,0-1.6,0.7-1.6,1.6v2.6c0,0.9,0.7,1.6,1.6,1.6h2.6c0.9,0,1.6-0.7,1.6-1.6v-2.6
			C345,185.5,344.3,184.7,343.4,184.7z"/>
		<path class="st10" d="M403.6,205.4H401c-0.9,0-1.6,0.7-1.6,1.6v2.6c0,0.9,0.7,1.6,1.6,1.6h2.6c0.9,0,1.6-0.7,1.6-1.6V207
			C405.2,206.1,404.5,205.4,403.6,205.4z"/>
		<circle class="st11" cx="402.3" cy="208.3" r="8.8"/>
		<g>
			<g>
				<path class="st5" d="M344.4,175.5l-1.2-1.9l-1.2,1.9c-0.2,0.3-0.6,0.6-1,0.6h-0.5c-1,0-1.5-1.1-1-1.9l1.9-2.7l-1.8-2.6
					c-0.6-0.8,0-1.9,1-1.9h0.5c0.4,0,0.8,0.2,1,0.5l1.2,1.8l1.2-1.7c0.2-0.3,0.6-0.5,1-0.5h0.3c1,0,1.5,1.1,1,1.9l-1.8,2.5l2,2.8
					c0.6,0.8,0,1.9-1,1.9h-0.6C345,176,344.6,175.8,344.4,175.5z"/>
			</g>
			<g>
				<path class="st5" d="M366.3,172.7v2.1c0,0.7-0.5,1.2-1.2,1.2h-0.7c-0.7,0-1.2-0.5-1.2-1.2v-2.1l-2.4-3.9c-0.5-0.8,0.1-1.8,1-1.8
					h0.5c0.4,0,0.8,0.2,1,0.6l1.5,2.6l1.5-2.6c0.2-0.4,0.6-0.6,1-0.6h0.2c0.9,0,1.5,1,1,1.8L366.3,172.7z"/>
			</g>
			<g>
				<path class="st5" d="M387.4,174.8L387.4,174.8c0,0.7-0.5,1.2-1.2,1.2h-5.7c-0.8,0-1.4-0.6-1.4-1.4l0,0c0-0.3,0.1-0.6,0.3-0.8
					l3.9-4.5h-2.8c-0.7,0-1.2-0.5-1.2-1.2l0,0c0-0.7,0.5-1.2,1.2-1.2h5.4c0.8,0,1.4,0.6,1.4,1.4l0,0c0,0.3-0.1,0.6-0.3,0.8l-3.9,4.5
					h3.2C386.9,173.6,387.4,174.2,387.4,174.8z"/>
			</g>
			<g>
				<g>
					<path class="st5" d="M357.6,170.8h-5.1c-0.5,0-0.9-0.4-0.9-0.9v-0.7c0-0.5,0.4-0.9,0.9-0.9h5.1c0.5,0,0.9,0.4,0.9,0.9v0.7
						C358.5,170.4,358.1,170.8,357.6,170.8z"/>
				</g>
				<g>
					<path class="st5" d="M357.6,175h-5.1c-0.5,0-0.9-0.4-0.9-0.9v-0.7c0-0.5,0.4-0.9,0.9-0.9h5.1c0.5,0,0.9,0.4,0.9,0.9v0.7
						C358.5,174.6,358.1,175,357.6,175z"/>
				</g>
			</g>
			<g>
				<g>
					<path class="st5" d="M375.2,174.4l-3.6-3.6c-0.4-0.4-0.4-0.9,0-1.3l0.5-0.5c0.4-0.4,0.9-0.4,1.3,0l3.6,3.6
						c0.4,0.4,0.4,0.9,0,1.3l-0.5,0.5C376.1,174.7,375.5,174.7,375.2,174.4z"/>
				</g>
				<g>
					<path class="st5" d="M371.5,172.6l3.6-3.6c0.4-0.4,0.9-0.4,1.3,0l0.5,0.5c0.4,0.4,0.4,0.9,0,1.3l-3.6,3.6
						c-0.4,0.4-0.9,0.4-1.3,0l-0.5-0.5C371.2,173.5,371.2,172.9,371.5,172.6z"/>
				</g>
			</g>
		</g>
		<g>
			<line class="st8" x1="398.3" y1="167.2" x2="462.4" y2="167.2"/>
			<line class="st8" x1="398.3" y1="177" x2="430.4" y2="177"/>
		</g>
	</g>
</g>
<g>
	<path class="st12" d="M219.4,367.4H105.9c-25.2-2.6-20.3-30.3,8.1-43.6c0.7-0.3,1.4-0.6,2.1-0.9l92.4-3.6c1.6,0.9,3.3,1.9,5,3
		c0.1,0.1,0.2,0.1,0.3,0.2C231,333.9,250.3,356.1,219.4,367.4z"/>
	<path d="M99.3,400.2h131.9c-8.5-44.5-25.2-68.3-25.2-68.3l-80.5-4.8C106.3,346,100.8,379.4,99.3,400.2z"/>
	<path class="st13" d="M269.9,302c-3.6,28.8-56.9,31.6-47.8-8.9L269.9,302z"/>
	<path class="st13" d="M265.7,289.9l-33.4,30.8c-10.9-11.3-51.3-70.6-58.8-98.4c-3.2-11.9,3.2-24.3,14.8-28.4
		c4.8-1.7,9.9-1.8,14.5-0.4c5,1.5,9.6,4.6,12.7,9.1L265.7,289.9z"/>
	<g>
		<path class="st14" d="M310.7,227.5l-8.2,5.8c-1.7,1.2-4.1,0.8-5.4-0.9l-4.9-6.9c-1.2-1.7-0.8-4.1,0.9-5.4l8.2-5.8
			c1.7-1.2,4.1-0.8,5.4,0.9l4.9,6.9C312.9,223.9,312.4,226.3,310.7,227.5z"/>
		<path class="st15" d="M328.4,220.7c-14.6,9.2-27.4,62-57.6,84.5c-1.7,1.3-3.5,2.3-5.3,3c-15.6,6.5-34.3-5-34.3-23.2l22.4-20.5
			l50.4-46.1L328.4,220.7z"/>
		<path class="st16" d="M265.4,308.2c-15.6,6.5-34.3-5-34.3-23.2l22.4-20.5C239,291.9,246.9,312,265.4,308.2
			C265.4,308.2,265.4,308.2,265.4,308.2z"/>
		<g>
			<path class="st15" d="M304,218.5l-5.6,13.6c24.2,12,41.5,0.7,52.2-0.9l-14.1-28.7L304,218.5z"/>
			<path class="st15" d="M345.1,215.5c-0.5,0.3-1,0.8-1.4,1.3c-0.1,0.1-0.2,0.3-0.3,0.4c-0.9,1.6-0.9,3.5,0,5.1
				c0.3,0.6,0.8,1.1,1.3,1.6l3.5,2.7l5,3.8c0.7,0.5,1.5,0.9,2.3,1c1.2,0.2,2.3-0.1,3.3-0.7c0.5-0.3,1-0.8,1.4-1.3
				c1.4-2,1.1-4.7-0.6-6.4l0,0c-0.1-0.1-0.2-0.2-0.3-0.3l-8.3-6.8c-0.1-0.1-0.2-0.1-0.3-0.2C349.1,214.4,346.8,214.4,345.1,215.5z"
				/>
			<path class="st15" d="M378.3,202.6c0.4-2.5-1.4-4.7-3.9-4.9l-21.4-1.6l-21,6.1l3.6,18.1l23.2-13.7l15.6-0.5
				C376.3,206.1,378,204.6,378.3,202.6z"/>
			<polygon class="st17" points="331.9,202.2 336.2,201 352.6,203.8 355.3,208.6 334.5,220.3 			"/>
			<path class="st15" d="M356.1,238.1c-1,1.4-2.8,2.3-4.7,2l-10.6-1.4c-2.7-0.4-4.7-2.9-4.4-5.6c0.1-0.8,0.4-1.5,0.7-2.2
				c0.1-0.1,0.1-0.2,0.2-0.3c0.1-0.1,0.1-0.2,0.2-0.3c1.1-1.4,2.9-2.1,4.8-1.8l10.6,1.8c1.5,0.3,2.8,1.2,3.5,2.4
				c0.1,0.2,0.2,0.4,0.3,0.6c0.3,0.7,0.5,1.5,0.4,2.3C356.9,236.6,356.6,237.4,356.1,238.1z"/>
			<path class="st17" d="M356.4,232.7c-0.7,0.6-1.7,1-2.7,1l-10.7,0.8c-2.7,0.2-5.9-1.5-5.9-5.1c1.1-1.4,3.4-1.3,5.2-1l10.6,1.8
				C354.4,230.6,355.7,231.5,356.4,232.7z"/>
			<path class="st17" d="M352.8,227.7c-0.7,1.2-2,2.1-3.4,2.3l-7.3,1c-2.7,0.4-5.3-1.4-5.8-4.1c-0.2-1.2,0-2.3,0.5-3.3
				c0-0.1,0.1-0.2,0.2-0.3c0.8-1.3,2.1-2.2,3.7-2.4l7.4-0.7c1.3-0.1,2.5,0.2,3.5,0.9c1,0.7,1.7,1.8,2,3.1
				C353.7,225.4,353.5,226.6,352.8,227.7z"/>
			<path class="st15" d="M338.9,224.4c-0.1,0.1-0.1,0.2-0.2,0.3c-0.1,0.1-0.1,0.2-0.2,0.3l0,0c-0.5,0.9-0.7,1.9-0.6,2.9
				c0.3,2.7,2.7,4.8,5.5,4.5l10.7-0.8c0.5,0,1-0.2,1.5-0.4c0.9-0.3,1.6-0.9,2.1-1.7c0.7-1,1.1-2.2,0.9-3.5c-0.1-0.7-0.3-1.4-0.7-2
				c-0.3-0.5-0.6-0.9-1.1-1.2c-0.9-0.8-2.1-1.2-3.4-1.1l-10.1,0.4l-0.6,0C341.1,222.4,339.8,223.2,338.9,224.4z"/>
			<path class="st17" d="M343.5,222.2l-0.6,0c-1.6,0.1-3,0.9-3.9,2.1c-0.1,0.1-0.1,0.2-0.2,0.3c-0.1,0.1-0.1,0.2-0.2,0.3l0,0
				c1.1,2,3.4,3,5.6,2.5l4.1-1l8.9-2.1c0.2-0.1,0.5-0.1,0.7-0.2c0.7-0.3,1.3-0.7,1.8-1.2l0,0c-0.1-0.1-0.2-0.2-0.3-0.3l-8.3-6.8
				c-0.1-0.1-0.2-0.1-0.3-0.2l-7.4,1.6C342.6,218.8,342.6,220.7,343.5,222.2z"/>
			<path class="st15" d="M344.5,208c-0.7,0.5-1.4,1.1-1.8,2c-1.3,2.5-0.3,5.5,2.1,6.8l3,1.7l6.4,3.5c1,0.5,2,0.7,3,0.6
				c0.7-0.1,1.4-0.3,2-0.7c0.7-0.5,1.4-1.2,1.8-2c1.1-2.3,0.3-5.1-1.9-6.4l-3-1.8l-3.2-1.9l-3.1-1.8
				C348.2,206.9,346.1,207,344.5,208z"/>
			<path class="st17" d="M353.3,219.4c-0.5,1.3-1.6,2.3-3,2.8l-7.1,2.1c-2.6,0.9-5.5-0.6-6.4-3.2c-0.4-1.2-0.4-2.3,0-3.4
				c0-0.1,0.1-0.2,0.1-0.3c0.6-1.4,1.8-2.5,3.3-3l7.2-1.8c1.2-0.3,2.5-0.2,3.5,0.3c1.1,0.5,2,1.5,2.4,2.7
				C353.9,217,353.8,218.3,353.3,219.4z"/>
			<path class="st15" d="M358.5,220.6c-0.6,1.2-1.8,2.2-3.3,2.6l-10.5,2.4c-2.7,0.6-5.4-1-6.1-3.6c-0.3-1.2-0.2-2.3,0.3-3.4
				c0-0.1,0.1-0.2,0.1-0.3c0.7-1.3,1.9-2.4,3.5-2.7l10.5-2.1c1.2-0.2,2.5,0,3.5,0.6c1.1,0.6,1.9,1.6,2.2,2.9
				C359.2,218.2,359.1,219.5,358.5,220.6z"/>
			<g>
				<g>
					<path class="st17" d="M310,221.1l23.8-13.7l16.4,3.3l-5.8,8.2l-6.8,0.7C337.6,219.5,327.4,239.5,310,221.1z"/>
					<path class="st17" d="M350.1,210.6l4.1,8.8c0.9,1.9,0.1,4.2-1.8,5.1l0,0c-1.7,0.8-3.7,0.3-4.8-1.2l-3.2-4.5L350.1,210.6z"/>
				</g>
				<g>
					<path class="st15" d="M304,218.5l28-16.3l19.4,3.8l-6.8,9.7l-8,0.8C336.5,216.5,324.6,240.2,304,218.5z"/>
					<path class="st17" d="M353,209.7l-6.3,6.2l1.2,2.5l1.6,3.3c0.1,0.2,0.2,0.4,0.3,0.5c1.1,1.7,3.1,2.5,5.1,1.9
						c1-0.3,1.9-0.9,2.5-1.7c0.8-1.1,1.1-2.4,0.7-3.8l-1.8-7.1L353,209.7z"/>
					<path class="st15" d="M351.3,206l4.9,10.4c1.1,2.3,0.1,4.9-2.1,6l0,0c-2,1-4.4,0.4-5.7-1.4l-3.8-5.3L351.3,206z"/>
				</g>
			</g>
		</g>
		<polygon class="st14" points="303.4,217.9 317.3,238.7 312.8,245.7 295.9,223.9 		"/>
	</g>
	<path class="st12" d="M222.2,356.1l-87.2,0.2l-31.7,0.1c0,0,5.8-14,10.8-32.5c4.2-15.5,7.9-34.2,7.3-50.4
		c-0.4-9.7-1.7-19.9-1.7-30.3c0-6.6-5.5-52.5,0-56.7c12.8-9.7,49.4-11.3,47.2-9.2l28.7,16.3c1.6,5.5,17.2,27.1,19.7,39.6
		c0.2,0.9,0.4,1.9,0.5,2.9c0.5,3.3,0.8,6.6,0.8,10c0,0.9,0,2-0.1,3c-0.1,1.4-0.2,2.9-0.5,4.4c-1.4,8.6-5.4,17.2-13.8,24.7l0.1,0.6
		l0,0.1l5.6,21.7l5.6,21.8l0.2,0.6L222.2,356.1z"/>
	<path class="st13" d="M213.7,322.5l-0.1,0.4l-75.5,22.6l-3.2,10.7l-2.2,7.4l-5.8,3.8h-21c-25.2-2.6-20.3-30.3,8.1-43.6
		c4.2-15.5,7.9-34.2,7.3-50.4c-0.4-9.7-1.7-19.9-1.7-30.3l28.8-29.8l-0.7,70.2l49.6,8.5l10.6,8.5l5.6,21.8
		C213.6,322.4,213.6,322.5,213.7,322.5z"/>
	<g>
		<defs>
			<path id="SVGID_1_" d="M214.8,345.6l-92.6-1.7c0,0,0.6-34.9-0.9-70.5c-0.6-15.8-3.6-33,0.5-50.4c11-45.8,47.3-47.8,45.1-45.8
				l28.7,16.3c1.6,5.5,17.1,27.1,19.7,39.6c0.2,0.9,0.4,1.9,0.5,2.9c0.5,3.3,0.8,6.6,0.8,10c0,1,0,2-0.1,3c-0.1,1.5-0.2,3-0.5,4.4
				c-1.4,8.6-5.4,17.2-13.8,24.7l0.1,0.6l0,0.1L214.8,345.6z"/>
		</defs>
		<clipPath id="SVGID_2_">
			<use xlink:href="#SVGID_1_"  style="overflow:visible;"/>
		</clipPath>
		<g class="st18">
			<polygon class="st19" points="168.1,254.5 151.8,280.1 135.4,254.5 151.8,229 			"/>
			<polygon class="st19" points="200.7,254.5 184.3,280.1 168,254.5 184.3,229 			"/>
			<polygon class="st19" points="233.2,254.5 216.8,280.1 200.5,254.5 216.8,229 			"/>
		</g>
	</g>
	<g>
		<circle class="st14" cx="217.3" cy="106" r="19.1"/>
		<circle class="st14" cx="197.8" cy="84.4" r="19.1"/>
		<circle class="st14" cx="172.8" cy="91.4" r="19.1"/>
		<path class="st14" d="M148.8,103c-7.7,19.8-5,32.4,7.5,40.6l11.8-12.9l-7.1-31L148.8,103z"/>
		<polygon class="st15" points="155.5,130.7 160,178.9 195.9,203.1 196.4,143.8 		"/>
		<polygon class="st14" points="149.6,144.2 158.1,159 163.5,147.7 		"/>
		<path class="st17" d="M196,182.9c0,0-22.1-4-22.8-29l23.1,7.5L196,182.9z"/>
		<path class="st14" d="M210.8,95.7c10.7,13.1,12.1,30.4,12.1,30.4l-11.6,1.8l-8.8-27.8L210.8,95.7z"/>
		<path class="st15" d="M159.1,111l3.5,13.7l1.6,6.2l4.2,16.7c2.3,9,9.1,16.2,18,19l13.8,4.4c12,3.8,24.3-4.5,25.4-17
			c0.8-9.2,0.8-19.9-2.7-31.2c-4.1-13.2-14.6-23.5-27.2-27.6l-0.1,0l-2.2-0.7l-0.2-0.1c-1.1-0.3-2.2-0.5-3.4-0.7
			c-2.7-0.5-5.5-0.7-8.3-0.6l-8.9,0.3C163.4,93.6,156.9,102.2,159.1,111z"/>
		<ellipse class="st20" cx="222" cy="130.8" rx="11.6" ry="12.9"/>
		<g>
			<path d="M217.6,133.6c0.3,3.3-0.6,6-2.1,6.2c-1.5,0.1-3-2.4-3.3-5.7c-0.3-3.3,0.6-6,2.1-6.2C215.8,127.7,217.3,130.3,217.6,133.6
				z"/>
			<path class="st15" d="M208.2,128.7c3,7.2,7.9,8.7,11.4,8.7c2.2,0,4,1.7,4.2,3.9l0,0c0.2,2.9-1.3,5.7-3.8,7.1l-9,4.9
				c-5.1,1.7-10.5-1.3-11.7-6.6l-4.1-17.7L208.2,128.7z"/>
			<g>
				<path class="st17" d="M214.2,152.2l-0.6-1l6-3.3c2.4-1.3,3.7-3.8,3.5-6.5c-0.2-1.9-1.7-3.4-3.6-3.4c-3.7-0.1-8.8-1.7-11.9-9.1
					l1.1-0.4c2.8,6.8,7.5,8.3,10.9,8.4c2.5,0,4.6,2,4.8,4.5c0.3,3.1-1.4,6.1-4.1,7.6L214.2,152.2z"/>
			</g>
			<path d="M197.7,136.5c0.3,3.3-0.6,6-2.1,6.2c-1.5,0.1-3-2.4-3.3-5.7c-0.3-3.3,0.6-6,2.1-6.2C196,130.7,197.4,133.2,197.7,136.5z"
				/>
			<path class="st14" d="M189.3,123.5c-7.4,3.1-9.5-0.7-4.1-4C190.9,116.1,198.6,119.7,189.3,123.5z"/>
			<path class="st14" d="M210.8,120c-5.8-0.9-4.2-4.6,0.7-4.7C216.7,115.3,218,121.2,210.8,120z"/>
			<path class="st2" d="M210.9,154.6l-13.4-1c0,0,1.5,7.7,5.4,8.6C207.1,163.1,210.9,154.6,210.9,154.6z"/>
		</g>
		<ellipse class="st20" cx="192.6" cy="136.8" rx="11.6" ry="12.9"/>
		<line class="st20" x1="180.9" y1="134.4" x2="167.9" y2="130.7"/>
		<path class="st14" d="M178.5,93.2c7,16.6-6.2,39.3-33.9,37.7C132.8,107.2,133.3,86.1,178.5,93.2z"/>
		<path class="st15" d="M168.9,132.7c-27.9-38.3-42.3,22.3-1.4,19.2L168.9,132.7z"/>
		<polygon class="st14" points="168.6,108.2 169.1,140.3 166.4,142.1 156.3,111.2 		"/>
		<path class="st14" d="M170.2,96.7c22.3,8.7,42.6,1.5,42.6,1.5S205.3,80.4,170.2,96.7z"/>
		<path class="st14" d="M142,100.3c0-11.3-12.5-5.9-3.9,1.4c-15.1-2-3.7,16.6,3.3,10.1"/>
	</g>
	<path class="st2" d="M197.2,203.8L197.2,203.8c4.8-26.3-19.9-31.8-38.5-39.5l-10.3,13.2L197.2,203.8z"/>
	<g>
		<path class="st12" d="M109.3,279c19.7-3.8,37.9,1.7,28.2,21.2l-30,1.8L109.3,279z"/>
		<path class="st12" d="M104.9,335.5c-53.3,13.8-44.6-43.3-12.9-51.9L104.9,335.5z"/>
	</g>
	<path class="st12" d="M107.3,321l-31.7,4.7c-5.7-44.9,7.6-93.9,37.5-133.4c7-9.2,19.9-11.5,29.6-5.3l0,0
		c8.4,5.4,12.2,15.7,9.2,25.2L107.3,321z"/>
	<g>
		<g>
			<path class="st21" d="M264.8,256.2l-2.5-3.1l0,0c-0.3-0.3-0.7-0.6-1.2-0.7l-47.5-6.3c-1.4-0.2-2.8,0.4-3.7,1.5l-51.1,62.5
				c-0.9,1.1-0.3,2.7,1,3.1l32.7,7.6c1.3,0.3,2.8-0.1,3.7-1l65.3-63.6H264.8z"/>
			<path class="st2" d="M161.3,313.2l51.1-62.5c0.9-1.1,2.3-1.6,3.7-1.5l47.5,6.3c1.6,0.2,2.2,2.1,1.1,3.3l-65.8,64.1
				c-1,1-2.4,1.4-3.7,1l-32.7-7.6C161,316,160.4,314.3,161.3,313.2z"/>
			
				<ellipse transform="matrix(0.7394 -0.6732 0.6732 0.7394 -133.4694 220.133)" class="st21" cx="217.6" cy="282.5" rx="10.6" ry="5.7"/>
			<path class="st21" d="M217.7,255.9c-0.6,1.1-1.9,1.9-2.8,1.9c-0.9,0-1.2-0.9-0.5-2c0.6-1.1,1.9-1.9,2.8-1.9
				C218.2,253.9,218.4,254.8,217.7,255.9z"/>
		</g>
		<g>
			<polygon class="st15" points="197.1,315.6 240.3,286.1 184.8,290.3 180.1,308.9 			"/>
			<path class="st15" d="M189.2,292.2l-7.8-1.1c-2.3-0.3-3.7-2.7-2.8-4.9l0.3-0.7c1.7-4.1,6.5-5.8,10.4-3.8l0,0
				c2.6,1.4,4.2,4.2,4,7.1l0,0C193.1,291,191.2,292.5,189.2,292.2z"/>
			<path class="st15" d="M206.3,291.9l34-5.8l0.4-1c1.6-3.9,4.8-7,8.8-8.3c0.6-0.2,1.1-0.8,1-1.5c0-0.1,0-0.2,0-0.3
				c-0.6-2.7-3-4.5-5.7-4.5c-0.4,0-0.9,0.1-1.3,0.2l-2,0.7l-0.2,0.1c-3.5,1.2-6.1,4-7.1,7.6l-27,12.4L206.3,291.9z"/>
			<path class="st17" d="M219,293.3l15.5-5.3c2.2-6.6,5.9-9.2,9.9-10.5c0.6-0.2,1.1-0.8,1-1.5c0-0.1,0-0.2,0-0.3
				c-0.5-2.1-2-3.6-3.9-4.2l-0.2,0.1c-3.5,1.2-6.1,4-7.1,7.6l-2.9,7.2L219,293.3z"/>
			<path class="st15" d="M231.3,286.3l0.4-1c1.6-3.9,4.8-7,8.8-8.3l0,0c0.7-0.2,1.2-1,1-1.8l0,0c-0.7-3.2-3.9-5.1-7-4.3l-2.2,0.8
				c-3.5,1.2-6.1,4-7.1,7.6l0,0l-27.9,12.8L231.3,286.3z"/>
		</g>
		<path class="st15" d="M118,293.3l68.5,6.9l10.6,15.4c0,0-46.8,23.5-90.7,20.6c-19-1.3-25.6-25.8-9.9-36.5L99,298
			C104.5,294.3,111.3,292.6,118,293.3z"/>
	</g>
	<polygon class="st2" points="101.9,373.1 180.5,384 184.8,356.4 107.9,356.3 	"/>
	<polygon class="st2" points="190.9,356.4 195.9,384 224.4,373.1 218.4,356.4 	"/>
</g>
<g>
	<g>
		<g>
			<path class="st22" d="M253.2,429.3v41h208.2c5.1,0,9.4-3.5,11-8.3c0.5-1.3,0.7-2.7,0.7-4.2v-15.9c0-1.6-0.3-3.1-0.8-4.5
				c-1.7-4.7-5.9-8-10.9-8H253.2z"/>
			<path class="st23" d="M354.6,437.4V462h117.8c0.5-1.3,0.7-2.7,0.7-4.2v-15.9c0-1.6-0.3-3.1-0.8-4.5H354.6z"/>
			<circle class="st4" cx="391.5" cy="449.7" r="9.1"/>
			<path class="st23" d="M350.6,429.3h-94v41h94c9.4,0,17-7.6,17-17v-6.9C367.7,437,360,429.3,350.6,429.3z"/>
			<path class="st23" d="M250.9,429.3h18v6.1h-18c-1.6,0-2.9-1.4-2.9-3.1l0,0C248,430.7,249.3,429.3,250.9,429.3z"/>
			<path class="st23" d="M250.6,464.1h18.3v6.1h-18.3c-1.4,0-2.6-1.1-2.6-2.6v-1C248,465.3,249.2,464.1,250.6,464.1z"/>
			<g>
				<path class="st24" d="M348.4,435.5h-95.2v28.7h95.2c6.6,0,11.9-5.3,11.9-11.9v-4.8C360.3,440.8,355,435.5,348.4,435.5z"/>
				<path class="st2" d="M346,439.2h-92.7v24.9h95.9c3.6,0,6.5-2.9,6.5-6.5v-8.8C355.6,443.6,351.3,439.2,346,439.2z"/>
				<g>
					<defs>
						<path id="SVGID_3_" d="M349.3,439.2h-96.1v24.9h98c2.4,0,4.4-2,4.4-4.4v-14.3C355.6,442,352.8,439.2,349.3,439.2z"/>
					</defs>
					<clipPath id="SVGID_4_">
						<use xlink:href="#SVGID_3_"  style="overflow:visible;"/>
					</clipPath>
					<g class="st25">
						<line class="st26" x1="356.4" y1="444.4" x2="253.2" y2="444.4"/>
						<line class="st26" x1="360" y1="449.5" x2="253.2" y2="449.5"/>
						<line class="st26" x1="360" y1="454.5" x2="253.2" y2="454.5"/>
						<line class="st26" x1="360" y1="459.6" x2="253.2" y2="459.6"/>
					</g>
				</g>
			</g>
		</g>
		<path class="st27" d="M454.2,462h-1.1h-10.5c-1.6,4.8-5.9,8.3-11,8.3h10.5h1.1h10.5c5.1,0,9.4-3.4,11-8.3H454.2z"/>
		<path class="st27" d="M453.7,429.3h-10.5h-1.1h-10.5c5,0,9.2,3.3,10.9,8h10.5h1.1h10.5C463,432.7,458.7,429.3,453.7,429.3z"/>
		<path class="st4" d="M464.7,437.4h-10.5h-1.1h-10.5c0.5,1.4,0.8,2.9,0.8,4.5v15.9c0,1.5-0.2,2.9-0.7,4.2h10.5h1.1h10.5
			c0.4-1.3,0.7-2.7,0.7-4.2v-15.9C465.4,440.3,465.2,438.8,464.7,437.4z"/>
		<g>
			<polyline class="st28" points="330.6,444.3 330.6,462 336.4,458.4 342.3,462 342.3,444.3 			"/>
			<polygon class="st27" points="326.2,458.4 332.8,454.9 337.9,458.4 342.3,444.3 330.6,444.3 			"/>
		</g>
	</g>
	<g>
		<g>
			<path class="st27" d="M451.7,399.7v29.7H274.1c-4.3,0-8-2.5-9.4-6c-0.4-1-0.6-2-0.6-3.1v-11.5c0-1.1,0.2-2.2,0.7-3.2
				c1.4-3.4,5.1-5.8,9.3-5.8H451.7z"/>
			<path class="st4" d="M365.2,405.6v17.9H264.7c-0.4-1-0.6-2-0.6-3.1v-11.5c0-1.1,0.2-2.2,0.7-3.2H365.2z"/>
			<path class="st23" d="M339,417.4h-62.5c-1.4,0-2.4-1.1-2.4-2.4v-1c0-1.4,1.1-2.4,2.4-2.4H339c1.4,0,2.4,1.1,2.4,2.4v1
				C341.4,416.4,340.3,417.4,339,417.4z"/>
			<path class="st4" d="M366.4,399.7h82.4v29.7h-82.4c-6.8,0-12.3-5.5-12.3-12.3v-5C354.1,405.3,359.6,399.7,366.4,399.7z"/>
			<path class="st4" d="M453.6,399.7h-15.3v4.4h15.3c1.4,0,2.4-1,2.4-2.2l0,0C456.1,400.7,455,399.7,453.6,399.7z"/>
			<path class="st4" d="M454.2,425h-15.9v4.4h15.9c1,0,1.8-0.8,1.8-1.8v-0.7C456.1,425.8,455.3,425,454.2,425z"/>
			<g>
				<path class="st24" d="M451.7,404.2V425h-80.9c-1.8,0-3.4-0.5-4.9-1.2c-3.3-1.7-5.5-5.2-5.5-9.2c0-2.9,1.2-5.5,3-7.3
					c1.9-1.9,4.5-3,7.3-3H451.7z"/>
				<path class="st2" d="M451.7,406.9V425h-80.9c-1.8,0-3.4-0.5-4.9-1.2c-0.9-0.8-1.5-2-1.5-3.4v-1.5c0-6.6,5.3-11.9,11.9-11.9
					H451.7z"/>
				<g>
					<defs>
						<path id="SVGID_5_" d="M375.4,406.9h76.3V425h-83.3c-2.2,0-4-1.8-4-4v-3C364.4,411.9,369.3,406.9,375.4,406.9z"/>
					</defs>
					<clipPath id="SVGID_6_">
						<use xlink:href="#SVGID_5_"  style="overflow:visible;"/>
					</clipPath>
					<g class="st29">
						<line class="st26" x1="363.7" y1="410.7" x2="451.7" y2="410.7"/>
						<line class="st26" x1="360.7" y1="414.3" x2="451.7" y2="414.3"/>
						<line class="st26" x1="360.7" y1="418" x2="451.7" y2="418"/>
						<line class="st26" x1="360.7" y1="421.7" x2="451.7" y2="421.7"/>
					</g>
				</g>
			</g>
		</g>
	</g>
	<g>
		<g>
			<path class="st14" d="M462.2,359v40.7H266.8c-6.7,0-12.7-3.2-16.4-8.2c-2.5-3.4-4-7.6-4-12.1c0-4.5,1.5-8.7,4-12.1
				c0.6-0.8,1.2-1.6,2-2.3c3.7-3.7,8.8-6,14.4-6H462.2z"/>
			<path class="st30" d="M372.2,367.2v24.3H250.4c-2.5-3.4-4-7.6-4-12.1c0-4.5,1.5-8.7,4-12.1H372.2z"/>
			<path class="st30" d="M357.4,359h101.2v40.7H357.4c-9.4,0-16.9-7.6-16.9-16.9V376C340.4,366.6,348,359,357.4,359z"/>
			<path class="st30" d="M464.6,359h-19.1v6.1h19.1c1.7,0,3.1-1.4,3.1-3.1l0,0C467.7,360.4,466.3,359,464.6,359z"/>
			<path class="st30" d="M465.1,393.6h-19.6v6.1h19.6c1.4,0,2.5-1.1,2.5-2.5v-1C467.7,394.8,466.5,393.6,465.1,393.6z"/>
			<g>
				<path class="st0" d="M462.2,365.1v28.5h-99.6c-7.5,0-13.6-5.7-14.2-13c0-0.4,0-0.8,0-1.2c0-3.9,1.6-7.5,4.2-10.1
					c2.6-2.6,6.1-4.2,10.1-4.2H462.2z"/>
				<path class="st2" d="M462.2,369.7v23.9h-99.6c-7.5,0-13.6-5.7-14.2-13c0.3-2.9,1.5-5.4,3.4-7.3c2.2-2.2,5.1-3.5,8.5-3.5H462.2z"
					/>
				<g>
					<defs>
						<path id="SVGID_7_" d="M360.1,365.1h102.1v28.5h-99c-8.3,0-14.9-6.7-14.9-14.9V377C348.2,370.4,353.6,365.1,360.1,365.1z"/>
					</defs>
					<clipPath id="SVGID_8_">
						<use xlink:href="#SVGID_7_"  style="overflow:visible;"/>
					</clipPath>
					<g class="st31">
						<line class="st26" x1="352.4" y1="372.1" x2="462.2" y2="372.1"/>
						<line class="st26" x1="348.6" y1="377.8" x2="462.2" y2="377.8"/>
						<line class="st26" x1="348.6" y1="383.4" x2="462.2" y2="383.4"/>
						<line class="st26" x1="348.6" y1="389.1" x2="462.2" y2="389.1"/>
					</g>
				</g>
				<polyline class="st28" points="380.7,372.1 380.7,391.5 374.3,387.6 367.9,391.5 367.9,372.1 				"/>
				<polygon class="st23" points="385.6,387.6 378.3,383.7 372.7,387.6 367.9,372.1 380.7,372.1 				"/>
			</g>
			<line class="st32" x1="369.7" y1="370.9" x2="381.8" y2="370.9"/>
		</g>
		<path class="st22" d="M298.5,399.7h-22.4c-6.7,0-12.7-3.2-16.4-8.2c-2.5-3.4-4-7.6-4-12.1c0-4.5,1.5-8.7,4-12.1
			c0.6-0.8,1.2-1.6,2-2.3c3.7-3.7,8.8-6,14.4-6h22.4c-5.6,0-10.7,2.3-14.4,6c-0.7,0.7-1.4,1.5-2,2.3c-2.5,3.4-4,7.6-4,12.1
			c0,4.5,1.5,8.7,4,12.1C285.8,396.5,291.8,399.7,298.5,399.7z"/>
		<path class="st22" d="M313.5,399.7h-9.7c-6.7,0-12.7-3.2-16.4-8.2c-2.5-3.4-4-7.6-4-12.1c0-4.5,1.5-8.7,4-12.1
			c0.6-0.8,1.2-1.6,2-2.3c3.7-3.7,8.8-6,14.4-6h9.7c-5.6,0-10.7,2.3-14.4,6c-0.7,0.7-1.4,1.5-2,2.3c-2.5,3.4-4,7.6-4,12.1
			c0,4.5,1.5,8.7,4,12.1C300.8,396.5,306.8,399.7,313.5,399.7z"/>
		<path class="st23" d="M278.1,379.4c0,4.5,1.5,8.7,4,12.1h-22.4c-2.5-3.4-4-7.6-4-12.1c0-4.5,1.5-8.7,4-12.1h22.4
			C279.6,370.6,278.1,374.8,278.1,379.4z"/>
		<path class="st23" d="M293.1,379.4c0,4.5,1.5,8.7,4,12.1h-9.7c-2.5-3.4-4-7.6-4-12.1c0-4.5,1.5-8.7,4-12.1h9.7
			C294.6,370.6,293.1,374.8,293.1,379.4z"/>
		<path class="st22" d="M353.8,399.7h-9.7c-6.7,0-12.7-3.2-16.4-8.2c-2.5-3.4-4-7.6-4-12.1c0-4.5,1.5-8.7,4-12.1
			c0.6-0.8,1.2-1.6,2-2.3c3.7-3.7,8.8-6,14.4-6h9.7c-5.6,0-10.7,2.3-14.4,6c-0.7,0.7-1.4,1.5-2,2.3c-2.5,3.4-4,7.6-4,12.1
			c0,4.5,1.5,8.7,4,12.1C341.2,396.5,347.1,399.7,353.8,399.7z"/>
		<path class="st23" d="M333.5,379.4c0,4.5,1.5,8.7,4,12.1h-9.7c-2.5-3.4-4-7.6-4-12.1c0-4.5,1.5-8.7,4-12.1h9.7
			C334.9,370.6,333.5,374.8,333.5,379.4z"/>
	</g>
</g>
<path class="st0" d="M322.5,267h82.2c5.2,0,9.3-4.2,9.3-9.3l0,0c0-5.2-4.2-9.3-9.3-9.3h-82.2c-5.2,0-9.3,4.2-9.3,9.3l0,0
	C313.1,262.8,317.3,267,322.5,267z"/>
<g>
	<path class="st0" d="M323.5,355.7h81.6c5.7,0,10.3-4.6,10.3-10.3V285c0-5.7-4.6-10.3-10.3-10.3h-81.6c-5.7,0-10.3,4.6-10.3,10.3
		v60.4C313.1,351.1,317.8,355.7,323.5,355.7z"/>
	<g>
		<path class="st7" d="M338.4,350h81.6c5.7,0,10.3-4.6,10.3-10.3v-60.4c0-5.7-4.6-10.3-10.3-10.3h-81.6c-5.7,0-10.3,4.6-10.3,10.3
			v60.4C328.1,345.4,332.7,350,338.4,350z"/>
		<g>
			<path class="st7" d="M337.4,261.3h82.2c5.2,0,9.3-4.2,9.3-9.3l0,0c0-5.2-4.2-9.3-9.3-9.3h-82.2c-5.2,0-9.3,4.2-9.3,9.3l0,0
				C328.1,257.1,332.3,261.3,337.4,261.3z"/>
			<path class="st3" d="M343.9,252c0,2.3-1.9,4.2-4.2,4.2s-4.2-1.9-4.2-4.2c0-2.3,1.9-4.2,4.2-4.2S343.9,249.7,343.9,252z"/>
			<path class="st4" d="M360.5,252c0,2.3-1.9,4.2-4.2,4.2s-4.2-1.9-4.2-4.2c0-2.3,1.9-4.2,4.2-4.2S360.5,249.7,360.5,252z"/>
			<path class="st5" d="M377.1,252c0,2.3-1.9,4.2-4.2,4.2s-4.2-1.9-4.2-4.2c0-2.3,1.9-4.2,4.2-4.2S377.1,249.7,377.1,252z"/>
		</g>
		<g>
			<line class="st33" x1="340.4" y1="285.3" x2="416.7" y2="285.3"/>
			<line class="st33" x1="340.4" y1="294.6" x2="383.2" y2="294.6"/>
		</g>
	</g>
	<g>
		<rect x="342.7" y="327.2" class="st34" width="12" height="12"/>
		<polygon class="st35" points="342.7,339.2 342.7,304.1 415.2,339.2 		"/>
	</g>
</g>
<g>
	<g>
		<g>
			<g>
				<path class="st9" d="M302.8,155.7c-0.7,0-1.3,0-2,0"/>
				<path class="st36" d="M298.7,155.8c-25.4,2.7-35.6,34.5-23.9,52"/>
				<path class="st9" d="M275.5,208.7c0.4,0.5,0.8,1.1,1.2,1.6"/>
			</g>
		</g>
		<path class="st27" d="M277.7,204.6c3.1,0.6,5.1,3.6,4.5,6.7c-0.6,3.1-3.6,5.1-6.7,4.5c-3.1-0.6-5.1-3.6-4.5-6.7
			C271.6,206,274.6,204,277.7,204.6z"/>
	</g>
	<g>
		<g>
			<g>
				<path class="st37" d="M438.4,290.9c0.7,0.1,1.3,0.3,2,0.4"/>
				<path class="st38" d="M442.5,291.5c25.4,2.4,41.7-26.8,33.6-46.3"/>
				<path class="st37" d="M475.7,244.3c-0.3-0.6-0.6-1.2-0.9-1.8"/>
			</g>
		</g>
		<path class="st5" d="M472.7,247.8c-2.9-1.2-4.3-4.5-3.1-7.4c1.2-2.9,4.5-4.3,7.4-3.1c2.9,1.2,4.3,4.5,3.1,7.4
			C478.9,247.7,475.6,249,472.7,247.8z"/>
	</g>
	<g>
		<g>
			<g>
				<path class="st39" d="M382.4,109.5c0.2-0.6,0.4-1.3,0.6-1.9"/>
				<path class="st40" d="M383.4,105.6c4.9-25-22.5-44.1-42.7-38.1"/>
				<path class="st39" d="M339.7,67.8c-0.6,0.2-1.2,0.5-1.9,0.7"/>
			</g>
		</g>
		<path class="st41" d="M342.9,71.1c-1.5,2.8-4.9,3.8-7.7,2.3c-2.8-1.5-3.8-4.9-2.3-7.7c1.5-2.8,4.9-3.8,7.7-2.3
			C343.4,64.9,344.4,68.4,342.9,71.1z"/>
	</g>
</g>
<g>
	<g>
		<line class="st42" x1="79.8" y1="112.6" x2="101.6" y2="112.6"/>
		<line class="st42" x1="79.8" y1="123.7" x2="91.9" y2="123.7"/>
	</g>
	<g>
		<line class="st42" x1="274.4" y1="106" x2="349.4" y2="106"/>
		<line class="st42" x1="274.4" y1="116.8" x2="301.5" y2="116.8"/>
	</g>
	<g>
		<line class="st42" x1="454.4" y1="317.2" x2="477.1" y2="317.2"/>
		<line class="st42" x1="443.8" y1="317.2" x2="446.8" y2="317.2"/>
		<line class="st42" x1="465.4" y1="326.2" x2="477.1" y2="326.2"/>
	</g>
</g>
<g>
	<path class="st41" d="M249.3,58.1v14.1l-12.7,15.2H290c16.2,0,29.3-13.1,29.3-29.3l0,0c0-16.2-13.1-29.3-29.3-29.3h-11.5
		C262.4,28.9,249.3,42,249.3,58.1z"/>
	<g>
		<path class="st0" d="M271.8,64.7c0,2.9-2.3,5.2-5.2,5.2s-5.2-2.3-5.2-5.2s2.3-5.2,5.2-5.2S271.8,61.8,271.8,64.7z"/>
		<path class="st0" d="M289.5,64.7c0,2.9-2.3,5.2-5.2,5.2s-5.2-2.3-5.2-5.2s2.3-5.2,5.2-5.2S289.5,61.8,289.5,64.7z"/>
		<path class="st0" d="M307.2,64.7c0,2.9-2.3,5.2-5.2,5.2c-2.9,0-5.2-2.3-5.2-5.2s2.3-5.2,5.2-5.2C304.9,59.5,307.2,61.8,307.2,64.7
			z"/>
	</g>
</g>
<g>
	<g>
		<circle class="st41" cx="230.6" cy="435.8" r="8.6"/>
		<circle class="st41" cx="429.9" cy="95.4" r="5.6"/>
		<circle class="st41" cx="38.3" cy="107.5" r="7.8"/>
		<path class="st41" d="M89.6,430.6c0-2.7-2.2-4.9-4.9-4.9c-2.7,0-4.9,2.2-4.9,4.9c0,2.7,2.2,4.9,4.9,4.9
			C87.4,435.5,89.6,433.3,89.6,430.6z"/>
	</g>
	<g>
		<path class="st43" d="M170.2,417.8c0,1.8-1.5,3.3-3.3,3.3c-1.8,0-3.3-1.5-3.3-3.3c0-1.8,1.5-3.3,3.3-3.3
			C168.7,414.5,170.2,416,170.2,417.8z"/>
		<path class="st5" d="M222.5,47.6c0-1.9-1.5-3.4-3.4-3.4c-1.9,0-3.4,1.5-3.4,3.4c0,1.9,1.5,3.4,3.4,3.4
			C221,51,222.5,49.5,222.5,47.6z"/>
		<path class="st5" d="M405.1,77.5c0-1.9-1.5-3.4-3.4-3.4c-1.9,0-3.4,1.5-3.4,3.4s1.5,3.4,3.4,3.4C403.6,80.8,405.1,79.3,405.1,77.5
			z"/>
		<path class="st5" d="M20.1,247.7c0,2.9-2.3,5.2-5.2,5.2s-5.2-2.3-5.2-5.2s2.3-5.2,5.2-5.2S20.1,244.9,20.1,247.7z"/>
		<path class="st5" d="M486.3,340.5c0,1.6-1.3,2.9-2.9,2.9c-1.6,0-2.9-1.3-2.9-2.9c0-1.6,1.3-2.9,2.9-2.9
			C485,337.6,486.3,338.9,486.3,340.5z"/>
	</g>
	<g>
		<circle class="st41" cx="106.8" cy="44.3" r="11.3"/>
		<ellipse transform="matrix(0.2309 -0.973 0.973 0.2309 0.6422 153.0394)" class="st41" cx="97.1" cy="76.1" rx="11.3" ry="11.3"/>
		
			<ellipse transform="matrix(0.7071 -0.7071 0.7071 0.7071 -3.3479 116.3966)" class="st41" cx="138.8" cy="62.2" rx="11.3" ry="11.3"/>
		<line class="st42" x1="97.1" y1="76.1" x2="106.8" y2="44.3"/>
		<line class="st42" x1="138.8" y1="62.2" x2="108.4" y2="44.3"/>
		<line class="st42" x1="97.1" y1="76.1" x2="138.8" y2="62.2"/>
	</g>
</g>
</svg>
