<svg xmlns="http://www.w3.org/2000/svg" viewBox="0 0 1116 411.356"><linearGradient id="a" gradientUnits="userSpaceOnUse" x1="0" y1="204.743" x2="1116" y2="204.743"><stop offset="0" stop-color="#078003"/><stop offset=".079" stop-color="#078003"/><stop offset=".149" stop-color="#078003"/><stop offset=".216" stop-color="#CDB97D"/><stop offset=".281" stop-color="#CDB97D"/><stop offset=".32" stop-color="#CDB97D"/><stop offset=".437" stop-color="#E3E1B2"/><stop offset=".531" stop-color="#E3E1B2"/><stop offset=".615" stop-color="#CDB97D"/><stop offset=".774" stop-color="#078003"/><stop offset="1" stop-color="#078003"/></linearGradient><path fill="url(#a)" d="M675.755 192.118c-1.919-.954-3.148-.884-3.692.206-5.476 15.046-12.38 29.541-20.719 43.492a196.394 196.394 0 01-29.747 38.158c-3.015 3.013-6.637 5.744-10.874 8.206-4.244 2.462-8.686 3.013-13.335 1.641-3.56-1.09-6.09-3.693-7.592-7.796a2371.258 2371.258 0 01-3.897-10.668 517.04 517.04 0 01-7.589-23.797 281.98 281.98 0 01-5.951-24.208c9.573-2.187 18.321-5.949 26.26-11.284 7.929-5.333 14.629-11.963 20.105-19.9 1.364-2.186 3.008-5.468 4.921-9.847 1.914-4.372 3.143-8.68 3.695-12.924.545-4.238 0-7.93-1.641-11.079-1.641-3.141-5.201-4.443-10.667-3.897-4.382.551-8.484 2.667-12.311 6.359a789.732 789.732 0 00-10.257 10.052 182.582 182.582 0 00-21.746 24.209c-7.387 9.026-13.952 18.463-19.695 28.311 0-.821.135-1.5.41-2.052a498.111 498.111 0 013.49-15.386 186.49 186.49 0 014.307-14.976c19.42-13.951 36.517-30.222 51.286-48.827 8.753-11.213 16.682-23.246 23.799-36.107 3.552-6.289 6.905-13.129 10.052-20.514 3.14-7.386 4.989-14.771 5.538-22.157.27-6.289-1.843-11.757-6.36-16.412-4.512-4.648-10.192-6.289-17.027-4.924-6.295 1.097-12.041 4.308-17.232 9.643-5.201 5.333-9.578 10.462-13.13 15.386a228.165 228.165 0 00-11.281 19.285 1466.758 1466.758 0 01-10.465 19.694 473.931 473.931 0 00-10.874 22.362 472.504 472.504 0 00-9.643 22.773c-6.42 16.047-12.176 32.892-17.284 50.509-5.643 10.158-11.416 20.091-17.379 29.704a305.522 305.522 0 01-22.363 31.389c-.55.821-1.434 1.917-2.668 3.282a101.775 101.775 0 01-3.897 4.103 25.41 25.41 0 01-4.307 3.487c-1.509.962-2.943 1.436-4.309 1.436-4.654 0-6.43-2.186-5.333-6.565a165.387 165.387 0 011.641-4.719c.545-1.5 1.089-3.076 1.641-4.718a1856.49 1856.49 0 004.716-18.465 180.001 180.001 0 015.541-18.052 163.04 163.04 0 017.384-17.233 186.248 186.248 0 007.387-16.822c1.367-4.649 2.526-9.643 3.487-14.976.957-5.335-.205-9.912-3.487-13.746-4.104-4.924-8.346-7.314-12.72-7.181-4.379.141-8.616 1.641-12.718 4.514-4.104 2.872-7.869 6.43-11.286 10.668a2026.786 2026.786 0 01-8.818 10.873 314.22 314.22 0 00-11.901 17.027 1980.466 1980.466 0 01-11.486 17.438 139.67 139.67 0 00-5.336 8.206 138.386 138.386 0 01-5.333 8.206c-.552.821-1.371 2.122-2.461 3.898a96.862 96.862 0 01-3.695 5.538 316.003 316.003 0 011.846-13.335c.679-4.237 1.983-8.68 3.897-13.335 2.463-6.289 5.401-12.238 8.823-17.848a1466.614 1466.614 0 0010.462-17.438c.545-1.09.41-2.257-.41-3.487-.819-1.231-1.988-2.257-3.487-3.078a14.986 14.986 0 00-4.719-1.641c-1.641-.27-2.87 0-3.692.821-6.02 4.103-11.079 9.373-15.181 15.797-4.104 6.43-7.244 13.2-9.438 20.31-1.474 4.093-2.698 8.268-3.73 12.506-.405.954-.775 1.934-1.189 2.881a176.88 176.88 0 01-11.489 21.951c-3.832 7.386-8.206 14.092-13.13 20.106-1.371 1.641-3.013 3.487-4.924 5.538-1.916 2.052-4.104 3.898-6.565 5.54-2.461 1.641-4.994 2.808-7.592 3.487-2.603.686-5.126.346-7.589-1.025-3.013-1.911-4.994-5.059-5.95-9.436-.959-4.373-1.711-8.065-2.256-11.079-.552-3.827-.757-7.519-.617-11.078.135-3.552.475-7.245 1.029-11.078.819-7.931 2.87-15.862 6.153-23.798a75.265 75.265 0 014.719-9.438c1.774-3.007 2.938-6.289 3.487-9.846.27-1.091-.275-2.052-1.641-2.873-1.371-.821-2.461-.956-3.283-.41l-3.692 2.462c3.005-5.47 4.576-11.143 4.719-17.028.135-5.879-2.533-11.008-8.002-15.386-4.104-3.282-8.276-5.13-12.513-5.54a26.977 26.977 0 00-12.311 1.641c-3.967 1.506-7.732 3.763-11.284 6.77-3.56 3.013-6.707 6.154-9.435 9.436-6.298 7.938-11.766 17.169-16.412 27.696a88.787 88.787 0 00-3.68 9.909c-10.601 24.854-23.581 48.295-38.987 70.305a4644.262 4644.262 0 01-6.155 9.643c-2.193 3.424-4.786 5.949-7.794 7.59-1.374.82-2.193 1.231-2.463 1.231h-3.692c-2.463-.27-3.692-.474-3.692-.616 0-.135-.275-1.026-.822-2.667-.822-1.641-1.301-3.489-1.436-5.539-.14-2.051-.345-3.898-.614-5.54-.55-7.386-.345-14.77.614-22.156a130.653 130.653 0 014.719-21.747 2098.59 2098.59 0 016.565-21.746c2.186-7.11 4.374-14.219 6.565-21.335 1.366-5.47 3.005-11.348 4.924-17.644 1.911-6.289 1.499-12.168-1.229-17.643-2.738-5.468-6.565-8.001-11.491-7.59-4.921.41-9.917 2.257-14.974 5.54-5.066 3.283-9.92 7.045-14.569 11.283-4.651 4.244-8.069 7.59-10.257 10.052a144.253 144.253 0 00-12.925 15.797 741.383 741.383 0 00-11.691 17.028 42.595 42.595 0 01-2.463 3.692 16.134 16.134 0 00-2.051 3.693 364.62 364.62 0 011.846-12.925 491.334 491.334 0 012.258-12.924c21.059-14.22 39.245-31.042 54.568-50.468 9.848-12.033 18.189-24.478 25.031-37.338 3.282-6.289 6.697-13.194 10.257-20.721 3.55-7.521 5.466-14.835 5.743-21.952.545-6.013-1.097-11.417-4.924-16.206-3.832-4.783-8.616-7.86-14.359-9.232-3.837-.821-7.387-.616-10.669.616-3.283 1.23-6.298 3.076-9.026 5.538a61.792 61.792 0 00-7.592 8.206c-2.326 3.014-4.449 5.744-6.36 8.206a373.413 373.413 0 00-26.67 40.825c-3.416 6.065-6.556 12.296-9.514 18.637-1.067-.134-2.142-.219-3.204-.378a129.446 129.446 0 01-20.719-4.924 483.217 483.217 0 01-19.9-6.975 151.038 151.038 0 003.897-9.438c1.232-3.281 1.706-6.564 1.436-9.846 0-1.367-.757-2.392-2.256-3.078-1.509-.679-2.808-.751-3.897-.205-3.015 1.641-5.746 4.038-8.209 7.179a70.957 70.957 0 00-6.565 10.052 16.364 16.364 0 00-3.282-1.23 15.548 15.548 0 01-3.282-1.231 299.803 299.803 0 00-26.67-7.795c-9.026-2.186-18.051-3.282-27.079-3.282-7.929-.268-16.343.616-25.233 2.667C12.655 87.08 5.476 91.118 0 97.132v.41l.41.411c4.657-2.186 9.168-4.103 13.54-5.744 4.379-1.641 9.028-2.872 13.952-3.692a93.16 93.16 0 0116.205-1.027c5.336.141 10.739.616 16.208 1.436 7.662 1.371 15.041 3.219 22.158 5.54a273.04 273.04 0 0121.334 8c-.549 1.373-1.369 3.148-2.461 5.335a328.714 328.714 0 00-8.411 17.233 301.245 301.245 0 00-7.18 17.232 551.362 551.362 0 00-12.72 34.671c-3.832 11.63-7.245 23.592-10.257 35.901a1467.76 1467.76 0 01-3.692 16.208 132.067 132.067 0 00-2.873 17.848c-.545 6.02-.41 11.9.41 17.643.819 5.744 3.013 10.809 6.565 15.182 3.282 4.103 6.7 6.43 10.257 6.975 3.552.552 7.11-.064 10.667-1.846 3.552-1.776 6.905-4.238 10.052-7.386 3.143-3.141 5.811-6.36 8.004-9.643a240.682 240.682 0 0010.872-17.027 2913.175 2913.175 0 0110.462-17.849 549.26 549.26 0 0112.311-19.284 172.875 172.875 0 003.455-5.416c-1.58 12.781-2.199 25.527-1.816 38.241 0 1.095.684 2.327 2.051 3.692a16.095 16.095 0 004.719 3.282c1.774.821 3.417 1.302 4.924 1.437 1.501.141 2.525-.616 3.075-2.257 4.651-12.578 9.573-24.752 14.774-36.517 5.191-11.757 12.166-22.836 20.924-33.235a135.79 135.79 0 0114.154-15.181 83.794 83.794 0 0116.617-11.898c1.914-1.09 4.034-1.911 6.36-2.462 2.323-.546 3.622.686 3.9 3.692 0 1.641-.482 3.353-1.436 5.129-.962 1.782-1.711 3.354-2.258 4.719a219.491 219.491 0 00-3.897 10.052 218.666 218.666 0 01-3.897 10.052c-5.746 13.13-10.872 26.811-15.388 41.031-4.512 14.225-5.813 28.72-3.897 43.492.545 5.474 2.116 10.873 4.719 16.206 2.596 5.335 6.773 8.963 12.513 10.873 5.471 1.641 10.322.821 14.569-2.461 4.237-3.283 7.859-6.835 10.872-10.668 10.117-13.674 18.938-28.241 26.465-43.698 3.299-6.778 6.365-13.636 9.27-20.547-.011.489-.042.98-.042 1.468 0 3.558.819 7.527 2.461 11.898 1.641 4.379 3.897 8.206 6.77 11.489 2.87 3.282 6.218 5.609 10.052 6.976 3.827 1.371 7.931.962 12.308-1.232 4.372-2.186 8.001-5.603 10.874-10.257 2.87-4.648 5.398-9.027 7.592-13.13.545-1.365 1.229-2.525 2.048-3.487.822-.956 1.501-2.116 2.053-3.487-.819 3.282-1.231 6.43-1.231 9.436-.275 3.833-.275 8.001 0 12.514a63.097 63.097 0 002.256 13.335c1.234 4.379 3.008 8.347 5.336 11.898 2.321 3.559 5.538 6.297 9.643 8.206 4.372 2.193 8.613 2.943 12.718 2.257a27.96 27.96 0 0011.284-4.513c3.418-2.321 6.565-5.264 9.438-8.822 2.873-3.552 5.396-6.975 7.589-10.257a207.297 207.297 0 0013.173-22.554 50.519 50.519 0 001.596 9.424c.549 1.641 1.709 3.078 3.487 4.308 1.781 1.23 3.487 1.987 5.126 2.257 5.471.551 9.778-1.09 12.925-4.924a149.287 149.287 0 008.823-11.9 1465.679 1465.679 0 0010.257-16.001 264.751 264.751 0 0110.667-15.592 299.71 299.71 0 0111.901-16.617 157.564 157.564 0 0113.54-15.386c1.908-1.911 3.962-3.962 6.153-6.155 2.186-2.186 4.514-3.827 6.977-4.923l.819-.411v.411c0 1.371-.14 2.461-.41 3.281a25.696 25.696 0 01-1.436 5.54 114.852 114.852 0 00-1.846 5.129 3267.507 3267.507 0 01-16.412 36.312c-5.476 11.898-8.618 24.689-9.438 38.363a46.296 46.296 0 001.232 13.746c1.089 4.513 3.827 8.141 8.206 10.873 3.552 2.192 7.04 2.808 10.462 1.846 3.417-.956 6.63-2.802 9.643-5.54a108.192 108.192 0 0014.154-15.386 562.242 562.242 0 0012.106-16.617c4.353-5.764 8.478-11.758 12.413-17.942-1.643 11.149-1.955 22.191-.929 33.122 0 1.373.687 2.738 2.051 4.103a16.2 16.2 0 004.719 3.282c1.776.821 3.415 1.097 4.924.821 1.499-.27 2.525-1.23 3.078-2.872a252.92 252.92 0 013.692-13.95 275.871 275.871 0 014.512-13.951 41.033 41.033 0 012.053-4.308 123.17 123.17 0 012.463-4.308c1.089 7.386 2.87 16.072 5.331 26.054 2.463 9.989 5.811 19.079 10.052 27.286 4.239 8.206 9.503 14.36 15.798 18.463 6.29 4.103 14.084 4.103 23.387 0 7.931-3.827 14.906-9.643 20.926-17.438 6.013-7.795 11.349-15.246 16-22.362 6.016-8.751 11.284-17.706 15.798-26.875a279.174 279.174 0 0012.103-28.517c.543-1.361-.144-2.522-2.055-3.483zm-113.654-16.002c.27-.956.545-1.846.82-2.667a390.482 390.482 0 0116.003-39.184 1337.624 1337.624 0 0118.463-37.544 910.334 910.334 0 018.411-16.411 104.318 104.318 0 0110.052-15.592 254.87 254.87 0 015.95-6.565 38.648 38.648 0 016.77-5.744c.545-.545 1.909-1.436 4.102-2.667 2.186-1.231 3.008-2.257 2.463-3.078 1.364 1.097 2.256 3.078 2.666 5.949.412 2.873.617 4.995.617 6.36.545 7.116-.759 14.092-3.899 20.925a663.618 663.618 0 01-9.231 19.284 286.655 286.655 0 01-19.285 31.593 218.85 218.85 0 01-20.719 25.439 289.401 289.401 0 01-24.004 22.566 74.41 74.41 0 00.821-2.664zM209.048 72.514a296.612 296.612 0 0112.513-16.822c2.188-2.732 4.514-5.603 6.975-8.616 2.463-3.008 5.336-4.924 8.618-5.744 2.463-.546 4.372-.135 5.746 1.23 1.364 1.373 2.318 3.148 2.87 5.335a37.574 37.574 0 011.027 6.77c.135 2.327.065 4.308-.205 5.949-1.099 6.841-3.22 13.611-6.36 20.31a2929.587 2929.587 0 01-9.233 19.49c-5.476 10.943-12.311 22.022-20.514 33.235-14.227 18.874-30.774 35.286-49.647 49.236.545-2.73 1.159-5.398 1.846-8a236.396 236.396 0 012.256-8.002 324.588 324.588 0 0113.949-39.184c.337-.785.707-1.556 1.05-2.338 1.993-.032 3.973-.122 5.929-.329 3.282-.27 6.975-1.091 11.077-2.462a45.222 45.222 0 0011.491-5.744c3.552-2.462 6.492-5.335 8.821-8.617 2.321-3.282 3.487-6.975 3.487-11.078 0-.545-.277-1.025-.822-1.436-.549-.41-1.094-.34-1.639.205a23.71 23.71 0 00-4.309 4.719 23.42 23.42 0 01-4.309 4.719c-4.377 3.013-8.758 5.333-13.13 6.975a53.496 53.496 0 01-11.533 2.11c3.921-8.089 8.149-16.05 12.762-23.856a235.105 235.105 0 0111.284-18.055zM141.93 191.281a154.649 154.649 0 00-12.069 18.275 650.222 650.222 0 01-11.281 19.284 541.45 541.45 0 00-10.26 16.412 276.894 276.894 0 01-10.667 16.412c-1.097 1.641-2.943 3.968-5.538 6.975-2.603 3.014-5.271 5.611-8.004 7.797-2.735 2.192-5.331 3.424-7.794 3.692-2.463.276-4.244-1.5-5.336-5.333-1.914-7.11-2.318-14.36-1.229-21.746a146.33 146.33 0 014.924-21.747 1101.133 1101.133 0 0111.284-38.157 525.691 525.691 0 0113.335-37.338 238.934 238.934 0 017.18-18.259 1830.525 1830.525 0 018.001-17.849c.822-1.91 1.571-3.692 2.256-5.333.68-1.641 1.437-3.417 2.258-5.335 1.639.552 2.731.962 3.282 1.232 4.921 1.916 9.982 3.897 15.181 5.949a155.142 155.142 0 0016 5.333c2.871.79 5.74 1.461 8.61 2.025-2.178 5.196-4.264 10.448-6.15 15.824-5.927 16.701-10.578 34-13.983 51.887zm186.1 26.276c-4.242 8.347-9.233 15.527-14.974 21.541-1.644 1.641-3.837 3.353-6.565 5.129-2.738 1.782-5.336 1.987-7.799.616-1.369-1.091-2.461-3.078-3.283-5.949-.819-2.873-1.369-4.989-1.639-6.36a35.795 35.795 0 011.024-13.746 152.183 152.183 0 014.309-13.335 314.54 314.54 0 0110.052-22.155c3.692-7.386 8.681-13.81 14.976-19.285a43.983 43.983 0 015.541-3.897c2.048-1.232 4.032-2.052 5.948-2.462 1.911-.411 3.692-.135 5.333.821 1.641.962 2.873 2.943 3.692 5.949 1.366 4.924 1.162 9.643-.615 14.155a397.367 397.367 0 00-5.129 13.746c0 .551.267.821.822.821-3.557 7.935-7.456 16.07-11.693 24.411zm239.197-12.514c.135-.27.34-.545.617-.821 5.468-7.93 11.284-15.387 17.439-22.362a227.455 227.455 0 0119.9-19.9 57.628 57.628 0 014.307-3.898 25.196 25.196 0 014.719-3.076c2.186-1.367 3.622-1.5 4.309-.411.68 1.097.749 2.603.205 4.514-.822 1.916-1.918 3.833-3.282 5.743a601.032 601.032 0 01-6.36 10.874c-2.053 3.422-4.584 6.635-7.589 9.641-9.847 10.398-21.479 17.233-34.879 20.516.27-.269.474-.544.614-.82zm545.653-14.567c-2.328-1.23-3.762-1.16-4.307.206-7.12 18.873-16.143 36.382-27.079 52.519a2141.234 2141.234 0 00-8.823 12.103 180.995 180.995 0 01-9.233 11.694c-1.094 1.373-2.738 3.078-4.921 5.13-2.193 2.051-4.452 3.692-6.77 4.924-2.328 1.23-4.587 1.711-6.77 1.435-2.193-.268-3.697-1.91-4.517-4.924-1.369-4.924-1.989-10.052-1.844-15.386a76.93 76.93 0 012.048-15.797 152.328 152.328 0 014.516-15.387c1.774-5.057 3.487-9.911 5.126-14.565a538.99 538.99 0 0110.872-28.927c3.962-9.706 6.905-19.49 8.823-29.336 0-.821-.345-1.571-1.024-2.257a12.12 12.12 0 00-2.463-1.846 6.134 6.134 0 00-3.078-.821c-1.094 0-1.784.41-2.053 1.23-5.741 7.937-10.532 16.689-14.359 26.26a299.563 299.563 0 01-5.541 8.411 160.607 160.607 0 00-5.126 8.002 869.721 869.721 0 01-14.564 21.54c-5.066 7.252-10.742 13.887-17.032 19.9a15.088 15.088 0 01-1.639 1.436 15.86 15.86 0 00-1.644 1.436c-1.369.551-2.118.891-2.253 1.025-.14.141-.48-.616-1.029-2.257-.549-1.641-.685-3.551-.41-5.744.27-2.186.545-4.237.824-6.154.545-4.103 1.089-8.206 1.639-12.309a57.615 57.615 0 012.873-11.898c2.463-7.93 5.601-15.387 9.438-22.362a3062.891 3062.891 0 0011.486-21.13c.545-1.091.41-2.257-.41-3.489-.819-1.23-1.988-2.256-3.487-3.076a20.993 20.993 0 00-4.512-1.847c-1.509-.41-2.668-.205-3.487.616-7.12 6.841-12.655 15.117-16.617 24.824a191.05 191.05 0 00-7 20.305c-5.508 6.387-12.229 11.885-20.284 16.417-8.758 4.924-17.916 7.662-27.489 8.206 2.728-6.013 5.191-12.578 7.384-19.695 1.908-6.289 3.347-12.988 4.307-20.105.959-7.11-.07-13.809-3.078-20.105-3.013-6.013-7.934-10.257-14.769-12.719-6.84-2.462-13.405-2.052-19.695 1.23-6.84 3.559-11.631 8.892-14.359 16.002-2.738 7.117-3.557 14.636-2.463 22.568-1.785 1.289-3.477 2.791-5.081 4.493-.677-.021-1.183.239-1.484.841-6.84 11.489-14.914 21.817-24.206 30.978a251.619 251.619 0 01-29.952 25.235 3286.145 3286.145 0 007.999-27.696 774.522 774.522 0 018.414-27.695 538.376 538.376 0 018.613-22.566 160.539 160.539 0 007.384-22.977c.545-1.365-.14-2.462-2.049-3.282-1.918-.821-3.283-.956-4.107-.41-4.921 4.103-8.818 9.097-11.691 14.976a183.247 183.247 0 00-7.589 17.848 122.033 122.033 0 00-3.692 10.052 126.348 126.348 0 01-3.697 10.052 28.94 28.94 0 00-2.048 4.103 240.031 240.031 0 01-6.975 10.668l-7.384 10.668a442.342 442.342 0 00-8.209 11.898c-2.738 4.103-5.608 7.938-8.613 11.489-1.099 1.097-2.398 2.193-3.9 3.283-1.506 1.097-3.22.552-5.129-1.641-.552-.821-.819-2.116-.819-3.897v-3.898c0-2.462.267-4.854.819-7.181a81.662 81.662 0 012.051-7.18 196.524 196.524 0 013.695-12.925c1.364-4.238 2.728-8.546 4.102-12.925a221.894 221.894 0 014.512-12.308 95.256 95.256 0 015.746-11.9c2.183-4.103 4.716-8.27 7.589-12.514 2.873-4.238 4.851-8.546 5.951-12.924.545-2.187-.615-4.238-3.487-6.155-2.873-1.91-5.271-2.186-7.18-.821-4.656 3.014-8.483 7.322-11.489 12.925-3.015 5.609-5.608 10.738-7.796 15.386a174.562 174.562 0 00-6.77 15.387 140.055 140.055 0 00-5.129 16.207 125.751 125.751 0 00-2.87 17.438 53.518 53.518 0 001.229 17.438c.55 3.014 1.641 6.155 3.283 9.438 1.641 3.282 4.102 5.333 7.384 6.154 1.911.552 3.692.552 5.336 0 1.639-.545 3.14-1.436 4.512-2.667a22.75 22.75 0 003.692-4.308 64.857 64.857 0 013.283-4.514 792.947 792.947 0 009.643-13.129 336.285 336.285 0 009.233-13.541 46.946 46.946 0 01-.824 3.487c-.275.962-.684 2.122-1.229 3.489a644.657 644.657 0 00-5.541 19.284 1114.792 1114.792 0 01-5.536 19.695 286.81 286.81 0 01-16.617 9.232 633.336 633.336 0 00-16.617 8.821 669.329 669.329 0 00-27.489 14.566c-9.028 5.065-16.957 11.552-23.799 19.489-3.005 3.283-5.673 7.11-8.001 11.489-2.318 4.373-3.962 8.822-4.921 13.335-.957 4.514-1.162 9.091-.617 13.746.552 4.648 2.191 9.027 4.924 13.13 2.738 4.103 6.155 7.384 10.257 9.846 4.102 2.462 8.484 4.033 13.13 4.719 4.654.679 9.438.679 14.359 0 4.926-.686 9.438-1.987 13.542-3.898 6.295-3.013 11.489-6.975 15.591-11.898 4.102-4.924 7.654-10.398 10.667-16.412a263.912 263.912 0 0018.261-43.492 1930.253 1930.253 0 0013.744-45.133c12.85-8.206 24.751-17.438 35.693-27.696 3.07-2.877 5.96-5.892 8.706-9.017-.088.546-.22 1.083-.293 1.631-.954 7.251-.27 14.092 2.053 20.516 2.328 6.43 6.91 11.014 13.744 13.746 3.282 1.371 6.425 1.916 9.438 1.641a23.825 23.825 0 008.613-2.462c2.733-1.367 5.196-3.212 7.389-5.54a344.97 344.97 0 006.56-7.181 172.163 172.163 0 006.155-9.027 105.678 105.678 0 005.336-9.436c10.937.551 21.673-2.051 32.211-7.795 5.849-3.192 11.02-6.821 15.562-10.857a344.57 344.57 0 00-1.822 9.83c-.819 4.79-1.024 9.373-.614 13.746.41 4.379 1.784 8.347 4.102 11.898 2.323 3.558 6.22 5.885 11.696 6.976 4.102 1.095 7.384.481 9.847-1.846 2.458-2.322 4.781-4.989 6.975-8.001 2.463-3.282 4.921-6.565 7.384-9.848a221.14 221.14 0 006.975-9.847c-.275.821-.549 1.641-.819 2.462-.275.821-.55 1.641-.819 2.462-1.374 4.654-2.738 9.847-4.107 15.592-1.369 5.744-2.049 11.354-2.049 16.822 0 5.475 1.024 10.668 3.078 15.592 2.049 4.924 5.536 9.027 10.462 12.309 4.921 3.283 9.503 4.654 13.745 4.103 4.237-.546 8.269-2.187 12.106-4.924 3.827-2.732 7.385-6.155 10.667-10.258 3.282-4.103 6.155-7.93 8.613-11.487 14.774-21.06 26.395-43.352 34.879-66.88.267-1.372-.758-2.673-3.081-3.905zM808.847 292.642a310.498 310.498 0 01-7.999 24.003 982.188 982.188 0 01-6.77 17.233 86.866 86.866 0 01-8.823 16.412c-2.186 3.282-4.921 6.494-8.204 9.641-3.282 3.141-6.905 5.744-10.874 7.797a40.813 40.813 0 01-12.515 4.103c-4.372.68-8.616.205-12.718-1.436-6.29-2.192-10.462-5.744-12.516-10.668-2.051-4.924-2.73-10.193-2.051-15.797.687-5.609 2.396-11.149 5.129-16.617 2.738-5.475 5.746-9.989 9.028-13.54a95.483 95.483 0 0123.387-18.463 613.666 613.666 0 0126.257-13.95c4.374-2.187 8.681-4.308 12.925-6.36a236.458 236.458 0 0012.923-6.77 2405.113 2405.113 0 00-7.179 24.412zm116.321-68.725c-2.463 4.378-5.611 9.232-9.438 14.565-3.832 5.335-8.204 8.822-13.13 10.463-2.738.821-4.716.275-5.945-1.641-1.234-1.911-2.053-4.373-2.463-7.385-.41-3.007-.555-6.084-.41-9.232.135-3.141.34-5.398.614-6.77a60.969 60.969 0 013.487-11.079 364.848 364.848 0 014.716-10.668c2.463 4.655 5.746 8.892 9.847 12.72a59.664 59.664 0 006.565 4.308 40.186 40.186 0 006.975 3.078c-.548.551-.818 1.095-.818 1.641zm14.359-46.365c-.55 5.475-1.369 10.533-2.458 15.181-2.193 8.757-5.066 16.963-8.618 24.619-7.115-1.641-12.176-4.989-15.179-10.052-3.018-5.059-4.382-10.733-4.107-17.028.27-.27.27-.821 0-1.641.27-6.565 2.188-12.989 5.746-19.284a94.774 94.774 0 014.512-6.565c1.644-2.186 3.552-3.962 5.746-5.333 1.364-.821 3.008-1.571 4.926-2.257 1.909-.679 3.547-.616 4.921.205 1.089.551 1.849 1.578 2.258 3.078.409 1.506.749 2.808 1.024 3.897 1.364 4.653 1.779 9.712 1.229 15.18z"/></svg>