<svg xmlns="http://www.w3.org/2000/svg" viewBox="0 0 387 120"><defs><clipPath id="a"><path data-name="Rectangle 2" transform="translate(209 89)" fill="#fff" d="M0 0h387v120H0z"/></clipPath></defs><g data-name="Mask Group 2" transform="translate(-209 -89)" clip-path="url(#a)"><path d="M0 192.96c12.5 0 23.213 5.36 35.713 5.36 11.693 0 21.716-37.52 33.409-37.52 12.5 0 23.213 5.36 35.713 5.36 12.1 0 22.465-107.2 34.561-107.2 12.5 0 23.213 53.6 35.713 53.6 12.1 0 22.465-16.08 34.561-16.08 12.5 0 23.213 69.68 35.713 69.68s23.217-16.08 35.717-16.08c12.1 0 22.465 26.8 34.561 26.8 12.5 0 23.213-64.32 35.713-64.32 12.1 0 22.465 75.04 34.561 75.04 12.5 0 23.213-42.88 35.713-42.88s23.213 21.44 35.713 21.44c11.29 0 20.967-42.88 32.257-42.88 12.5 0 23.213 80.4 35.713 80.4 12.1 0 22.465-26.8 34.561-26.8 12.5 0 23.213 10.72 35.713 10.72h0" fill="none" stroke="#99cc67" stroke-width="6" stroke-dasharray="6"/></g></svg>