<svg class="missio__svg" viewBox="0 0 480 480" xmlns="http://www.w3.org/2000/svg"><path d="M448 64v16c8.836 0 16 7.164 16 16v240h-16v16h16v16c0 8.836-7.164 16-16 16v16c17.672 0 32-14.328 32-32V96c0-17.672-14.328-32-32-32zm0 0M32 400h157.246l-19.2 64H152v16h176v-16H186.754l19.2-64H216v-16H32c-8.836 0-16-7.164-16-16v-16h256v-16H16V96c0-8.836 7.164-16 16-16V64C14.328 64 0 78.328 0 96v272c0 17.672 14.328 32 32 32zm0 0"/><path d="M64 32c0-8.836 7.164-16 16-16h320c8.836 0 16 7.164 16 16v288h16V32c0-17.672-14.328-32-32-32H80C62.328 0 48 14.328 48 32v288h16zm0 0"/><path d="M80 32h16v16H80zm0 0M112 32h16v16h-16zm0 0M144 32h16v16h-16zm0 0M144 304h128v-16H144c-13.254 0-24-10.746-24-24s10.746-24 24-24h192a24.003 24.003 0 0122.18 14.785 23.997 23.997 0 01-5.157 26.153 25.036 25.036 0 01-5.023 3.84l8 13.855a41.085 41.085 0 008.336-6.403A40.001 40.001 0 00336 224H144c-22.09 0-40 17.91-40 40s17.91 40 40 40zm0 0"/><path d="M232 256h16v16h-16zm0 0M264 256h16v16h-16zm0 0M200 256h16v16h-16zm0 0M168 256h16v16h-16zm0 0M136 256h16v16h-16zm0 0M189.969 187.719c.574.554 1.199 1.035 1.785 1.601 1 .903 1.988 1.825 3.039 2.672.855.688 1.742 1.313 2.613 1.961.875.649 1.914 1.43 2.914 2.094s2.121 1.312 3.2 1.953c.886.52 1.761 1.07 2.68 1.602 1.206.636 2.456 1.207 3.695 1.78.847.395 1.68.802 2.546 1.177 1.313.546 2.664 1 4 1.472.848.297 1.68.625 2.543.89 1.383.423 2.809.75 4.223 1.087.863.207 1.715.465 2.594.64 1.543.305 3.101.504 4.672.711.8.106 1.543.266 2.336.344 2.398.234 4.8.36 7.199.36 2.398 0 4.8-.125 7.199-.36.8-.078 1.555-.238 2.336-.344 1.602-.207 3.129-.406 4.672-.71.883-.176 1.73-.434 2.594-.641 1.414-.336 2.84-.664 4.222-1.086.864-.266 1.696-.594 2.543-.89 1.356-.473 2.707-.927 4-1.473.867-.36 1.7-.797 2.547-1.176 1.238-.574 2.488-1.145 3.695-1.781.918-.497 1.793-1.051 2.68-1.602 1.078-.64 2.16-1.258 3.2-1.953 1.038-.695 1.945-1.39 2.913-2.094.965-.707 1.758-1.273 2.614-1.96 1.05-.848 2.043-1.77 3.043-2.673.582-.535 1.207-1.015 1.78-1.601.06-.055.083-.117.138-.176 21.023-20.422 27.57-51.555 16.55-78.715s-37.406-44.93-66.718-44.93-55.696 17.77-66.72 44.93c-11.019 27.16-4.472 58.293 16.552 78.715.039.059.062.121.12.176zM224 128c0-8.836 7.164-16 16-16s16 7.164 16 16-7.164 16-16 16-16-7.164-16-16zm16 32a39.796 39.796 0 0134.594 19.953l-.465.344a55.73 55.73 0 01-7.2 4.8l-.144.087a55.849 55.849 0 01-7.61 3.382c-.472.168-.937.356-1.405.512a54.07 54.07 0 01-7.786 2c-.511.098-1.039.16-1.601.242a50.906 50.906 0 01-16.863 0c-.52-.082-1.047-.144-1.598-.242a54.07 54.07 0 01-7.785-2c-.473-.156-.938-.344-1.41-.512a56.015 56.015 0 01-7.606-3.382l-.144-.086a55.198 55.198 0 01-7.2-4.801l-.465-.344A39.785 39.785 0 01240 160zm0-80a55.928 55.928 0 0149.684 30.113 55.917 55.917 0 01-3.852 57.965 55.698 55.698 0 00-22.105-18.805c11.582-12.796 10.925-32.472-1.48-44.472-12.403-12-32.09-12-44.493 0-12.406 12-13.063 31.676-1.48 44.472a55.698 55.698 0 00-22.106 18.805 55.917 55.917 0 01-3.852-57.965A55.928 55.928 0 01240 80zm0 0M245.496 372.313l-1.266.632A22.127 22.127 0 00232.07 391a22.13 22.13 0 009.196 19.734l50.086 35.778A7.992 7.992 0 00296 448h128a8 8 0 008-8v-87.145c.152-11.94-8.273-22.273-20-24.527a24.075 24.075 0 00-19.52 5.383l-.48.41c-9.102-8.172-22.898-8.172-32 0a24.943 24.943 0 00-24-4.762V280c.156-11.941-8.27-22.277-20-24.527a23.999 23.999 0 00-28 23.672V385.87l-21.23-12.742a21.997 21.997 0 00-21.274-.817zm46.399 34.542A8 8 0 00304 400V279.145a7.996 7.996 0 012.863-6.137 7.984 7.984 0 016.543-1.742A8.65 8.65 0 01320 280v72a8 8 0 0016 0 8 8 0 0116 0 8 8 0 0016 0 8 8 0 0116 0 8 8 0 0016 0 8.005 8.005 0 012.824-6.098 8.055 8.055 0 016.574-1.789 8.677 8.677 0 016.602 8.742V432H298.559l-48-34.281a6.145 6.145 0 01-2.559-4.992 6.074 6.074 0 013.375-5.47l1.266-.632a6.062 6.062 0 015.886.223zm0 0"/></svg>