<svg xmlns="http://www.w3.org/2000/svg" viewBox="0 0 24 24"><style>.st0{fill:#010101}</style><path class="st0" d="M13.08 17.08c0 1.04.84 1.88 1.88 1.88h2.21c1.04 0 1.88-.84 1.88-1.88v-2.21c0-1.04-.84-1.88-1.88-1.88h-2.21c-1.04 0-1.88.84-1.88 1.88v2.21zm1.88-2.21h2.21v2.21h-2.21v-2.21z"/><circle class="st0" cx="18.11" cy="9.84" r=".94"/><circle class="st0" cx="14.02" cy="9.84" r=".94"/><path class="st0" d="M23.1 16.51c.52 0 .94-.42.94-.94V5.61c0-2.07-1.69-3.76-3.76-3.76h-1.22V.9a.939.939 0 1 0-1.88 0v.94H12.9V.9a.939.939 0 1 0-1.88 0v.94H6.78V.9A.939.939 0 1 0 4.9.9v.94H3.73C1.66 1.84-.03 3.53-.03 5.6v14.67c0 2.07 1.69 3.76 3.76 3.76h16.55c2.07 0 3.76-1.69 3.76-3.76a.939.939 0 1 0-1.88 0c0 1.04-.84 1.88-1.88 1.88H3.73c-1.04 0-1.88-.84-1.88-1.88V5.61c0-1.04.84-1.88 1.88-1.88H4.9v.94a.939.939 0 1 0 1.88 0v-.94h4.23v.94a.939.939 0 1 0 1.88 0v-.94h4.28v.94a.939.939 0 1 0 1.88 0v-.94h1.22c1.04 0 1.88.84 1.88 1.88v9.97c.01.51.43.93.95.93z"/><circle class="st0" cx="5.84" cy="18.02" r=".94"/><circle class="st0" cx="5.84" cy="9.84" r=".94"/><circle class="st0" cx="5.84" cy="13.93" r=".94"/><circle class="st0" cx="9.93" cy="13.93" r=".94"/><circle class="st0" cx="9.93" cy="9.84" r=".94"/><circle class="st0" cx="9.93" cy="18.02" r=".94"/></svg>