<svg version="1" id="Layer_1" xmlns="http://www.w3.org/2000/svg" viewBox="0 0 120 90.1"><style>.st0{fill:#bfbfbf}</style><switch><g><path class="st0" d="M108.9-.3H10.6C4.8-.3 0 4.4 0 10.3v69.2c0 5.8 4.7 10.6 10.6 10.6H109c5.8 0 10.6-4.7 10.6-10.6v-69c-.1-5.9-4.9-10.8-10.7-10.8zM10.6 7.2H109c1.8 0 3.3 1.5 3.3 3.3v14.8H7.3V10.4c0-1.8 1.5-3.2 3.3-3.2zm98.3 75.6H10.6c-1.8 0-3.3-1.5-3.3-3.3V40h105v39.4c-.1 1.9-1.6 3.4-3.4 3.4z"/><path class="st0" d="M42 65.8H13.4c-.7 0-1.3.5-1.3 1.3v.7c0 .7.5 1.3 1.3 1.3H42c.7 0 1.3-.5 1.3-1.3v-.7c-.2-.8-.7-1.3-1.3-1.3zM77.7 65.8H49c-.7 0-1.3.5-1.3 1.3v.7c0 .7.5 1.3 1.3 1.3h28.7c.7 0 1.3-.5 1.3-1.3v-.7c-.2-.8-.8-1.3-1.3-1.3zM102.1 46.2H88.4c-.9 0-1.8.7-1.8 1.8v10c0 .9.7 1.8 1.8 1.8h13.7c.9 0 1.8-.7 1.8-1.8V48c.1-1-.7-1.8-1.8-1.8zM71.1 58.3c1.6.7 2.9-1.6 1.5-2.4-8.8-3.6-18.1-4.9-27.6-3.1-3.1.7-5.7 1.1-8.8.4-1.3-.4-2.2-.5-3.7-.2-2.6.5-4.6 2.2-7.3 2-1.1 0-2.2-.4-3.1-.9v-.4c1.8-1.5 3.5-3.3 4.9-5.1.7-1.1.2-2.6-1.3-2.4-3.1.7-9.5 2.7-8 6.9 0 .2.2.2.2.4-1.3.9-2.7 1.6-4.2 2.4-1.6.7-.2 3.1 1.5 2.4 1.6-.7 3.1-1.6 4.6-2.6 2.4 1.8 6 2.4 8.4 1.8 1.1-.2 1.8-.7 2.7-1.1 2.9-.9 4.6-.4 7.3 0 2.6.4 5.3-.7 7.9-1.1 8.2-1.4 16.9-.3 25 3z"/></g></switch></svg>