<?xml version="1.0" encoding="utf-8"?>
<!-- Generator: Adobe Illustrator 22.0.1, SVG Export Plug-In . SVG Version: 6.00 Build 0)  -->
<svg version="1.1" id="Layer_1" xmlns="http://www.w3.org/2000/svg" xmlns:xlink="http://www.w3.org/1999/xlink" x="0px" y="0px"
	 viewBox="0 0 512 512" style="enable-background:new 0 0 512 512;" xml:space="preserve">
<style type="text/css">
	.st0{fill:#FDCC77;}
	.st1{fill:#FCB433;}
	.st2{fill:#E3E4D8;}
	.st3{fill:#D0CEBD;}
	.st4{fill:#2F9171;}
	.st5{fill:#A09893;}
	.st6{fill:#FFFFFF;}
</style>
<path class="st0" d="M511.3,274.3c0.4-6,0.7-12.1,0.7-18.3C512,114.6,397.4,0,256,0S0,114.6,0,256c0,117.8,79.5,216.9,187.8,246.8
	L511.3,274.3z"/>
<path class="st1" d="M512,266.2L325.4,77.9L124.2,454.5l63.6,48.3c21.7,6,44.6,9.2,68.2,9.2C391.2,512,502.6,399,512,266.2z"/>
<g>
	<path class="st2" d="M385.6,435H119.5V79.6h206.2l59.9,58.2V435z"/>
	<path class="st3" d="M325.7,79.6v58.2h59.9L325.7,79.6z"/>
	<path class="st4" d="M119.5,338.1h266.1v116.3H119.5V338.1z"/>
	<g>
		<path class="st5" d="M206,202.4h-46.6c-3.7,0-6.7-2.9-6.7-6.5v-25.8c0-3.6,3-6.5,6.7-6.5H206c3.7,0,6.7,2.9,6.7,6.5v25.8
			C212.6,199.5,209.7,202.4,206,202.4z M166.1,189.4h33.3v-12.9h-33.3V189.4z"/>
		<path class="st5" d="M252.5,202.4H206c-3.7,0-6.7-2.9-6.7-6.5v-25.8c0-3.6,3-6.5,6.7-6.5h46.6c3.7,0,6.7,2.9,6.7,6.5v25.8
			C259.2,199.5,256.2,202.4,252.5,202.4z M212.6,189.4h33.3v-12.9h-33.3V189.4z"/>
		<path class="st5" d="M299.1,202.4h-46.6c-3.7,0-6.7-2.9-6.7-6.5v-25.8c0-3.6,3-6.5,6.7-6.5h46.6c3.7,0,6.7,2.9,6.7,6.5v25.8
			C305.8,199.5,302.8,202.4,299.1,202.4z M259.2,189.4h33.3v-12.9h-33.3V189.4z"/>
		<path class="st5" d="M345.7,202.4h-46.6c-3.7,0-6.7-2.9-6.7-6.5v-25.8c0-3.6,3-6.5,6.7-6.5h46.6c3.7,0,6.7,2.9,6.7,6.5v25.8
			C352.3,199.5,349.3,202.4,345.7,202.4z M305.8,189.4H339v-12.9h-33.3V189.4z"/>
		<path class="st5" d="M206,228.2h-46.6c-3.7,0-6.7-2.9-6.7-6.5v-25.8c0-3.6,3-6.5,6.7-6.5H206c3.7,0,6.7,2.9,6.7,6.5v25.8
			C212.6,225.3,209.7,228.2,206,228.2z M166.1,215.3h33.3v-12.9h-33.3V215.3z"/>
		<path class="st5" d="M252.5,228.2H206c-3.7,0-6.7-2.9-6.7-6.5v-25.8c0-3.6,3-6.5,6.7-6.5h46.6c3.7,0,6.7,2.9,6.7,6.5v25.8
			C259.2,225.3,256.2,228.2,252.5,228.2z M212.6,215.3h33.3v-12.9h-33.3V215.3z"/>
		<path class="st5" d="M299.1,228.2h-46.6c-3.7,0-6.7-2.9-6.7-6.5v-25.8c0-3.6,3-6.5,6.7-6.5h46.6c3.7,0,6.7,2.9,6.7,6.5v25.8
			C305.8,225.3,302.8,228.2,299.1,228.2z M259.2,215.3h33.3v-12.9h-33.3V215.3z"/>
		<path class="st5" d="M345.7,228.2h-46.6c-3.7,0-6.7-2.9-6.7-6.5v-25.8c0-3.6,3-6.5,6.7-6.5h46.6c3.7,0,6.7,2.9,6.7,6.5v25.8
			C352.3,225.3,349.3,228.2,345.7,228.2z M305.8,215.3H339v-12.9h-33.3V215.3z"/>
		<path class="st5" d="M206,254.1h-46.6c-3.7,0-6.7-2.9-6.7-6.5v-25.8c0-3.6,3-6.5,6.7-6.5H206c3.7,0,6.7,2.9,6.7,6.5v25.8
			C212.6,251.2,209.7,254.1,206,254.1z M166.1,241.1h33.3v-12.9h-33.3V241.1z"/>
		<path class="st5" d="M252.5,254.1H206c-3.7,0-6.7-2.9-6.7-6.5v-25.8c0-3.6,3-6.5,6.7-6.5h46.6c3.7,0,6.7,2.9,6.7,6.5v25.8
			C259.2,251.2,256.2,254.1,252.5,254.1z M212.6,241.1h33.3v-12.9h-33.3V241.1z"/>
		<path class="st5" d="M299.1,254.1h-46.6c-3.7,0-6.7-2.9-6.7-6.5v-25.8c0-3.6,3-6.5,6.7-6.5h46.6c3.7,0,6.7,2.9,6.7,6.5v25.8
			C305.8,251.2,302.8,254.1,299.1,254.1z M259.2,241.1h33.3v-12.9h-33.3V241.1z"/>
		<path class="st5" d="M345.7,254.1h-46.6c-3.7,0-6.7-2.9-6.7-6.5v-25.8c0-3.6,3-6.5,6.7-6.5h46.6c3.7,0,6.7,2.9,6.7,6.5v25.8
			C352.3,251.2,349.3,254.1,345.7,254.1z M305.8,241.1H339v-12.9h-33.3V241.1z"/>
		<path class="st5" d="M206,279.9h-46.6c-3.7,0-6.7-2.9-6.7-6.5v-25.8c0-3.6,3-6.5,6.7-6.5H206c3.7,0,6.7,2.9,6.7,6.5v25.8
			C212.6,277,209.7,279.9,206,279.9z M166.1,267h33.3v-12.9h-33.3V267z"/>
		<path class="st5" d="M252.5,279.9H206c-3.7,0-6.7-2.9-6.7-6.5v-25.8c0-3.6,3-6.5,6.7-6.5h46.6c3.7,0,6.7,2.9,6.7,6.5v25.8
			C259.2,277,256.2,279.9,252.5,279.9z M212.6,267h33.3v-12.9h-33.3V267z"/>
		<path class="st5" d="M299.1,279.9h-46.6c-3.7,0-6.7-2.9-6.7-6.5v-25.8c0-3.6,3-6.5,6.7-6.5h46.6c3.7,0,6.7,2.9,6.7,6.5v25.8
			C305.8,277,302.8,279.9,299.1,279.9z M259.2,267h33.3v-12.9h-33.3V267z"/>
		<path class="st5" d="M345.7,279.9h-46.6c-3.7,0-6.7-2.9-6.7-6.5v-25.8c0-3.6,3-6.5,6.7-6.5h46.6c3.7,0,6.7,2.9,6.7,6.5v25.8
			C352.3,277,349.3,279.9,345.7,279.9z M305.8,267H339v-12.9h-33.3V267z"/>
		<path class="st5" d="M206,305.7h-46.6c-3.7,0-6.7-2.9-6.7-6.5v-25.8c0-3.6,3-6.5,6.7-6.5H206c3.7,0,6.7,2.9,6.7,6.5v25.8
			C212.6,302.9,209.7,305.7,206,305.7z M166.1,292.8h33.3v-12.9h-33.3V292.8z"/>
		<path class="st5" d="M252.5,305.7H206c-3.7,0-6.7-2.9-6.7-6.5v-25.8c0-3.6,3-6.5,6.7-6.5h46.6c3.7,0,6.7,2.9,6.7,6.5v25.8
			C259.2,302.9,256.2,305.7,252.5,305.7z M212.6,292.8h33.3v-12.9h-33.3V292.8z"/>
		<path class="st5" d="M299.1,305.7h-46.6c-3.7,0-6.7-2.9-6.7-6.5v-25.8c0-3.6,3-6.5,6.7-6.5h46.6c3.7,0,6.7,2.9,6.7,6.5v25.8
			C305.8,302.9,302.8,305.7,299.1,305.7z M259.2,292.8h33.3v-12.9h-33.3V292.8z"/>
		<path class="st5" d="M345.7,305.7h-46.6c-3.7,0-6.7-2.9-6.7-6.5v-25.8c0-3.6,3-6.5,6.7-6.5h46.6c3.7,0,6.7,2.9,6.7,6.5v25.8
			C352.3,302.9,349.3,305.7,345.7,305.7z M305.8,292.8H339v-12.9h-33.3V292.8z"/>
	</g>
	<path class="st6" d="M199.3,435h-26.5c-11,0-20-8.7-20-19.4v-38.7c0-10.7,9-19.4,20-19.4h26.5c3.7,0,6.7,2.9,6.7,6.5
		c0,3.6-3,6.5-6.7,6.5h-26.5c-3.7,0-6.7,2.9-6.7,6.5v38.7c0,3.6,3,6.5,6.7,6.5h26.5c3.7,0,6.7,2.9,6.7,6.5
		C206,432.1,203,435,199.3,435z"/>
	<path class="st6" d="M249.2,435h-23.3c-3.7,0-6.7-2.9-6.7-6.5c0-3.6,3-6.5,6.7-6.5h23.3c5.5,0,10-4.3,10-9.7c0-5.3-4.5-9.7-10-9.7
		h-6.7c-12.8,0-23.3-10.1-23.3-22.6c0-12.5,10.4-22.6,23.3-22.6h23.3c3.7,0,6.7,2.9,6.7,6.5c0,3.6-3,6.5-6.7,6.5h-23.3
		c-5.5,0-10,4.3-10,9.7c0,5.3,4.5,9.7,10,9.7h6.7c12.8,0,23.3,10.1,23.3,22.6C272.5,424.8,262.1,435,249.2,435z"/>
	<path class="st6" d="M319.1,435c-2.7,0-5.2-1.6-6.2-4.1l-26.6-64.6c-1.4-3.3,0.3-7.1,3.7-8.4c3.4-1.3,7.3,0.3,8.6,3.6l20.4,49.6
		l20.4-49.6c1.4-3.3,5.2-4.9,8.6-3.6c3.4,1.3,5.1,5.1,3.7,8.4l-26.6,64.6C324.2,433.4,321.8,435,319.1,435z"/>
</g>
</svg>
