<svg xmlns="http://www.w3.org/2000/svg" viewBox="0 0 64 64"><path d="M61.707 14.293l-12-12A1 1 0 0049 2H19a1 1 0 00-1 1v6a1 1 0 002 0V4h28v10a2 2 0 002 2h10v44H20v-3a1 1 0 00-2 0v4a1 1 0 001 1h42a1 1 0 001-1V15a1 1 0 00-.293-.707zM50 5.414L58.586 14H50z"/><path d="M33 15a1 1 0 00-1 1v1.378a20.96 20.96 0 00-29.75 1.731 1 1 0 001.5 1.324A18.959 18.959 0 0130.811 19H29a1 1 0 000 2h4a1 1 0 001-1v-4a1 1 0 00-1-1zM55 27H37a1 1 0 000 2h18a1 1 0 000-2zM37 23h18a1 1 0 000-2H37a1 1 0 000 2zM55 33H37a1 1 0 000 2h18a1 1 0 000-2zM55 39H37a1 1 0 000 2h18a1 1 0 000-2zM55 45H37a1 1 0 000 2h18a1 1 0 000-2zM55 51H37a1 1 0 000 2h18a1 1 0 000-2z"/><path d="M18 47A14 14 0 104 33a14.015 14.015 0 0014 14zm0-26A12 12 0 116 33a12.013 12.013 0 0112-12z"/><path d="M25 34h1a1 1 0 000-2h-1a1 1 0 000 2zM11 34a1 1 0 000-2h-1a1 1 0 000 2zM18 38c-1.626 0-3-.916-3-2a1 1 0 00-2 0c0 1.932 1.721 3.547 4 3.919V42a1 1 0 002 0v-2.081c2.279-.372 4-1.987 4-3.919 0-2.206-2.243-4-5-4-1.626 0-3-.916-3-2s1.374-2 3-2 3 .916 3 2a1 1 0 002 0c0-1.932-1.721-3.547-4-3.919V24a1 1 0 00-2 0v2.081c-2.279.372-4 1.987-4 3.919 0 2.206 2.243 4 5 4 1.626 0 3 .916 3 2s-1.374 2-3 2zM32.25 45.567A18.959 18.959 0 015.189 47H7a1 1 0 000-2H3a1 1 0 00-1 1v4a1 1 0 002 0v-1.378a20.96 20.96 0 0029.75-1.731 1 1 0 10-1.5-1.324z"/></svg>