<svg class="missio__svg" viewBox="0 0 480 480" xmlns="http://www.w3.org/2000/svg"><path d="M424 432c0 8.836-7.164 16-16 16s-16-7.164-16-16 7.164-16 16-16 16 7.164 16 16zm0 0"/><path d="M467.2 251.2l-11.2-7.438V136c-.055-43.754-32.203-80.84-75.504-87.113L399.2 11.574A8 8 0 00392 0h-96a7.998 7.998 0 00-7.2 11.574l18.665 37.313C264.18 55.176 232.055 92.262 232 136v107.719l-11.16 7.441A28.797 28.797 0 00208 275.2a28.45 28.45 0 003.152 12.8H176V152h40v-16h-44.93l-62.222-56h112.304l7.575 6.191 10.12-12.382-9.784-8A7.99 7.99 0 00224 64H87.938a8.024 8.024 0 00-2.555.465c-.254.086-.48.238-.727.351-.586.27-1.136.61-1.64 1.008-.114.09-.254.121-.368.223l-80 72A8.01 8.01 0 000 144v152c.047 31.73 20.832 59.703 51.2 68.902A33.998 33.998 0 0040 390.105v1.735a33.96 33.96 0 0018.871 30.558l93.281 46.633A104.517 104.517 0 00198.664 480H472a8 8 0 008-8V360a8 8 0 00-8-8h-18.848A71.861 71.861 0 00480 296a7.89 7.89 0 00-3.871-6.688A28.493 28.493 0 00480 275.2a28.795 28.795 0 00-12.8-24zm-243.2 24a12.806 12.806 0 015.719-10.688l14.722-9.817A8 8 0 00248 248V136c.047-39.746 32.254-71.953 72-72a7.998 7.998 0 007.2-11.574L308.944 16h70.11L360.84 52.426A8.001 8.001 0 00368 64c39.746.047 71.953 32.254 72 72v112a8.003 8.003 0 003.559 6.656l14.722 9.817a12.842 12.842 0 015.18 14.386A12.842 12.842 0 01451.199 288H236.84c-7.07-.008-12.808-5.727-12.839-12.8zM16 147.558l72-64.797 72 64.797V288h-40v-56a8 8 0 00-8-8H64a8 8 0 00-8 8v56H16zM104 288H72v-48h32zm57.113 104.383L107.88 368h56.57a31.362 31.362 0 00-3.336 24.383zm-1.8 62.32L66.03 408.07A18.031 18.031 0 0156 391.84v-1.735a18.11 18.11 0 0125.695-16.504l90.97 41.665A8.06 8.06 0 00176 416h80a8 8 0 000-16h-64c-8.836 0-16-7.164-16-16s7.164-16 16-16h61.336a7.976 7.976 0 003.824-.977l2.047-1.109A106.739 106.739 0 01360 364.754V464H198.664a88.272 88.272 0 01-39.351-9.297zM464 368v96h-88v-96zm-56-16h-38.023a122.615 122.615 0 00-118.403-.145L192 352H72c-27.824-.035-51.418-20.465-55.434-48h446.868c-4.016 27.535-27.61 47.965-55.434 48zm0 0"/><path d="M356 168h-24c-6.629 0-12-5.371-12-12s5.371-12 12-12h44v-16h-24v-16h-16v16h-4c-15.465 0-28 12.535-28 28s12.535 28 28 28h24c6.629 0 12 5.371 12 12s-5.371 12-12 12h-44v16h24v16h16v-16h4c15.465 0 28-12.535 28-28s-12.535-28-28-28zm0 0M72 208h32a8 8 0 008-8v-40a8 8 0 00-8-8H72a8 8 0 00-8 8v40a8 8 0 008 8zm8-40h16v24H80zm0 0"/></svg>