<svg xmlns="http://www.w3.org/2000/svg" x="0" y="0" viewBox="0 0 512 512" style="enable-background:new 0 0 512 512" xml:space="preserve"><style>.st0{fill:#d9e7ec}.st1{fill:#c5d3dd}.st2{fill:#fff}.st4{fill:#ea4444}</style><path class="st0" d="M511.3 274.3c.4-6 .7-12.1.7-18.3C512 114.6 397.4 0 256 0S0 114.6 0 256c0 117.8 79.5 216.9 187.8 246.8l323.5-228.5z"/><path class="st1" d="M511.3 274.3 315 77.9 119.1 434.1l68.7 68.7c21.7 6 44.6 9.2 68.2 9.2 135.2 0 246-104.9 255.3-237.7z"/><path class="st2" d="m278.3 333.9-22.6-256H119.1v233.7l159.2 22.3z"/><path class="st2" d="M392.9 311.7V155.8l-55.7-22.3L315 77.9h-59.3l.4 256 136.8-22.2z"/><path d="M315 155.8V77.9l77.9 77.9H315z" style="fill:#8d9ca8"/><path class="st4" d="M119.1 311.7h273.8v122.4H119.1V311.7zM299.1 200.8c0 28.8-23.3 52.1-52.1 52.1s-52-23.3-52-52.1 23.3-52.1 52.1-52.1 52 23.3 52 52.1z"/><path d="M299.1 200.8c0 28.8-23.3 52.1-52.1 52.1-12.1 0-23.3-4.1-32.1-11.1 5.4 1.9 11.3 3 17.4 3 28.8 0 52.1-23.3 52.1-52.1 0-16.6-7.8-31.5-20-41 20.2 7.2 34.7 26.4 34.7 49.1z" style="fill:#d93131"/><path class="st0" d="m269.9 196.1-29.4-17c-3.6-2.1-8.2.5-8.2 4.7v34c0 4.2 4.5 6.8 8.2 4.7l29.4-17c3.7-2.1 3.7-7.3 0-9.4z"/><path class="st1" d="m269.9 205.5-29.4 17c-3.6 2.1-8.2-.5-8.2-4.7v-4.4l33.8-19.5 3.8 2.2c3.7 2.1 3.7 7.3 0 9.4z"/><path class="st2" d="M216.4 380.2c-.8 1.3-1.8 1.8-2.9 1.8-1 0-2-.4-2.7-1.8l-9.9-18.8v35.9c0 1.7-1.9 2.6-3.9 2.6-1.9 0-3.9-.9-3.9-2.6v-47.5c0-2.9 1.9-3.9 3.9-3.9 2.8 0 4.4 1 6.2 4.4l10.3 19.6 10.5-19.6c1.8-3.5 3.3-4.4 6.1-4.4 2.1 0 3.9 1 3.9 3.9v47.5c0 1.7-1.9 2.6-3.9 2.6-1.9 0-3.9-.9-3.9-2.6v-35.5l-9.8 18.4zM243.9 348.5c0-1.3 1.2-2.5 3-2.5h14.4c9.1 0 16.2 4.4 16.2 16.3v.6c0 11.8-7.3 16.3-16.6 16.3h-9.2v18.3c0 1.7-1.9 2.6-3.9 2.6-1.9 0-3.9-.9-3.9-2.6v-49zm7.9 4.4v20h9.2c5.5 0 8.8-3.1 8.8-9.6v-.9c0-6.5-3.3-9.5-8.8-9.5h-9.2zM299.3 387.8h-18.2c-1.6 0-2.7-1.1-2.7-2.9 0-.5.1-1.1.4-1.6l17.9-35.2c.8-1.6 2.1-2.1 3.4-2.1 1.5 0 3.9 1.2 3.9 3 0 .4-.1.7-.4 1.2l-15.2 30.4h10.9v-10.2c0-1.8 1.9-2.6 3.9-2.6 1.9 0 3.9.7 3.9 2.6v10.2h3.6c1.8 0 2.7 1.8 2.7 3.7 0 1.8-1.3 3.6-2.7 3.6h-3.6v9.5c0 1.7-2 2.6-3.9 2.6-2 0-3.9-.9-3.9-2.6v-9.6z"/></svg>