<svg xmlns="http://www.w3.org/2000/svg" width="100%" height="116.167" viewBox="0 0 108.531 116.167"><path data-name="Path 1" d="M60.86 1.62l39.455 19.67a15.064 15.064 0 0 1 6.017 5.5 14.477 14.477 0 0 1 2.2 7.81v47.083a14.188 14.188 0 0 1-2.2 7.752 15.208 15.208 0 0 1-6.017 5.438l-39.455 19.79a15.211 15.211 0 0 1-13.19 0L8.096 94.878a14.7 14.7 0 0 1-8.1-13.306V34.596a14.477 14.477 0 0 1 2.2-7.813 15.064 15.064 0 0 1 6.017-5.5L47.67 1.62a14.236 14.236 0 0 1 13.19 0zm31.7 26.843L56.464 10.414a4.9 4.9 0 0 0-4.4 0l-11.452 5.669 38.3 19.207zm6.136 7.984l-17.472 8.794-21.983 10.992v48.25l36.678-18.4a5.517 5.517 0 0 0 2.025-1.851 4.575 4.575 0 0 0 .752-2.549zM49.29 104.483v-48.25L9.835 36.447v45.125a4.927 4.927 0 0 0 2.661 4.511zM29.62 21.637l-13.653 6.826 38.3 19.207 13.653-6.827z" fill="#bfbfbf"/></svg>