<?xml version="1.0" encoding="iso-8859-1"?>
<!-- Generator: Adobe Illustrator 19.0.0, SVG Export Plug-In . SVG Version: 6.00 Build 0)  -->
<svg version="1.1" id="Capa_1" xmlns="http://www.w3.org/2000/svg" xmlns:xlink="http://www.w3.org/1999/xlink" x="0px" y="0px"
	 viewBox="0 0 512 512" style="enable-background:new 0 0 512 512;" xml:space="preserve">
<path style="fill:#C69A6A;" d="M512,256c0,19.508-2.184,38.494-6.311,56.738c-6.416,28.348-17.533,54.909-32.496,78.817
	c-0.637,1.024-1.285,2.048-1.943,3.072C425.681,465.251,346.3,512,256,512S86.319,465.251,40.751,394.627
	c-19.822-30.699-33.249-65.912-38.4-103.769c-1.191-8.735-1.933-17.617-2.215-26.624C0.042,261.496,0,258.759,0,256
	c0-24.9,3.553-48.964,10.177-71.722c2.654-9.101,5.799-17.993,9.415-26.645c5.862-14.106,12.967-27.564,21.159-40.26
	C86.319,46.749,165.7,0,256,0s169.681,46.749,215.249,117.373c10.365,16.06,18.986,33.353,25.59,51.618
	c3.124,8.673,5.81,17.565,8.004,26.645c2.111,8.714,3.772,17.607,4.953,26.645c1.16,8.746,1.86,17.638,2.111,26.645
	C511.969,251.277,512,253.628,512,256z"/>
<path style="fill:#F9EED7;" d="M471.249,127.76v266.867C425.681,465.251,346.3,512,256,512S86.319,465.251,40.751,394.627V22.8
	c0-12.591,10.209-22.8,22.8-22.8h279.939L471.249,127.76z"/>
<path style="fill:#E8DBC4;" d="M343.489,104.958V0l127.76,127.76H366.291C353.698,127.76,343.489,117.551,343.489,104.958z"/>
<path style="fill:#4BC999;" d="M471.249,330.961v63.666C425.681,465.251,346.3,512,256,512S86.319,465.251,40.751,394.627v-63.666
	L471.249,330.961L471.249,330.961z"/>
<circle style="fill:#FFD15C;" cx="123.894" cy="93.759" r="43.112"/>
<polygon style="fill:#E28D40;" points="40.751,330.961 170.187,201.525 300.527,330.828 "/>
<polygon style="fill:#EDBB4C;" points="144.614,330.961 307.363,168.212 471.249,330.795 "/>
<g>
	<path style="fill:#F9EED7;" d="M131.488,366.385c0-3.327,3.063-6.256,7.721-6.256h27.551c17.569,0,31.412,8.253,31.412,30.613
		v0.665c0,22.361-14.375,30.879-32.742,30.879h-13.176v28.749c0,4.259-5.192,6.389-10.383,6.389c-5.19,0-10.383-2.129-10.383-6.389
		v-84.65H131.488z M152.253,378.231v28.085h13.176c7.453,0,11.978-4.259,11.978-13.31v-1.465c0-9.051-4.524-13.31-11.978-13.31
		L152.253,378.231L152.253,378.231z"/>
	<path style="fill:#F9EED7;" d="M266.581,451.835l-25.29-46.052v45.253c0,4.259-5.19,6.389-10.381,6.389
		c-5.19,0-10.381-2.13-10.381-6.389v-84.519c0-4.392,5.19-6.389,10.381-6.389c7.453,0,10.249,0.666,15.306,10.383l21.563,41.127
		v-45.253c0-4.392,5.19-6.256,10.381-6.256c5.192,0,10.383,1.864,10.383,6.256v84.651c0,4.259-5.19,6.389-10.383,6.389
		C273.368,457.425,269.109,456.493,266.581,451.835z"/>
	<path style="fill:#F9EED7;" d="M347.902,378.231c-7.587,0-11.978,4.259-11.978,13.31v35.272c0,9.051,4.391,13.31,11.844,13.31
		s11.98-4.259,11.98-13.31v-4.525h-7.852c-3.994,0-6.257-3.86-6.257-7.986c0-3.86,2.263-7.986,6.257-7.986h22.361
		c3.992,0,6.255,3.062,6.255,6.521v13.975c0,22.893-14.375,31.412-32.743,31.412c-18.367,0-32.61-8.518-32.61-31.412V391.54
		c0-22.893,14.508-31.412,31.944-31.412c19.035,0,33.41,9.583,33.41,26.487c0,7.986-3.328,9.849-10.383,9.849
		c-5.589,0-10.249-1.464-10.381-6.255C359.615,385.419,359.216,378.231,347.902,378.231z"/>
</g>
<g>
</g>
<g>
</g>
<g>
</g>
<g>
</g>
<g>
</g>
<g>
</g>
<g>
</g>
<g>
</g>
<g>
</g>
<g>
</g>
<g>
</g>
<g>
</g>
<g>
</g>
<g>
</g>
<g>
</g>
</svg>
