<svg xmlns="http://www.w3.org/2000/svg" x="0" y="0" viewBox="0 0 512 512" style="enable-background:new 0 0 512 512" xml:space="preserve"><style>.st2{fill:#fff}.st5{fill:#a09893}</style><path d="M511.3 274.3c.4-6 .7-12.1.7-18.3C512 114.6 397.4 0 256 0S0 114.6 0 256c0 117.8 79.5 216.9 187.8 246.8l323.5-228.5z" style="fill:#f96155"/><path d="M511.3 274.3 315 77.9 119.1 434.1l68.7 68.7c21.7 6 44.6 9.2 68.2 9.2 135.2 0 246-104.9 255.3-237.7z" style="fill:#e5463e"/><path class="st2" d="m278.3 333.9-22.6-256H119.1v233.7l159.2 22.3z"/><path d="M392.9 311.7V155.8l-55.7-22.3L315 77.9h-59.3l.4 256 136.8-22.2z" style="fill:#e8e6e6"/><path class="st2" d="M315 155.8V77.9l77.9 77.9H315z"/><path d="M119.1 311.7h273.8v122.4H119.1V311.7z" style="fill:#d71d09"/><path class="st2" d="M192.3 399.4c-2.5 0-4.5-2-4.5-4.4v-44.5c0-2.5 2-4.5 4.5-4.5s4.5 2 4.5 4.5V395c-.1 2.4-2.1 4.4-4.5 4.4z"/><path class="st2" d="M205.6 381.6h-13.4c-2.5 0-4.5-2-4.5-4.5v-26.7c0-2.5 2-4.5 4.5-4.5h13.4c9.8 0 17.8 8 17.8 17.8 0 9.9-7.9 17.9-17.8 17.9zm-8.9-8.9h8.9c4.9 0 8.9-4 8.9-8.9s-4-8.9-8.9-8.9h-8.9v17.8zM241.2 399.4c-2.5 0-4.5-2-4.5-4.4v-44.5c0-2.5 2-4.5 4.5-4.5s4.5 2 4.5 4.5V395c0 2.4-2 4.4-4.5 4.4z"/><path class="st2" d="M254.6 381.6h-13.4c-2.5 0-4.5-2-4.5-4.5v-26.7c0-2.5 2-4.5 4.5-4.5h13.4c9.8 0 17.8 8 17.8 17.8 0 9.9-8 17.9-17.8 17.9zm-8.9-8.9h8.9c4.9 0 8.9-4 8.9-8.9s-4-8.9-8.9-8.9h-8.9v17.8zM316.9 354.8h-26.7c-2.5 0-4.5-2-4.5-4.5s2-4.5 4.5-4.5h26.7c2.5 0 4.5 2 4.5 4.5 0 2.6-2 4.5-4.5 4.5z"/><path class="st2" d="M303.6 399.4c-2.5 0-4.5-2-4.5-4.4v-44.5c0-2.5 2-4.5 4.5-4.5s4.5 2 4.5 4.5V395c-.1 2.4-2.1 4.4-4.5 4.4z"/><g><path class="st5" d="M216 278.6c-.9 0-1.8-.2-2.6-.7-2.4-1.5-3.2-4.6-1.8-7.1l15.4-25.7c1.5-2.4 4.6-3.2 7.1-1.8 2.4 1.5 3.2 4.6 1.8 7.1l-15.4 25.7c-1 1.6-2.7 2.5-4.5 2.5zM277.8 278.6c-1.8 0-3.5-.9-4.4-2.5L258 250.4c-1.5-2.4-.7-5.6 1.8-7.1 2.4-1.5 5.6-.7 7.1 1.8l15.4 25.7c1.5 2.4.7 5.6-1.8 7.1-.9.5-1.8.7-2.7.7zM246.9 170.5c-1.3 0-2.6-.5-3.6-1.5l-15.4-15.4c-2-2-2-5.3 0-7.3s5.3-2 7.3 0l15.4 15.4c2 2 2 5.3 0 7.3-1.1 1-2.4 1.5-3.7 1.5z"/><path class="st5" d="M246.9 170.5c-1.3 0-2.6-.5-3.6-1.5-2-2-2-5.3 0-7.3l15.4-15.4c2-2 5.3-2 7.3 0s2 5.3 0 7.3L250.5 169c-1 1-2.3 1.5-3.6 1.5z"/><path d="M180 165.4h133.8v82.4H180v-82.4z" style="fill:#c8c1bd"/><path class="st5" d="M241.8 191.1h-41.2c-2.8 0-5.1-2.3-5.1-5.1s2.3-5.1 5.1-5.1h41.2c2.8 0 5.1 2.3 5.1 5.1s-2.3 5.1-5.1 5.1zM293.2 232.3H252c-2.8 0-5.1-2.3-5.1-5.1s2.3-5.1 5.1-5.1h41.2c2.8 0 5.1 2.3 5.1 5.1.1 2.8-2.2 5.1-5.1 5.1zM267.5 211.7h-41.2c-2.8 0-5.1-2.3-5.1-5.1s2.3-5.1 5.1-5.1h41.2c2.8 0 5.1 2.3 5.1 5.1s-2.3 5.1-5.1 5.1z"/></g></svg>