<svg xmlns="http://www.w3.org/2000/svg" version="1.1" xmlns:xlink="http://www.w3.org/1999/xlink" xmlns:svgjs="http://svgjs.com/svgjs" viewBox="0 0 512 512" style="enable-background:new 0 0 512 512" xml:space="preserve" class=""><g><path xmlns="http://www.w3.org/2000/svg" d="M464,360V120a40.048,40.048,0,0,0-36.526-39.84L365.657,18.343A8,8,0,0,0,360,16H312a72.37,72.37,0,0,0-56,26.746A72.372,72.372,0,0,0,200,16H88a8,8,0,0,0-8,8V80.805A40.067,40.067,0,0,0,48,120V360a40.045,40.045,0,0,0,40,40H205.754l-12,48H168a40.045,40.045,0,0,0-40,40,8,8,0,0,0,8,8H376a8,8,0,0,0,8-8,40.045,40.045,0,0,0-40-40H318.246l-12-48H424A40.045,40.045,0,0,0,464,360ZM368,43.314,404.686,80H368ZM96,32H200a56.27,56.27,0,0,1,44.8,22.4l4.8,6.4A8,8,0,0,0,256,64h0a8,8,0,0,0,6.4-3.2l4.8-6.4A56.267,56.267,0,0,1,312,32h40V88a8,8,0,0,0,8,8h56V256H312a72.368,72.368,0,0,0-56,26.747A72.368,72.368,0,0,0,200,256H96ZM416,272v16H272.853A56.291,56.291,0,0,1,312,272ZM96,272H200a56.291,56.291,0,0,1,39.147,16H96ZM64,120A24.039,24.039,0,0,1,80,97.376V296a8,8,0,0,0,8,8H424a8,8,0,0,0,8-8V97.376A24.039,24.039,0,0,1,448,120V320H64ZM344,464a24.042,24.042,0,0,1,22.629,16H145.371A24.042,24.042,0,0,1,168,464ZM210.246,448l12-48h67.508l12,48ZM88,384a24.027,24.027,0,0,1-24-24V336H448v24a24.027,24.027,0,0,1-24,24Z" fill="#000000" data-original="#000000" style="" class=""></path><path xmlns="http://www.w3.org/2000/svg" d="M208,224a8,8,0,0,0,5.271-14.021L156.149,160l57.119-49.979a8,8,0,1,0-10.536-12.042l-64,56a8,8,0,0,0,0,12.042l64,56A7.969,7.969,0,0,0,208,224Z" fill="#000000" data-original="#000000" style="" class=""></path><path xmlns="http://www.w3.org/2000/svg" d="M297.979,221.268a8,8,0,0,0,11.289.753l64-56a8,8,0,0,0,0-12.042l-64-56a8,8,0,0,0-10.536,12.042L355.851,160l-57.119,49.979A8,8,0,0,0,297.979,221.268Z" fill="#000000" data-original="#000000" style="" class=""></path><path xmlns="http://www.w3.org/2000/svg" d="M238.265,239.81a7.992,7.992,0,0,0,9.545-6.075l32-144a8,8,0,0,0-15.62-3.47l-32,144A8,8,0,0,0,238.265,239.81Z" fill="#000000" data-original="#000000" style="" class=""></path></g></svg>