<svg version="1" id="Layer_1" xmlns="http://www.w3.org/2000/svg" viewBox="0 0 120 70"><style>.st0{fill:#bfbfbf}</style><switch><g><path class="st0" d="M119.5 39.8c0-3.8-1.6-6.9-4.8-8.7-1.4-.8-3-1.2-4.6-1.8v-2.8c0-6.3-4.2-10.5-10.5-10.5H88.9c-2.4 0-3.4.8-3.4 3.2v32.5h-6.3V13.2c0-6-4.2-10.3-10.1-10.3H29c-1.2 0-2.4.2-3.6.6-4.2 1.6-6.7 5-6.7 9.7v3.4h-2.8c-1.6 0-2.6 1.4-2.4 3 .2 1.2 1.2 2 2.4 2h24c1.2-.2 2-1.4 2-2.6s-1-2.2-2.2-2.4H24v-3c-.2-3.4 2.4-5.6 5.4-5.6h39.1c3.8 0 5.6 1.8 5.6 5.6v38.1H53.9c-1 0-1.4-.2-1.6-1.2-1.6-5-6.3-8.5-11.5-8.5s-9.9 3.4-11.7 8.3c-.1.3-.1.7-.3 1.2H24V39.8h1c1.8 0 3-1 3-2.4 0-1.6-1.2-2.6-2.8-2.6H2.6c-1.8 0-3 1-2.8 2.6 0 1.6 1.2 2.4 3 2.4h16.1v13.7c0 1.8 1 2.8 2.8 2.8h7.1c.2.4.2.6.2.8 1.6 5.8 6.3 9.3 11.7 9.3s10.1-3.4 11.7-8.7c.2-.8.6-1 1.4-1h32.1c2.2 6.3 6 9.5 11.3 9.7 2.6.2 5-.6 7.3-2 2.8-1.8 4.4-4.4 5.4-7.7h6.9c2 0 3-1 3-2.8-.1-4.9-.1-9.5-.3-14.1zM40.7 61.3c-4 0-7.1-3.2-7.1-7.3 0-3.8 3.2-7.1 7.3-6.9 4 0 7.1 3.2 7.1 7.3-.1 3.7-3.5 6.9-7.3 6.9zm57 0c-4 0-7.1-3.2-7.1-7.3 0-3.8 3.2-6.9 7.3-6.9 4 0 7.1 3.2 7.1 7.3-.2 3.7-3.4 6.9-7.3 6.9zm16.8-9.6h-4.8c-1-4.2-3.4-7.3-7.5-8.7-4-1.6-7.9-1-11.5 1.4V21h9.1c3 0 5 1.8 5.2 4.8h-3.8c-1.8 0-3.2 1.4-3.2 3.2s1.4 3.2 3.2 3.2h3.8c.2 1.4 1 2.8 3 2.6h2.2c2.4.2 4.2 2 4.2 4.4.3 4 .1 8 .1 12.5z"/><path class="st0" d="M9.4 30.7h23c1.6 0 2.8-1 2.8-2.4s-1-2.6-2.6-2.6h-23c-.6 0-1.4.4-1.8.8-1.2.6-1.4 1.6-1 2.6.6 1 1.4 1.6 2.6 1.6z"/></g></switch></svg>