<svg height="512pt" viewBox="0 -22 512 512" width="512pt" xmlns="http://www.w3.org/2000/svg" fill="#d0d0d0"><path d="m317.804688 356.992188c-4.140626 0-7.5 3.359374-7.5 7.5v12.449218c0 4.144532 3.359374 7.5 7.5 7.5 4.144531 0 7.5-3.355468 7.5-7.5v-12.449218c0-4.140626-3.355469-7.5-7.5-7.5zm0 0"/><path d="m194.195312 356.992188c-4.144531 0-7.5 3.359374-7.5 7.5v12.449218c0 4.144532 3.355469 7.5 7.5 7.5 4.140626 0 7.5-3.355468 7.5-7.5v-12.449218c0-4.140626-3.359374-7.5-7.5-7.5zm0 0"/><path d="m231.78125 205.039062 3.855469-11.8125h40.226562l4.445313 12.074219c1.117187 3.035157 3.746094 6.484375 9.628906 4.449219 3.917969-1.355469 5.878906-5.742188 4.449219-9.628906l-33.226563-90.257813c-1.105468-2.996093-3.964844-4.941406-7.179687-4.90625-3.191407.058594-5.996094 2.136719-6.988281 5.171875l-23.945313 73.335938c-.007813.015625-.011719.03125-.019531.050781l-5.507813 16.867187c-1.285156 3.9375.867188 8.171876 4.804688 9.457032 3.9375 1.28125 8.171875-.863282 9.457031-4.800782zm22.765625-69.71875 15.796875 42.90625h-29.808594zm0 0"/><path d="m170.339844 210.210938c4.140625 0 7.5-3.355469 7.5-7.5v-82.753907h22.164062c4.140625 0 7.5-3.355469 7.5-7.5s-3.359375-7.5-7.5-7.5h-59.328125c-4.144531 0-7.5 3.355469-7.5 7.5s3.355469 7.5 7.5 7.5h22.164063v82.753907c0 4.144531 3.355468 7.5 7.5 7.5zm0 0"/><path d="m318.902344 209.308594c5.21875 2.324218 8.8125-.519532 10.167968-3.027344l17.828126-32.941406 17.832031 32.941406c1.355469 2.507812 5.445312 5.503906 10.164062 3.027344 3.667969-1.925782 5-6.523438 3.027344-10.167969l-22.492187-41.554687 22.492187-41.558594c1.972656-3.644532.617187-8.195313-3.027344-10.167969-3.640625-1.972656-8.195312-.613281-10.164062 3.027344l-17.832031 32.941406-17.828126-32.941406c-1.972656-3.644531-6.523437-5-10.167968-3.027344-3.640625 1.972656-4.996094 6.523437-3.023438 10.167969l22.492188 41.558594-22.492188 41.554687c-1.972656 3.644531-.757812 8.480469 3.023438 10.167969zm0 0"/><path d="m504.5 307.824219c-4.144531 0-7.5 3.359375-7.5 7.5v83.453125c0 12.777344-4.394531 24.542968-11.738281 33.886718l-162.644531-154.230468 168.269531-81.425782c3.980469 10.109376 6.113281 20.96875 6.113281 32.003907v54.308593c0 4.140626 3.359375 7.5 7.5 7.5 4.144531 0 7.5-3.359374 7.5-7.5v-54.308593c0-31.699219-15.011719-62.144531-40.15625-81.445313l-20.285156-15.570312v-32.582032c0-32.382812-26.347656-58.726562-58.730469-58.726562h-60.238281l-34.359375-26.375c-24.863281-19.082031-59.597657-19.082031-84.460938 0l-34.359375 26.375h-60.238281c-18.484375 0-36.113281 8.867188-47.15625 23.71875-2.472656 3.324219-1.78125 8.023438 1.542969 10.492188 3.324218 2.472656 8.023437 1.78125 10.496094-1.542969 8.34375-11.226563 21.144531-17.667969 35.117187-17.667969h273.65625c24.113281 0 43.730469 19.613281 43.730469 43.726562v107.222657l-125.574219 60.761719-6.21875-5.894532c-27.34375-25.929687-70.1875-25.929687-97.53125 0l-6.21875 5.894532-125.574219-60.761719v-107.222657c0-4.144531-3.355468-7.5-7.5-7.5-4.140625 0-7.5 3.355469-7.5 7.5v32.582032l-20.285156 15.570312c-25.144531 19.300782-40.15625 49.746094-40.15625 81.445313v169.765625c0 38.578125 31.390625 69.96875 69.96875 69.96875h372.0625c38.578125 0 69.96875-31.390625 69.96875-69.96875v-83.453125c0-4.140625-3.355469-7.5-7.5-7.5zm-281.597656-281.613281c19.488281-14.953126 46.707031-14.957032 66.195312 0l18.855469 14.476562h-103.910156zm228.65625 124.695312 11.152344 8.558594c8.679687 6.664062 15.941406 14.882812 21.519531 24.101562l-32.675781 15.808594v-48.46875zm-402.269532 8.558594 11.152344-8.558594v48.472656l-32.671875-15.8125c5.574219-9.21875 12.839844-17.4375 21.519531-24.101562zm-34.289062 239.3125v-169.765625c0-11.035157 2.132812-21.894531 6.113281-32.003907l168.269531 81.425782-162.644531 154.234375c-7.34375-9.34375-11.738281-21.109375-11.738281-33.890625zm54.96875 54.96875c-12.125 0-23.339844-3.957032-32.441406-10.632813l180.027344-170.722656c21.558593-20.445313 55.332031-20.445313 76.890624 0l180.03125 170.71875c-9.097656 6.679687-20.316406 10.636719-32.445312 10.636719zm0 0"/><path d="m256 352.832031c-12.425781 0-22.535156 11.957031-22.535156 26.65625 0 14.695313 10.109375 26.652344 22.535156 26.652344s22.535156-11.957031 22.535156-26.652344c0-14.699219-10.109375-26.65625-22.535156-26.65625zm0 38.308594c-3.5625 0-7.535156-4.785156-7.535156-11.652344 0-6.871093 3.972656-11.65625 7.535156-11.65625 3.566406 0 7.535156 4.785157 7.535156 11.65625 0 6.867188-3.96875 11.652344-7.535156 11.652344zm0 0"/></svg>