<svg xmlns="http://www.w3.org/2000/svg" viewBox="0 0 226 225"><path fill-rule="evenodd" fill="#4167b0" d="M205 156s3.852 24.92-18 41c0 0-17.233 10.466-37 4 0 0-8.477 23.645-39 24 0 0-22.095-.623-34-24 0 0-30.497 10.075-47-14 0 0-8.82-10.916-8-31 0 0-22.691-15.886-21-39 0 0 .427-28.027 23-38 0 0-9.648-29.654 10-46 0 0 19.277-17.36 42-8 0 0 8.033-25 38-25 0 0 23.852-.343 36 24 0 0 28.891-12.242 50 18 0 0 9.236 18.191 3 37 0 0 23 12.475 23 39 0 0 1.17 23.978-21 38zm-51-84c-6.861-5.764-12 1-12 1l-42 62-19-20c-5.649-5.117-11 0-11 0-4.778 3.9-1 10-1 10l2 3 26 26c5.03 4.972 11-1 11-1l47-70c4.689-7.073-1-11-1-11z"/></svg>