<svg xmlns="http://www.w3.org/2000/svg" version="1.1" xmlns:xlink="http://www.w3.org/1999/xlink" xmlns:svgjs="http://svgjs.com/svgjs" viewBox="0 0 512 512" style="enable-background:new 0 0 512 512" xml:space="preserve" class=""><g><g xmlns="http://www.w3.org/2000/svg" id="XMLID_124_"><path id="XMLID_342_" d="m308 213.1-96-55.4c-2.5-1.4-5.5-1.4-8 0s-4 4.1-4 6.9v110.9c0 2.8 1.5 5.5 4 6.9 1.2.7 2.6 1.1 4 1.1s2.8-.4 4-1.1l96-55.4c2.5-1.4 4-4.1 4-6.9s-1.5-5.6-4-7zm-92 48.5v-83.1l72 41.6z" fill="#000000" data-original="#000000" style="" class=""></path><path id="XMLID_290_" d="m383 380c0 4.4-3.6 8-8 8h-111v3.6c0 4.4-3.6 8-8 8s-8-3.6-8-8v-3.6h-111c-4.4 0-8-3.6-8-8s3.6-8 8-8h111v-4.4c0-4.4 3.6-8 8-8s8 3.6 8 8v4.4h111c4.4 0 8 3.6 8 8z" fill="#000000" data-original="#000000" style="" class=""></path><path id="XMLID_346_" d="m449.7 88h-387.4c-21.1 0-38.3 17.2-38.3 38.3v259.3c0 21.1 17.2 38.3 38.3 38.3h387.3c21.1 0 38.3-17.2 38.3-38.3v-259.3c.1-21.1-17.1-38.3-38.2-38.3zm22.3 297.7c0 12.3-10 22.3-22.3 22.3h-387.4c-12.3 0-22.3-10-22.3-22.3v-33.7h432zm0-49.7h-432v-209.7c0-12.3 10-22.3 22.3-22.3h387.3c12.3 0 22.3 10 22.3 22.3v209.7z" fill="#000000" data-original="#000000" style="" class=""></path><circle id="XMLID_289_" cx="69.5" cy="380" r="8" fill="#000000" data-original="#000000" style="" class=""></circle><circle id="XMLID_267_" cx="101.5" cy="380" r="8" fill="#000000" data-original="#000000" style="" class=""></circle><circle id="XMLID_266_" cx="410.5" cy="380" r="8" fill="#000000" data-original="#000000" style="" class=""></circle><circle id="XMLID_264_" cx="442.5" cy="380" r="8" fill="#000000" data-original="#000000" style="" class=""></circle></g></g></svg>