<svg xmlns="http://www.w3.org/2000/svg" viewBox="0 0 512 512" style="enable-background:new 0 0 512 512" xml:space="preserve"><g xmlns="http://www.w3.org/2000/svg"><circle cx="256" cy="256" fill="#fd5" r="256" data-original="#ffdd55"/><path d="m106 381 130.249 130.249c6.518.497 13.105.751 19.751.751 141.385 0 256-114.615 256-256 0-6.646-.254-13.233-.751-19.751L406 131z" fill="#edbe00" data-original="#edbe00"/><path d="M315.531 235.08 256 339.416l-150-11.342V131h150z" fill="#ff5b5b" data-original="#ff5b5b"/><path d="m406 328.074-150 11.342V131h150z" fill="#c8001c" data-original="#c8001c"/><path d="M256 381H106v-53.902h150l29.766 27.354z" fill="#6c67d2" data-original="#6c67d2"/><path d="M256 327.098h150V381H256z" fill="#534dca" data-original="#534dca"/><path d="M129.036 346.416h253.929v16.071H129.036z" fill="#e6e6ff" data-original="#e6e6ff"/><path d="M256 346.416h126.964v16.071H256z" fill="#b7b5e9" data-original="#b7b5e9"/><circle cx="163.5" cy="354.452" fill="#9cd29a" r="18.571" data-original="#9cd29a"/><g><path d="M217.899 283.896v-97.632l97.632 48.816z" fill="#fff" data-original="#ffffff"/><path d="m256 264.845 59.531-29.765L256 205.314z" fill="#e6e6ff" data-original="#e6e6ff"/></g></g></svg>