<?xml version="1.0" encoding="utf-8"?>
<!-- Generator: Adobe Illustrator 22.0.1, SVG Export Plug-In . SVG Version: 6.00 Build 0)  -->
<svg version="1.1" id="Layer_1" xmlns="http://www.w3.org/2000/svg" xmlns:xlink="http://www.w3.org/1999/xlink" x="0px" y="0px"
	 viewBox="0 0 512 512" style="enable-background:new 0 0 512 512;" xml:space="preserve">
<style type="text/css">
	.st0{fill:#25cefc;}
	.st1{fill:#0ba1ca;}
	.st2{fill:#E3E4D8;}
	.st3{fill:#D0CEBD;}
	.st4{fill:#82C288;}
	.st5{fill:#FFFFFF;}
	.st6{fill:#A09893;}
</style>
<path class="st0" d="M511.3,274.3c0.4-6,0.7-12.1,0.7-18.3C512,114.6,397.4,0,256,0S0,114.6,0,256c0,117.8,79.5,216.9,187.8,246.8
	L511.3,274.3z"/>
<path class="st1" d="M512,266.2L325.4,77.9L124.2,454.5l63.6,48.3c21.7,6,44.6,9.2,68.2,9.2C391.2,512,502.6,399,512,266.2z"/>
<g>
	<path class="st2" d="M383.9,435H124.2V77.9h201.3l58.4,58.4V435z"/>
	<path class="st3" d="M325.4,77.9v58.4h58.4L325.4,77.9z"/>
	<path class="st4" d="M124.2,337.6h259.7v116.9H124.2V337.6z"/>
	<path class="st5" d="M273.5,435h-39c-3.6,0-6.5-2.9-6.5-6.5c0-3.6,2.9-6.5,6.5-6.5h39c3.6,0,6.5,2.9,6.5,6.5
		C280,432.1,277.1,435,273.5,435z"/>
	<path class="st5" d="M234.5,435c-3.6,0-6.5-2.9-6.5-6.5v-64.9c0-3.6,2.9-6.5,6.5-6.5c3.6,0,6.5,2.9,6.5,6.5v64.9
		C241,432.1,238.1,435,234.5,435z"/>
	<g>
		<path class="st6" d="M215.1,201.3h-51.9c-3.6,0-6.5-2.9-6.5-6.5v-26c0-3.6,2.9-6.5,6.5-6.5h51.9c3.6,0,6.5,2.9,6.5,6.5v26
			C221.6,198.4,218.7,201.3,215.1,201.3z M169.6,188.3h39v-13h-39V188.3z"/>
		<path class="st6" d="M215.1,227.2h-51.9c-3.6,0-6.5-2.9-6.5-6.5v-26c0-3.6,2.9-6.5,6.5-6.5h51.9c3.6,0,6.5,2.9,6.5,6.5v26
			C221.6,224.3,218.7,227.2,215.1,227.2z M169.6,214.2h39v-13h-39V214.2z"/>
		<path class="st6" d="M344.9,227.2H215.1c-3.6,0-6.5-2.9-6.5-6.5v-26c0-3.6,2.9-6.5,6.5-6.5h129.8c3.6,0,6.5,2.9,6.5,6.5v26
			C351.4,224.3,348.5,227.2,344.9,227.2z M221.6,214.2h116.9v-13H221.6V214.2z"/>
		<path class="st6" d="M215.1,253.2h-51.9c-3.6,0-6.5-2.9-6.5-6.5v-26c0-3.6,2.9-6.5,6.5-6.5h51.9c3.6,0,6.5,2.9,6.5,6.5v26
			C221.6,250.3,218.7,253.2,215.1,253.2z M169.6,240.2h39v-13h-39V240.2z"/>
		<path class="st6" d="M344.9,253.2H215.1c-3.6,0-6.5-2.9-6.5-6.5v-26c0-3.6,2.9-6.5,6.5-6.5h129.8c3.6,0,6.5,2.9,6.5,6.5v26
			C351.4,250.3,348.5,253.2,344.9,253.2z M221.6,240.2h116.9v-13H221.6V240.2z"/>
		<path class="st6" d="M215.1,279.2h-51.9c-3.6,0-6.5-2.9-6.5-6.5v-26c0-3.6,2.9-6.5,6.5-6.5h51.9c3.6,0,6.5,2.9,6.5,6.5v26
			C221.6,276.3,218.7,279.2,215.1,279.2z M169.6,266.2h39v-13h-39V266.2z"/>
		<path class="st6" d="M344.9,279.2H215.1c-3.6,0-6.5-2.9-6.5-6.5v-26c0-3.6,2.9-6.5,6.5-6.5h129.8c3.6,0,6.5,2.9,6.5,6.5v26
			C351.4,276.3,348.5,279.2,344.9,279.2z M221.6,266.2h116.9v-13H221.6V266.2z"/>
		<path class="st6" d="M215.1,305.1h-51.9c-3.6,0-6.5-2.9-6.5-6.5v-26c0-3.6,2.9-6.5,6.5-6.5h51.9c3.6,0,6.5,2.9,6.5,6.5v26
			C221.6,302.2,218.7,305.1,215.1,305.1z M169.6,292.2h39v-13h-39V292.2z"/>
		<path class="st6" d="M344.9,305.1H215.1c-3.6,0-6.5-2.9-6.5-6.5v-26c0-3.6,2.9-6.5,6.5-6.5h129.8c3.6,0,6.5,2.9,6.5,6.5v26
			C351.4,302.2,348.5,305.1,344.9,305.1z M221.6,292.2h116.9v-13H221.6V292.2z"/>
	</g>
	<path class="st5" d="M163.1,435c-1.1,0-2.3-0.3-3.3-0.9c-3.1-1.8-4.1-5.8-2.2-8.9l39-64.9c1.8-3.1,5.8-4.1,8.9-2.2
		c3.1,1.8,4.1,5.8,2.2,8.9l-39,64.9C167.5,433.9,165.3,435,163.1,435z"/>
	<path class="st5" d="M202.1,435c-2.2,0-4.4-1.1-5.6-3.1l-39-64.9c-1.8-3.1-0.9-7.1,2.2-8.9c3.1-1.9,7.1-0.9,8.9,2.2l39,64.9
		c1.8,3.1,0.9,7.1-2.2,8.9C204.4,434.7,203.2,435,202.1,435z"/>
	<path class="st5" d="M328.7,435H306c-3.6,0-6.5-2.9-6.5-6.5c0-3.6,2.9-6.5,6.5-6.5h22.7c5.4,0,9.7-4.4,9.7-9.7
		c0-5.4-4.4-9.7-9.7-9.7h-6.5c-12.5,0-22.7-10.2-22.7-22.7c0-12.5,10.2-22.7,22.7-22.7h22.7c3.6,0,6.5,2.9,6.5,6.5
		c0,3.6-2.9,6.5-6.5,6.5h-22.7c-5.4,0-9.7,4.4-9.7,9.7c0,5.4,4.4,9.7,9.7,9.7h6.5c12.5,0,22.7,10.2,22.7,22.7
		C351.4,424.8,341.2,435,328.7,435z"/>
</g>
</svg>
