<svg xmlns="http://www.w3.org/2000/svg" viewBox="0 0 512 512" fill="#fff"><path d="M496 56H16a8 8 0 00-8 8v352a8 8 0 008 8h381.06l28.22 28.23a8.015 8.015 0 0011.32 0l22.63-22.63a8.03 8.03 0 002.34-5.6H496a8 8 0 008-8V64a8 8 0 00-8-8zm-65.06 379.25l-79.19-79.19 11.31-11.31 79.19 79.19zm-90.51-67.88l8.63 8.63H184v-24a24.032 24.032 0 00-24-24H96a24.032 24.032 0 00-24 24v24H56V104h400v272h-39.06l-42.57-42.57a16.006 16.006 0 00-22.62 0l-11.32 11.32a16.006 16.006 0 000 22.62zM168 352v24H88v-24a8.011 8.011 0 018-8h64a8.011 8.011 0 018 8zm320 56h-39.06l-16-16H464a8 8 0 008-8V96a8 8 0 00-8-8H48a8 8 0 00-8 8v288a8 8 0 008 8h317.06l16 16H24V72h464z"/><path d="M269.858 183.077a30.2 30.2 0 01-4 5.8c-25.712 30.854-23.329 57.74-12.525 72.612 11.42 15.718 32.476 20.4 53.642 11.937 6.317-2.526 11.038-2.639 14.031-.333 8.264 6.366 8.324 29.644 7.06 39.913a8 8 0 006.946 8.93 8.1 8.1 0 001 .063 8 8 0 007.928-7.009c.518-4.145 4.551-40.893-13.154-54.558-5.358-4.137-14.867-7.818-29.755-1.862-14.14 5.656-27.783 3.113-34.755-6.485-7.265-10-7.962-29.166 11.872-52.966 8.46-10.152 10.456-18.609 5.928-25.137-5.368-7.741-18.252-12.81-75.653 2.377-29.9 7.911-58.775 17.988-59.064 18.088a8 8 0 005.286 15.1c.261-.092 26.437-9.227 54.5-16.819 42.455-11.483 56.561-10.593 60.713-9.651zM122.343 211.343l-8 8a8 8 0 0011.314 11.314l8-8a8 8 0 00-11.314-11.314z"/></svg>