<svg xmlns="http://www.w3.org/2000/svg" viewBox="0 0 512 512" fill="#fff"><path d="M56 264h400a7.995 7.995 0 008-8v-32a7.995 7.995 0 00-8-8h-16V24a7.995 7.995 0 00-8-8H80a7.995 7.995 0 00-8 8v192H56a7.995 7.995 0 00-8 8v32a7.995 7.995 0 008 8zM88 32h336v184H216v-32a7.995 7.995 0 00-8-8h-64a7.995 7.995 0 00-8 8v32H88zm112 184h-48v-24h48zM64 232h384v16H64zM160 312h32v16h-32zM320 312h32v16h-32z"/><path d="M472 296h-85.247l-3.089-10.297A8.007 8.007 0 00376 280h-80a8.007 8.007 0 00-7.664 5.703L285.247 296h-58.494l-3.089-10.297A8.007 8.007 0 00216 280h-80a8.007 8.007 0 00-7.664 5.703L125.247 296H40a7.995 7.995 0 00-8 8v32a7.995 7.995 0 008 8h8v144a7.995 7.995 0 008 8h16a7.995 7.995 0 007.953-7.164L95.2 344h15.648l-6.511 21.703A8.129 8.129 0 00104 368v24a23.95 23.95 0 0016.631 22.722l7.408 74.075A8.001 8.001 0 00136 496h16a8.001 8.001 0 007.96-7.203L167.24 416h17.52l7.28 72.797A8.001 8.001 0 00200 496h16a8.001 8.001 0 007.96-7.203l7.408-74.075A23.95 23.95 0 00248 392v-24a8.129 8.129 0 00-.336-2.297L241.154 344h29.693l-6.511 21.703A8.129 8.129 0 00264 368v24a23.95 23.95 0 0016.631 22.722l7.408 74.075A8.001 8.001 0 00296 496h16a8.001 8.001 0 007.96-7.203L327.24 416h17.52l7.28 72.797A8.001 8.001 0 00360 496h16a8.001 8.001 0 007.96-7.203l7.408-74.075A23.95 23.95 0 00408 392v-24a8.129 8.129 0 00-.336-2.297L401.154 344H416.8l15.246 144.836A7.995 7.995 0 00440 496h16a7.995 7.995 0 008-8V344h8a7.995 7.995 0 008-8v-32a7.995 7.995 0 00-8-8zM64.797 480H64V344h15.117zM48 328v-16h72.447l-4.8 16zm96.758 152h-1.516l-6.401-64h14.318zm62.484 0l-6.401-64h14.318l-6.401 64zM232 392a8.005 8.005 0 01-8 8h-96a8.005 8.005 0 01-8-8v-22.828L141.953 296h68.094L232 369.172zm4.353-64l-4.8-16h48.894l-4.8 16zm68.405 152h-1.516l-6.401-64h14.318zm62.484 0l-6.401-64h14.318l-6.401 64zM392 392a8.005 8.005 0 01-8 8h-96a8.005 8.005 0 01-8-8v-22.828L301.953 296h68.094L392 369.172zm56 88h-.797l-14.32-136H448zm16-152h-67.647l-4.8-16H464z"/></svg>